<svg width="80" height="80" viewBox="0 0 80 80" fill="none" xmlns="http://www.w3.org/2000/svg">
<rect width="80" height="80" rx="40" fill="url(#paint0_linear_191_11329)"/>
<rect width="80" height="80" rx="40" fill="url(#paint1_radial_191_11329)" fill-opacity="0.5"/>
<rect x="1" y="1" width="78" height="78" rx="39" stroke="url(#paint2_radial_191_11329)" stroke-opacity="0.4" stroke-width="2"/>
<rect x="1" y="1" width="78" height="78" rx="39" stroke="url(#paint3_radial_191_11329)" stroke-opacity="0.4" stroke-width="2"/>
<path d="M50 51.5C50.8284 51.5 51.5 50.8284 51.5 50L51.5 36.5C51.5 35.6716 50.8284 35 50 35C49.1716 35 48.5 35.6716 48.5 36.5V48.5H36.5C35.6716 48.5 35 49.1716 35 50C35 50.8284 35.6716 51.5 36.5 51.5L50 51.5ZM28.9393 31.0607L48.9393 51.0607L51.0607 48.9393L31.0607 28.9393L28.9393 31.0607Z" fill="#855C29"/>
<defs>
<linearGradient id="paint0_linear_191_11329" x1="83.595" y1="-3.91893" x2="-18.7825" y2="7.64577" gradientUnits="userSpaceOnUse">
<stop stop-color="#FFE9C8"/>
<stop offset="0.197278" stop-color="#FFD9AD"/>
<stop offset="0.480812" stop-color="#FFDDB5"/>
<stop offset="0.696698" stop-color="#FFDDB5"/>
<stop offset="1" stop-color="#FFCC8F"/>
</linearGradient>
<radialGradient id="paint1_radial_191_11329" cx="0" cy="0" r="1" gradientUnits="userSpaceOnUse" gradientTransform="translate(40 1.78075) rotate(90) scale(44.1077)">
<stop stop-color="#F7F7F7"/>
<stop offset="1" stop-color="#F7F7F7" stop-opacity="0"/>
</radialGradient>
<radialGradient id="paint2_radial_191_11329" cx="0" cy="0" r="1" gradientUnits="userSpaceOnUse" gradientTransform="translate(80 -6.48649) rotate(97.5146) scale(78.9211 91.9176)">
<stop stop-color="#F7F7F7"/>
<stop offset="1" stop-color="#F7F7F7" stop-opacity="0"/>
</radialGradient>
<radialGradient id="paint3_radial_191_11329" cx="0" cy="0" r="1" gradientUnits="userSpaceOnUse" gradientTransform="translate(0.911916 27.4324) rotate(82.3567) scale(39.2678 45.9563)">
<stop stop-color="#F7F7F7"/>
<stop offset="1" stop-color="#F7F7F7" stop-opacity="0"/>
</radialGradient>
</defs>
</svg>
