<svg width="35" height="36" viewBox="0 0 35 36" fill="none" xmlns="http://www.w3.org/2000/svg">
<path fill-rule="evenodd" clip-rule="evenodd" d="M17.7333 34.5671C26.754 34.5671 34.0667 27.2544 34.0667 18.2337C34.0667 9.21307 26.754 1.90039 17.7333 1.90039C8.71269 1.90039 1.4 9.21307 1.4 18.2337C1.4 27.2544 8.71269 34.5671 17.7333 34.5671ZM25.2336 14.0859C25.649 13.5518 25.5528 12.7822 25.0188 12.3668C24.4847 11.9515 23.7151 12.0477 23.2997 12.5817L16.755 20.9964C16.6094 21.1835 16.3357 21.2078 16.1595 21.0492L12.0195 17.3232C11.5166 16.8707 10.7421 16.9114 10.2895 17.4143C9.83689 17.9172 9.87766 18.6917 10.3805 19.1443L14.5205 22.8703C15.7539 23.9803 17.6701 23.8104 18.6889 22.5006L25.2336 14.0859Z" fill="#855C29"/>
</svg>
