<svg width="25" height="25" viewBox="0 0 25 25" fill="none" xmlns="http://www.w3.org/2000/svg">
<path fill-rule="evenodd" clip-rule="evenodd" d="M12.6667 24.3333C19.11 24.3333 24.3333 19.11 24.3333 12.6667C24.3333 6.22334 19.11 1 12.6667 1C6.22334 1 1 6.22334 1 12.6667C1 19.11 6.22334 24.3333 12.6667 24.3333ZM18.024 9.70391C18.3207 9.32245 18.252 8.77271 17.8705 8.47602C17.4891 8.17934 16.9393 8.24805 16.6427 8.62951L11.9678 14.64C11.8639 14.7737 11.6683 14.791 11.5425 14.6777L8.58535 12.0163C8.22616 11.693 7.6729 11.7222 7.34963 12.0814C7.02635 12.4406 7.05547 12.9938 7.41466 13.3171L10.3718 15.9785C11.2528 16.7714 12.6215 16.65 13.3492 15.7144L18.024 9.70391Z" fill="#133029"/>
</svg>
