<svg width="25" height="25" viewBox="0 0 25 25" fill="none" xmlns="http://www.w3.org/2000/svg">
<g opacity="0.5">
<path fill-rule="evenodd" clip-rule="evenodd" d="M12.6667 23.8333C19.11 23.8333 24.3333 18.61 24.3333 12.1667C24.3333 5.72334 19.11 0.5 12.6667 0.5C6.22334 0.5 1 5.72334 1 12.1667C1 18.61 6.22334 23.8333 12.6667 23.8333ZM18.024 9.20391C18.3207 8.82245 18.252 8.27271 17.8705 7.97602C17.4891 7.67934 16.9393 7.74805 16.6427 8.12951L11.9678 14.14C11.8639 14.2737 11.6683 14.291 11.5425 14.1777L8.58535 11.5163C8.22616 11.193 7.6729 11.2222 7.34963 11.5814C7.02635 11.9406 7.05547 12.4938 7.41466 12.8171L10.3718 15.4785C11.2528 16.2714 12.6215 16.15 13.3492 15.2144L18.024 9.20391Z" fill="#F7F7F7"/>
</g>
</svg>
