<svg width="50" height="50" viewBox="0 0 50 50" fill="none" xmlns="http://www.w3.org/2000/svg">
<path fill-rule="evenodd" clip-rule="evenodd" d="M25.3333 48.6667C38.22 48.6667 48.6667 38.22 48.6667 25.3333C48.6667 12.4467 38.22 2 25.3333 2C12.4467 2 2 12.4467 2 25.3333C2 38.22 12.4467 48.6667 25.3333 48.6667ZM36.048 19.4078C36.6414 18.6449 36.504 17.5454 35.7411 16.952C34.9782 16.3587 33.8787 16.4961 33.2853 17.259L23.9356 29.28C23.7277 29.5473 23.3367 29.582 23.085 29.3555L17.1707 24.0326C16.4523 23.3861 15.3458 23.4443 14.6993 24.1627C14.0527 24.8811 14.1109 25.9876 14.8293 26.6342L20.7436 31.957C22.5056 33.5428 25.243 33.3 26.6984 31.4288L36.048 19.4078Z" fill="url(#paint0_linear_136_4647)"/>
<path fill-rule="evenodd" clip-rule="evenodd" d="M25.3333 48.6667C38.22 48.6667 48.6667 38.22 48.6667 25.3333C48.6667 12.4467 38.22 2 25.3333 2C12.4467 2 2 12.4467 2 25.3333C2 38.22 12.4467 48.6667 25.3333 48.6667ZM36.048 19.4078C36.6414 18.6449 36.504 17.5454 35.7411 16.952C34.9782 16.3587 33.8787 16.4961 33.2853 17.259L23.9356 29.28C23.7277 29.5473 23.3367 29.582 23.085 29.3555L17.1707 24.0326C16.4523 23.3861 15.3458 23.4443 14.6993 24.1627C14.0527 24.8811 14.1109 25.9876 14.8293 26.6342L20.7436 31.957C22.5056 33.5428 25.243 33.3 26.6984 31.4288L36.048 19.4078Z" fill="url(#paint1_radial_136_4647)" fill-opacity="0.5"/>
<defs>
<linearGradient id="paint0_linear_136_4647" x1="50.7637" y1="-0.286042" x2="-8.95648" y2="6.46003" gradientUnits="userSpaceOnUse">
<stop stop-color="#FFE9C8"/>
<stop offset="0.197278" stop-color="#FFD9AD"/>
<stop offset="0.480812" stop-color="#FFDDB5"/>
<stop offset="0.696698" stop-color="#FFDDB5"/>
<stop offset="1" stop-color="#FFCC8F"/>
</linearGradient>
<radialGradient id="paint1_radial_136_4647" cx="0" cy="0" r="1" gradientUnits="userSpaceOnUse" gradientTransform="translate(25.3333 3.03877) rotate(90) scale(25.7295)">
<stop stop-color="#F7F7F7"/>
<stop offset="1" stop-color="#F7F7F7" stop-opacity="0"/>
</radialGradient>
</defs>
</svg>
