<svg width="265" height="350" viewBox="0 0 265 350" fill="none" xmlns="http://www.w3.org/2000/svg">
<path d="M197.306 60.7891L220.509 114.872L243.711 60.7891L230.693 118.182L281.254 88.0658L236.988 126.846L295.594 132.2L236.988 137.555L281.254 176.334L230.693 146.218L243.711 203.611L220.509 149.528L197.306 203.611L210.324 146.218L159.763 176.334L204.029 137.555L145.423 132.2L204.029 126.846L159.763 88.0658L210.324 118.182L197.306 60.7891Z" fill="#FFE9C8" stroke="#FFE9C8" stroke-width="1.5" stroke-linecap="round" stroke-linejoin="round"/>
<path d="M220.509 0L229.936 103.186L298.214 25.2479L245.19 114.268L346.239 91.3483L251.016 132.2L346.239 173.053L245.19 150.132L298.214 239.153L229.936 161.215L220.509 264.401L211.081 161.215L142.803 239.153L195.827 150.132L94.7786 173.053L190.001 132.2L94.7786 91.3483L195.827 114.268L142.803 25.2479L211.081 103.186L220.509 0Z" fill="#133029" stroke="#FFE9C8" stroke-width="1.5" stroke-linecap="round" stroke-linejoin="round"/>
<path d="M220.509 163.159C237.607 163.159 251.467 149.298 251.467 132.2C251.467 115.102 237.607 101.242 220.509 101.242C203.411 101.242 189.55 115.102 189.55 132.2C189.55 149.298 203.411 163.159 220.509 163.159Z" fill="#FFE9C8"/>
<path d="M191.429 42.7026L193.93 50.3998" stroke="#FFE9C8" stroke-width="1.5" stroke-linecap="round" stroke-linejoin="round"/>
<path d="M144.377 76.8877L150.925 81.6446" stroke="#FFE9C8" stroke-width="1.5" stroke-linecap="round" stroke-linejoin="round"/>
<path d="M126.405 132.2H134.498" stroke="#FFE9C8" stroke-width="1.5" stroke-linecap="round" stroke-linejoin="round"/>
<path d="M144.377 187.513L150.925 182.756" stroke="#FFE9C8" stroke-width="1.5" stroke-linecap="round" stroke-linejoin="round"/>
<path d="M191.429 221.699L193.93 214.001" stroke="#FFE9C8" stroke-width="1.5" stroke-linecap="round" stroke-linejoin="round"/>
<path d="M249.588 42.7026L247.088 50.3998" stroke="#FFE9C8" stroke-width="1.5" stroke-linecap="round" stroke-linejoin="round"/>
<path d="M249.588 221.699L247.088 214.001" stroke="#FFE9C8" stroke-width="1.5" stroke-linecap="round" stroke-linejoin="round"/>
<path d="M220.509 0V110.085" stroke="#FFE9C8" stroke-width="1.5" stroke-linecap="round" stroke-linejoin="round"/>
<path d="M142.803 25.248L207.509 114.308" stroke="#FFE9C8" stroke-width="1.5" stroke-linecap="round" stroke-linejoin="round"/>
<path d="M94.7786 91.3484L199.475 125.366" stroke="#FFE9C8" stroke-width="1.5" stroke-linecap="round" stroke-linejoin="round"/>
<path d="M94.7786 173.053L199.475 139.034" stroke="#FFE9C8" stroke-width="1.5" stroke-linecap="round" stroke-linejoin="round"/>
<path d="M298.214 25.248L233.508 114.308" stroke="#FFE9C8" stroke-width="1.5" stroke-linecap="round" stroke-linejoin="round"/>
<path d="M346.239 91.3484L241.542 125.366" stroke="#FFE9C8" stroke-width="1.5" stroke-linecap="round" stroke-linejoin="round"/>
<path d="M346.239 173.053L241.542 139.034" stroke="#FFE9C8" stroke-width="1.5" stroke-linecap="round" stroke-linejoin="round"/>
<path d="M142.803 239.153L207.509 150.092" stroke="#FFE9C8" stroke-width="1.5" stroke-linecap="round" stroke-linejoin="round"/>
<path d="M298.214 239.153L233.508 150.092" stroke="#FFE9C8" stroke-width="1.5" stroke-linecap="round" stroke-linejoin="round"/>
<path d="M220.509 264.4V154.316" stroke="#FFE9C8" stroke-width="1.5" stroke-linecap="round" stroke-linejoin="round"/>
<path d="M243.384 276.34C233.322 267.571 225.819 255.865 214.543 248.723C210.735 246.311 206.544 244.58 202.436 242.724C182.168 233.564 165.549 224.566 150.338 209.86C144.474 204.191 140.885 198.058 135.227 190.798C133.619 188.737 129.828 184.19 125.238 182.536L125.554 182.349C123.022 178.875 121.367 178.08 119.405 178.458C117.629 178.8 113.75 181.064 112.348 182.389C110.811 183.839 111.093 185.541 111.371 186.685C111.651 187.829 112.227 188.858 112.715 189.919L113.005 189.748C112.656 192.675 113.473 196.15 114.829 200.033C117.764 208.441 126.286 215.515 132.2 220.516C141.018 227.971 148.821 237.785 153.556 246.31C147.73 246.013 142.119 245.45 135.802 245.437C129.015 245.423 124.992 246.922 120.009 246.997L119.847 247.274C114.728 242.79 110.994 238.63 106.033 233.814C96.8462 224.895 89.2733 215.587 82.2209 204.9C79.6912 201.066 76.7902 195.919 74.3622 191.676C71.1471 186.058 70.206 182.106 64.3169 178.029C61.715 176.229 58.6987 175.468 56.4471 175.559C54.1957 175.65 51.3455 176.93 50.5426 179.035C49.617 181.461 50.826 184.129 52.0086 186.44C56.1117 194.461 60.215 202.481 64.318 210.501C66.6065 214.975 71.4859 226.399 76.2662 232.479C75.0501 232.8 74.0228 233.406 73.3062 234.324C64.5318 227 56.0164 220.487 47.2117 213.068C44.3367 210.646 40.7295 207.218 37.9119 204.435C34.5243 201.09 31.7724 197.707 27.7349 195.184C23.6975 192.661 18.5486 191.349 14.1335 193.131C12.7131 193.704 11.3509 194.658 10.7613 196.072C9.82749 198.311 11.0901 200.832 12.49 202.813C15.1079 206.517 18.322 209.753 21.5197 212.969C34.5233 226.05 41.816 233.536 54.8194 246.617C55.8894 247.693 56.9623 248.772 58.0478 249.838C47.9215 250.241 39.2987 249.891 29.2248 248.787C24.7199 248.292 17.7364 246.465 13.2592 247.165C8.7822 247.866 5.98104 250.679 3.85369 254.68C3.56739 255.219 3.32226 255.848 3.51588 256.426C3.71586 257.024 4.3174 257.378 4.87752 257.668C20.312 265.651 38.5507 265.026 55.7529 267.481C68.0734 269.239 78.3292 272.187 90.7308 273.227C101.814 280.611 114.621 289.409 121.22 294.755C124.117 297.101 130.236 302.822 133.37 304.841C136.373 306.777 138.852 307.425 142.576 307.174C144.625 309.063 146.786 310.837 149.278 312.371C154.575 315.632 160.937 316.524 167.053 317.659C178.628 319.807 189.966 323.056 201.283 326.3C212.074 329.394 223.016 332.553 232.58 338.43C238.997 342.373 244.895 347.578 252.206 349.388C256.824 350.532 266.266 347.682 270.878 346.514C282.535 343.561 300.884 343.964 321.133 344.888C321.133 344.888 328.75 339.144 328.75 320.382C328.75 303.879 321.133 293.033 321.133 293.033C304.31 293.867 263.994 294.302 243.384 276.34Z" fill="#FFE9C8"/>
<path d="M323.298 293.343C306.476 294.176 263.993 294.303 243.384 276.341C233.322 267.571 225.819 255.865 214.543 248.724C210.735 246.312 206.544 244.581 202.436 242.724C182.168 233.564 165.549 224.567 150.338 209.86C144.474 204.191 140.885 198.059 135.226 190.799C132.727 187.592 124.942 178.372 117.089 183.377C111.632 186.855 112.276 192.721 114.829 200.033C117.764 208.442 126.286 215.516 132.2 220.516C141.021 227.973 148.826 237.79 153.56 246.318" stroke="#133029" stroke-width="1.5" stroke-linecap="round" stroke-linejoin="round"/>
<path d="M217.685 274.881C193.642 279.129 168.278 275.535 146.362 264.775" stroke="#FFE9C8" stroke-width="1.5" stroke-linecap="round" stroke-linejoin="round"/>
<path d="M143.067 307.137C139.065 307.48 136.504 306.861 133.37 304.841C130.236 302.822 123.168 297.354 120.271 295.007C113.671 289.662 101.813 280.61 90.7292 273.226C81.1833 266.866 72.9166 261.556 70.9967 260.404C64.9052 256.748 59.8283 251.655 54.8196 246.617C41.816 233.536 34.523 226.05 21.5196 212.969C18.322 209.753 15.1078 206.517 12.4902 202.812C11.0901 200.831 9.82746 198.31 10.7613 196.071C11.3509 194.658 12.7128 193.704 14.1334 193.131C18.5485 191.349 23.6975 192.661 27.7349 195.183C31.7726 197.707 34.5243 201.09 37.9118 204.435C40.7294 207.217 44.3367 210.646 47.2116 213.068C56.5026 220.896 65.4719 227.716 74.7629 235.545" stroke="#133029" stroke-width="1.5" stroke-linecap="round" stroke-linejoin="round"/>
<path d="M125.437 251.837C117.049 245.453 112.625 240.214 106.033 233.814C96.8461 224.895 89.2729 215.587 82.2208 204.9C79.6911 201.066 76.7899 195.919 74.3622 191.676C71.1473 186.058 70.206 182.106 64.3169 178.03C61.715 176.229 58.6987 175.468 56.4471 175.559C54.1954 175.65 51.3454 176.93 50.5423 179.035C49.617 181.461 50.8259 184.129 52.0086 186.44C56.1116 194.461 60.2147 202.481 64.318 210.502C66.6065 214.975 71.4862 226.398 76.2667 232.48" stroke="#FFE9C8" stroke-width="1.5" stroke-linecap="round" stroke-linejoin="round"/>
<path d="M165.664 246.317C154.841 246.997 146.297 245.459 135.802 245.437C129.015 245.423 124.992 246.922 120.009 246.997" stroke="#FFE9C8" stroke-width="1.5" stroke-linecap="round" stroke-linejoin="round"/>
<path d="M90.7308 273.227C78.329 272.186 68.0734 269.239 55.7529 267.48C38.5504 265.025 20.3118 265.651 4.87752 257.667C4.3174 257.378 3.71586 257.024 3.51588 256.426C3.32226 255.847 3.56739 255.219 3.85369 254.68C5.98104 250.679 8.78194 247.866 13.2592 247.165C17.7362 246.464 24.72 248.292 29.2246 248.786C39.2988 249.891 47.9205 250.241 58.0467 249.837" stroke="#133029" stroke-width="1.5" stroke-linecap="round" stroke-linejoin="round"/>
<path d="M57.7605 195.934C56.7993 196.785 55.5264 195.052 54.9482 194.304C53.7156 192.71 49.1855 184.223 48.039 181.316C47.5405 180.052 47.0606 179.032 47.3941 178.153C47.7041 177.336 48.9236 176.627 49.9573 176.461C52.198 176.1 52.8602 177.45 53.3419 178.615C54.0986 180.444 58.6435 195.153 57.7605 195.934Z" fill="#133029" stroke="#FFE9C8" stroke-width="1.5" stroke-linecap="round" stroke-linejoin="round"/>
<path d="M21.508 212.338C20.796 213.405 19.1225 212.055 18.3725 211.48C16.7734 210.255 10.2246 203.207 8.37349 200.69C7.56824 199.595 6.84341 198.731 6.94141 197.796C7.03251 196.927 8.0303 195.93 8.98721 195.505C11.0612 194.584 12.0462 195.719 12.8098 196.723C14.0086 198.298 22.1619 211.357 21.508 212.338Z" fill="#FFE9C8" stroke="#133029" stroke-width="1.5" stroke-linecap="round" stroke-linejoin="round"/>
<path d="M20.3771 262.465C20.3256 264.059 16.703 263.457 15.8585 263.328C13.0908 262.906 6.59773 261.552 3.87866 260.645C2.69601 260.251 1.69955 259.986 1.24752 259.241C0.827368 258.549 0.979826 257.29 1.42203 256.477C2.38106 254.714 3.71399 255.045 4.81617 255.393C6.54646 255.94 20.443 260.441 20.3771 262.465Z" fill="#FFE9C8" stroke="#133029" stroke-width="1.5" stroke-linecap="round" stroke-linejoin="round"/>
<path d="M295.148 95.1418C295.459 98.621 295.618 102.144 295.618 105.704C295.618 170.354 243.209 222.763 178.558 222.763C113.908 222.763 61.4991 170.354 61.4991 105.704C61.4991 96.4063 62.5851 87.3628 64.6335 78.6914C49.9849 100.137 41.4166 126.066 41.4166 153.997C41.4166 227.824 101.266 287.674 175.094 287.674C248.921 287.674 308.77 227.824 308.77 153.997C308.77 132.876 303.87 112.9 295.148 95.1418Z" fill="#FFE9C8" stroke="#133029" stroke-width="1.5" stroke-linecap="round" stroke-linejoin="round"/>
<path d="M321.133 344.888C300.884 343.964 282.535 343.561 270.878 346.514C266.266 347.682 256.824 350.532 252.206 349.388C244.895 347.578 238.997 342.373 232.58 338.43C223.016 332.553 212.074 329.394 201.283 326.3C189.966 323.056 178.628 319.807 167.053 317.659C160.937 316.524 154.575 315.631 149.277 312.371C143.283 308.681 139.204 303.601 133.983 298.879C128.171 293.623 119.275 287.886 112.924 283.295C108.978 280.441 107.188 278.4 103.656 275.048C100.102 271.677 96.5479 268.305 92.9938 264.933C85.9011 258.204 78.6929 251.328 73.9909 242.756C72.6755 240.358 71.573 237.386 72.8757 234.981C74.7704 231.483 80.366 231.452 85.2361 233.987C91.0692 237.022 97.1638 245.673 100.309 248.211C113.028 258.474 126.471 267.542 140.312 276.137C154.437 278.328 168.943 284.207 180.187 293.034C180.187 293.034 235.534 323.641 266.604 323.38C297.675 323.119 321.133 344.888 321.133 344.888Z" fill="#FFE9C8"/>
<path d="M150.24 282.193C132.899 271.783 116.049 260.912 100.309 248.211C97.1638 245.673 91.0692 237.022 85.2361 233.987C80.366 231.452 74.7704 231.483 72.8757 234.981C71.573 237.386 72.6755 240.358 73.9909 242.756C78.6929 251.328 85.9011 258.204 92.9938 264.933C96.5479 268.305 100.102 271.677 103.656 275.048C107.188 278.4 108.978 280.441 112.924 283.295C119.275 287.886 128.171 293.623 133.983 298.879C139.204 303.601 143.283 308.681 149.277 312.371C154.575 315.631 160.937 316.524 167.053 317.659C178.628 319.807 189.966 323.056 201.283 326.3C212.074 329.394 223.016 332.553 232.58 338.43C238.997 342.373 244.895 347.578 252.206 349.388C256.824 350.532 266.266 347.682 270.878 346.514C282.535 343.561 303.049 344.165 323.298 345.088" stroke="#133029" stroke-width="1.5" stroke-linecap="round" stroke-linejoin="round"/>
<path d="M180.187 293.034C168.943 284.207 154.437 278.328 140.312 276.137" stroke="#133029" stroke-width="1.5" stroke-linecap="round" stroke-linejoin="round"/>
<path d="M68.2973 238.64C68.0139 238.117 66.3181 235.851 69.7394 234.679C71.6471 234.026 72.8287 234.645 73.9816 236.099C75.0397 237.433 78.2692 242.889 79.3902 245.59C79.918 246.86 80.7673 249.977 79.57 250.613C77.4737 251.727 70.3572 242.444 68.2973 238.64Z" fill="#FFE9C8" stroke="#133029" stroke-width="1.5" stroke-linecap="round" stroke-linejoin="round"/>
<path d="M102.664 54.6934C102.156 53.5849 102.766 52.288 103.879 51.7895C109.815 49.1308 119.035 48.509 124.267 48.509C119.268 48.509 109.317 48.0296 103.747 45.4524C102.583 44.9138 102.111 43.5473 102.64 42.379C103.582 40.3016 105.01 38.277 106.926 36.3608C105.098 38.1896 103.17 39.5744 101.191 40.5159C100.132 41.0197 98.8065 40.504 98.338 39.4286C95.7289 33.4415 94.7786 24.3298 94.7786 19.021C94.7786 24.1489 93.8705 33.522 91.4261 39.3479C90.9491 40.4849 89.6297 41.1044 88.5116 40.5852C86.482 39.6429 84.5044 38.2348 82.6304 36.3608C84.5695 38.2998 86.0095 40.3499 86.951 42.4536C87.4447 43.5568 86.8421 44.8389 85.7423 45.3403C79.9052 48.0022 70.4217 48.509 65.2908 48.509C70.3733 48.509 79.8834 49.4146 85.6397 51.8158C86.7754 52.2893 87.394 53.6058 86.8796 54.7234C85.937 56.7713 84.5206 58.7667 82.6304 60.6569C84.5219 58.7656 86.5186 57.3487 88.5678 56.4062C89.6846 55.8928 90.9987 56.5103 91.4752 57.6433C93.9072 63.4246 94.7786 72.9092 94.7786 77.997C94.7786 72.9416 95.485 63.3019 97.9784 57.5756C98.4641 56.4601 99.7602 55.8527 100.869 56.3523C102.961 57.294 104.998 58.7287 106.926 60.6569C105.027 58.7574 103.606 56.752 102.664 54.6934Z" fill="#133029" stroke="#FFE9C8" stroke-width="1.5" stroke-linecap="round" stroke-linejoin="round"/>
<path d="M109.392 135.911C99.1762 136.418 98.9223 136.828 98.6086 153.331C98.2953 136.828 98.0414 136.418 87.8259 135.911C98.0414 135.405 98.2953 134.994 98.6086 118.491C98.9223 134.994 99.1762 135.405 109.392 135.911Z" fill="#133029" stroke="#FFE9C8" stroke-width="1.5" stroke-linecap="round" stroke-linejoin="round"/>
<path d="M73.903 115.031C74.4082 115.031 74.8176 114.621 74.8176 114.116C74.8176 113.611 74.4082 113.201 73.903 113.201C73.3978 113.201 72.9883 113.611 72.9883 114.116C72.9883 114.621 73.3978 115.031 73.903 115.031Z" fill="#FFE9C8"/>
<path d="M125.826 33.8811C126.331 33.8811 126.74 33.4717 126.74 32.9665C126.74 32.4613 126.331 32.0518 125.826 32.0518C125.32 32.0518 124.911 32.4613 124.911 32.9665C124.911 33.4717 125.32 33.8811 125.826 33.8811Z" fill="#FFE9C8"/>
<path d="M78.2947 98.9641C79.2515 98.9641 80.0272 98.1885 80.0272 97.2317C80.0272 96.2749 79.2515 95.4993 78.2947 95.4993C77.338 95.4993 76.5624 96.2749 76.5624 97.2317C76.5624 98.1885 77.338 98.9641 78.2947 98.9641Z" fill="#FFE9C8"/>
<path d="M131.028 18.7583C131.028 19.7152 130.252 20.4907 129.295 20.4907C128.339 20.4907 127.563 19.7152 127.563 18.7583C127.563 17.8014 128.339 17.0259 129.295 17.0259C130.252 17.0259 131.028 17.8014 131.028 18.7583Z" fill="#FFE9C8"/>
<path d="M134.512 87.4815C130.935 87.4815 130.736 87.7878 130.736 91.2569C130.736 87.7416 130.538 87.4815 126.961 87.4815C130.538 87.4815 130.592 87.245 130.736 83.7063C130.8 87.2333 130.935 87.4815 134.512 87.4815Z" fill="#FFE9C8" stroke="#FFE9C8" stroke-width="1.5" stroke-linecap="round" stroke-linejoin="round"/>
<path d="M180.396 19.9018C176.819 19.9018 176.62 20.208 176.62 23.6771C176.62 20.1618 176.422 19.9018 172.845 19.9018C176.422 19.9018 176.476 19.6651 176.62 16.1265C176.684 19.6537 176.819 19.9018 180.396 19.9018Z" fill="#FFE9C8" stroke="#FFE9C8" stroke-width="1.5" stroke-linecap="round" stroke-linejoin="round"/>
<path d="M262.995 300.954C263.484 300.958 263.883 300.564 263.887 300.075C263.891 299.587 263.498 299.187 263.009 299.184C262.52 299.18 262.121 299.573 262.117 300.062C262.113 300.551 262.506 300.95 262.995 300.954Z" fill="#133029"/>
<path d="M208.174 309.183C208.663 309.187 209.062 308.793 209.066 308.304C209.07 307.816 208.676 307.416 208.187 307.412C207.699 307.409 207.299 307.802 207.296 308.291C207.292 308.78 207.685 309.179 208.174 309.183Z" fill="#133029"/>
<path d="M38.079 258.052C38.5676 258.055 38.9671 257.662 38.9708 257.173C38.9746 256.684 38.5812 256.285 38.0923 256.281C37.6033 256.278 37.2042 256.671 37.2005 257.16C37.1967 257.649 37.59 258.048 38.079 258.052Z" fill="#133029"/>
<path d="M15.1175 253.607C15.6064 253.611 16.0056 253.217 16.0094 252.728C16.0131 252.24 15.6197 251.84 15.1308 251.836C14.6418 251.833 14.2427 252.226 14.239 252.715C14.2353 253.204 14.6285 253.603 15.1175 253.607Z" fill="#133029"/>
<path d="M71.6819 268.169C72.1709 268.172 72.5703 267.779 72.5741 267.29C72.5775 266.801 72.1841 266.402 71.6955 266.398C71.2065 266.395 70.8071 266.788 70.8034 267.277C70.8 267.766 71.1933 268.165 71.6819 268.169Z" fill="#133029"/>
<path d="M42.2952 219.01C42.7842 219.014 43.1836 218.62 43.1873 218.131C43.1907 217.642 42.7975 217.243 42.3088 217.24C41.8198 217.236 41.4204 217.629 41.4167 218.118C41.4129 218.607 41.8066 219.006 42.2952 219.01Z" fill="#133029"/>
<path d="M130.445 197.049C130.934 197.052 131.333 196.659 131.337 196.17C131.34 195.681 130.947 195.282 130.458 195.278C129.969 195.275 129.57 195.668 129.566 196.157C129.562 196.646 129.956 197.045 130.445 197.049Z" fill="#133029"/>
<path d="M62.0444 238.515C62.5334 238.519 62.9325 238.126 62.9362 237.637C62.94 237.148 62.5467 236.748 62.0577 236.745C61.5688 236.741 61.1696 237.135 61.1659 237.623C61.1621 238.112 61.5555 238.512 62.0444 238.515Z" fill="#133029"/>
<path d="M146.606 290.845C147.095 290.849 147.495 290.456 147.498 289.967C147.502 289.478 147.109 289.079 146.62 289.075C146.131 289.071 145.732 289.465 145.728 289.954C145.724 290.443 146.117 290.842 146.606 290.845Z" fill="#133029"/>
<path d="M188.658 315.66C189.147 315.664 189.546 315.271 189.55 314.782C189.554 314.293 189.16 313.894 188.672 313.89C188.183 313.886 187.783 314.279 187.78 314.768C187.776 315.257 188.169 315.657 188.658 315.66Z" fill="#133029"/>
<path d="M126.709 283.895C127.198 283.899 127.598 283.506 127.601 283.017C127.605 282.528 127.211 282.128 126.723 282.125C126.234 282.121 125.834 282.514 125.831 283.003C125.827 283.492 126.22 283.892 126.709 283.895Z" fill="#133029"/>
<path d="M144.37 212.842C144.859 212.845 145.259 212.452 145.262 211.963C145.266 211.474 144.873 211.075 144.384 211.071C143.895 211.068 143.496 211.461 143.492 211.95C143.488 212.439 143.881 212.838 144.37 212.842Z" fill="#133029"/>
<path d="M98.602 261.003C99.0909 261.006 99.4903 260.613 99.4938 260.124C99.4975 259.635 99.1042 259.236 98.6153 259.232C98.1266 259.228 97.7271 259.622 97.7234 260.111C97.7197 260.599 98.1131 260.999 98.602 261.003Z" fill="#133029"/>
<path d="M119.649 271.418C120.138 271.422 120.537 271.028 120.54 270.539C120.544 270.05 120.151 269.651 119.662 269.647C119.173 269.644 118.774 270.037 118.77 270.526C118.766 271.015 119.16 271.414 119.649 271.418Z" fill="#133029"/>
<path d="M219.555 290.205C220.044 290.208 220.443 289.815 220.447 289.326C220.451 288.837 220.057 288.438 219.568 288.434C219.079 288.431 218.68 288.824 218.677 289.313C218.673 289.802 219.066 290.201 219.555 290.205Z" fill="#133029"/>
<path d="M168.841 291.858C169.33 291.862 169.73 291.468 169.734 290.98C169.737 290.491 169.344 290.091 168.855 290.088C168.366 290.084 167.967 290.477 167.963 290.966C167.96 291.455 168.353 291.854 168.841 291.858Z" fill="#133029"/>
<path d="M252.831 330.571C253.32 330.575 253.72 330.181 253.723 329.692C253.727 329.204 253.333 328.804 252.845 328.801C252.356 328.797 251.956 329.19 251.953 329.679C251.949 330.168 252.342 330.567 252.831 330.571Z" fill="#133029"/>
<path d="M226.158 327.015C226.647 327.018 227.046 326.625 227.05 326.136C227.054 325.647 226.66 325.248 226.171 325.244C225.683 325.24 225.283 325.634 225.28 326.123C225.276 326.612 225.669 327.011 226.158 327.015Z" fill="#133029"/>
<path d="M233.77 298.026C234.072 298.029 234.318 297.786 234.321 297.484C234.323 297.182 234.08 296.935 233.778 296.933C233.476 296.93 233.229 297.174 233.227 297.476C233.225 297.777 233.468 298.024 233.77 298.026Z" fill="#133029"/>
<path d="M254.767 304.31C255.069 304.312 255.316 304.069 255.318 303.767C255.32 303.465 255.077 303.219 254.775 303.217C254.473 303.214 254.227 303.457 254.224 303.759C254.222 304.061 254.465 304.308 254.767 304.31Z" fill="#133029"/>
<path d="M195.976 311.896C196.278 311.899 196.525 311.656 196.527 311.354C196.529 311.052 196.286 310.805 195.984 310.803C195.682 310.8 195.436 311.043 195.434 311.345C195.431 311.647 195.674 311.894 195.976 311.896Z" fill="#133029"/>
<path d="M199.333 294.571C199.635 294.573 199.882 294.33 199.884 294.028C199.887 293.726 199.644 293.479 199.342 293.477C199.04 293.475 198.793 293.717 198.791 294.019C198.788 294.321 199.031 294.568 199.333 294.571Z" fill="#133029"/>
<path d="M211.765 322.774C212.067 322.776 212.314 322.533 212.316 322.231C212.318 321.929 212.075 321.683 211.773 321.68C211.471 321.678 211.224 321.921 211.222 322.223C211.22 322.525 211.463 322.772 211.765 322.774Z" fill="#133029"/>
<path d="M238.466 315.097C238.768 315.099 239.014 314.856 239.016 314.554C239.019 314.252 238.776 314.006 238.474 314.003C238.172 314.001 237.925 314.244 237.923 314.546C237.921 314.848 238.164 315.095 238.466 315.097Z" fill="#133029"/>
<path d="M85.2367 242.562C85.5386 242.564 85.7851 242.321 85.7875 242.019C85.7899 241.717 85.5469 241.471 85.2449 241.469C84.943 241.466 84.6962 241.709 84.6941 242.011C84.6917 242.313 84.9347 242.56 85.2367 242.562Z" fill="#133029"/>
<path d="M24.6392 200.443C24.9412 200.445 25.1879 200.202 25.1901 199.9C25.1925 199.598 24.9495 199.351 24.6475 199.349C24.3455 199.347 24.0991 199.589 24.0967 199.891C24.0946 200.193 24.3373 200.44 24.6392 200.443Z" fill="#133029"/>
<path d="M80.1743 259.879C80.4763 259.881 80.723 259.638 80.7252 259.336C80.7276 259.034 80.4846 258.788 80.1826 258.785C79.8806 258.783 79.6339 259.026 79.6318 259.328C79.6294 259.63 79.8724 259.877 80.1743 259.879Z" fill="#133029"/>
<path d="M106.345 271.86C106.647 271.862 106.894 271.619 106.896 271.317C106.898 271.015 106.655 270.769 106.353 270.767C106.051 270.764 105.805 271.007 105.802 271.309C105.8 271.611 106.043 271.858 106.345 271.86Z" fill="#133029"/>
<path d="M27.2492 259.652C27.5511 259.654 27.7976 259.411 27.8 259.109C27.8021 258.807 27.5594 258.561 27.2574 258.558C26.9555 258.556 26.7088 258.799 26.7064 259.101C26.7042 259.403 26.9472 259.65 27.2492 259.652Z" fill="#133029"/>
<path d="M42.2978 225.185C42.5998 225.187 42.8465 224.944 42.8486 224.642C42.851 224.34 42.6081 224.093 42.3061 224.091C42.0041 224.089 41.7574 224.332 41.7553 224.634C41.7529 224.936 41.9958 225.183 42.2978 225.185Z" fill="#133029"/>
<path d="M170.153 313.443C170.455 313.446 170.702 313.203 170.704 312.901C170.707 312.599 170.464 312.352 170.162 312.35C169.86 312.347 169.613 312.591 169.611 312.893C169.608 313.194 169.852 313.441 170.153 313.443Z" fill="#133029"/>
<path d="M133.213 281.75C133.515 281.752 133.762 281.509 133.764 281.207C133.766 280.905 133.523 280.658 133.221 280.656C132.919 280.654 132.672 280.897 132.67 281.199C132.668 281.501 132.911 281.747 133.213 281.75Z" fill="#133029"/>
<path d="M52.5744 255.664C52.8764 255.666 53.1231 255.423 53.1252 255.121C53.1276 254.819 52.8845 254.572 52.5826 254.57C52.2806 254.568 52.0339 254.811 52.0318 255.113C52.0294 255.415 52.2724 255.661 52.5744 255.664Z" fill="#133029"/>
<path d="M67.6235 252.383C67.9255 252.386 68.172 252.143 68.1744 251.841C68.1765 251.539 67.9337 251.292 67.6318 251.29C67.3298 251.287 67.0831 251.53 67.0807 251.832C67.0786 252.134 67.3215 252.381 67.6235 252.383Z" fill="#133029"/>
<path d="M66.5867 265.321C66.8887 265.324 67.1354 265.081 67.1375 264.779C67.1399 264.477 66.8969 264.23 66.5949 264.228C66.2929 264.226 66.0462 264.469 66.0441 264.771C66.0417 265.073 66.2847 265.319 66.5867 265.321Z" fill="#133029"/>
<path d="M150.92 216.627C151.222 216.629 151.469 216.386 151.471 216.085C151.474 215.783 151.231 215.536 150.929 215.534C150.627 215.531 150.38 215.774 150.378 216.076C150.376 216.378 150.618 216.625 150.92 216.627Z" fill="#133029"/>
<path d="M129.562 205.045C129.864 205.047 130.111 204.804 130.113 204.502C130.115 204.2 129.872 203.954 129.57 203.951C129.268 203.949 129.022 204.192 129.019 204.494C129.017 204.796 129.26 205.042 129.562 205.045Z" fill="#133029"/>
<path d="M233.223 283.009C233.525 283.012 233.772 282.769 233.774 282.467C233.776 282.165 233.533 281.918 233.231 281.916C232.929 281.914 232.683 282.156 232.68 282.458C232.678 282.76 232.921 283.007 233.223 283.009Z" fill="#133029"/>
<path d="M260.307 325.315C260.609 325.318 260.856 325.074 260.858 324.773C260.86 324.471 260.618 324.224 260.316 324.222C260.014 324.22 259.767 324.462 259.765 324.764C259.762 325.066 260.005 325.313 260.307 325.315Z" fill="#133029"/>
<path d="M264.131 338.014C265.057 338.021 265.814 337.276 265.821 336.35C265.828 335.424 265.083 334.668 264.156 334.661C263.231 334.654 262.474 335.399 262.467 336.325C262.46 337.251 263.206 338.007 264.131 338.014Z" fill="#133029"/>
<path d="M170.216 301.037C171.142 301.044 171.898 300.299 171.905 299.373C171.912 298.446 171.167 297.69 170.241 297.683C169.315 297.676 168.559 298.421 168.552 299.347C168.545 300.273 169.29 301.03 170.216 301.037Z" fill="#133029"/>
<path d="M239.021 288.945C239.946 288.952 240.703 288.207 240.71 287.28C240.717 286.355 239.971 285.598 239.046 285.591C238.12 285.584 237.363 286.329 237.356 287.255C237.349 288.181 238.094 288.938 239.021 288.945Z" fill="#133029"/>
<path d="M262.995 242.901C263.484 242.904 263.883 242.511 263.887 242.022C263.891 241.533 263.498 241.134 263.009 241.13C262.52 241.126 262.121 241.52 262.117 242.009C262.113 242.498 262.506 242.897 262.995 242.901Z" fill="#133029"/>
<path d="M54.0039 159.572C54.4928 159.576 54.8922 159.183 54.8959 158.694C54.8996 158.205 54.5063 157.806 54.0174 157.802C53.5284 157.798 53.129 158.191 53.1253 158.68C53.1218 159.169 53.5152 159.569 54.0039 159.572Z" fill="#133029"/>
<path d="M220.394 247.194C220.883 247.197 221.282 246.804 221.285 246.315C221.289 245.826 220.896 245.427 220.407 245.423C219.918 245.419 219.519 245.813 219.515 246.302C219.511 246.791 219.905 247.19 220.394 247.194Z" fill="#133029"/>
<path d="M133.757 241.148C134.246 241.152 134.645 240.759 134.649 240.27C134.653 239.781 134.259 239.381 133.77 239.378C133.282 239.374 132.882 239.768 132.879 240.257C132.875 240.745 133.268 241.145 133.757 241.148Z" fill="#133029"/>
<path d="M146.056 261.9C146.545 261.904 146.945 261.51 146.948 261.021C146.952 260.533 146.559 260.133 146.07 260.129C145.581 260.126 145.181 260.519 145.178 261.008C145.174 261.497 145.567 261.896 146.056 261.9Z" fill="#133029"/>
<path d="M176.953 236.444C177.442 236.448 177.841 236.055 177.845 235.566C177.849 235.077 177.455 234.678 176.967 234.674C176.478 234.67 176.078 235.063 176.074 235.552C176.071 236.041 176.464 236.441 176.953 236.444Z" fill="#133029"/>
<path d="M112.918 222.584C113.407 222.587 113.806 222.194 113.81 221.705C113.813 221.216 113.42 220.817 112.931 220.813C112.442 220.81 112.043 221.203 112.039 221.692C112.036 222.181 112.429 222.58 112.918 222.584Z" fill="#133029"/>
<path d="M183.556 273.254C184.045 273.258 184.444 272.864 184.448 272.376C184.452 271.887 184.058 271.487 183.57 271.484C183.081 271.48 182.681 271.873 182.678 272.362C182.674 272.851 183.067 273.25 183.556 273.254Z" fill="#133029"/>
<path d="M258.516 224.828C258.818 224.83 259.064 224.587 259.066 224.285C259.069 223.983 258.826 223.737 258.524 223.735C258.222 223.732 257.975 223.975 257.973 224.277C257.971 224.579 258.214 224.826 258.516 224.828Z" fill="#133029"/>
<path d="M221.281 229.796C221.583 229.798 221.83 229.555 221.832 229.253C221.834 228.952 221.592 228.705 221.29 228.703C220.988 228.7 220.741 228.943 220.739 229.245C220.736 229.547 220.98 229.794 221.281 229.796Z" fill="#133029"/>
<path d="M191.168 244.266C191.47 244.268 191.716 244.025 191.719 243.723C191.721 243.421 191.478 243.175 191.176 243.172C190.874 243.17 190.628 243.413 190.625 243.715C190.623 244.017 190.866 244.263 191.168 244.266Z" fill="#133029"/>
<path d="M238.653 218.428C238.955 218.431 239.202 218.188 239.204 217.886C239.206 217.584 238.963 217.337 238.661 217.335C238.359 217.333 238.113 217.576 238.111 217.878C238.108 218.18 238.351 218.426 238.653 218.428Z" fill="#133029"/>
<path d="M212.165 250.55C212.467 250.552 212.714 250.309 212.716 250.007C212.718 249.705 212.475 249.458 212.173 249.456C211.871 249.454 211.625 249.697 211.623 249.999C211.62 250.301 211.863 250.547 212.165 250.55Z" fill="#133029"/>
<path d="M153.374 258.136C153.676 258.138 153.923 257.896 153.925 257.594C153.928 257.292 153.685 257.045 153.383 257.042C153.081 257.04 152.834 257.283 152.832 257.585C152.829 257.887 153.072 258.134 153.374 258.136Z" fill="#133029"/>
<path d="M156.732 240.81C157.034 240.812 157.28 240.569 157.282 240.267C157.285 239.965 157.042 239.719 156.74 239.717C156.438 239.714 156.191 239.957 156.189 240.259C156.187 240.561 156.43 240.808 156.732 240.81Z" fill="#133029"/>
<path d="M65.2867 213.389C65.5886 213.391 65.8354 213.148 65.8375 212.846C65.8399 212.544 65.5968 212.297 65.2949 212.295C64.9929 212.293 64.7462 212.536 64.744 212.838C64.7416 213.14 64.9847 213.386 65.2867 213.389Z" fill="#133029"/>
<path d="M264.14 199.813C264.442 199.815 264.688 199.572 264.691 199.27C264.693 198.968 264.45 198.721 264.148 198.719C263.846 198.717 263.6 198.96 263.597 199.262C263.595 199.564 263.838 199.81 264.14 199.813Z" fill="#133029"/>
<path d="M169.163 269.014C169.465 269.016 169.712 268.773 169.714 268.471C169.716 268.169 169.473 267.923 169.171 267.92C168.869 267.918 168.623 268.161 168.621 268.463C168.618 268.765 168.861 269.011 169.163 269.014Z" fill="#133029"/>
<path d="M195.864 261.336C196.166 261.339 196.412 261.096 196.415 260.794C196.417 260.492 196.174 260.245 195.872 260.243C195.57 260.241 195.323 260.484 195.321 260.785C195.319 261.087 195.562 261.334 195.864 261.336Z" fill="#133029"/>
<path d="M127.552 259.683C127.854 259.685 128.1 259.442 128.102 259.14C128.105 258.838 127.862 258.592 127.56 258.59C127.258 258.587 127.011 258.83 127.009 259.132C127.007 259.434 127.25 259.681 127.552 259.683Z" fill="#133029"/>
<path d="M244.061 246.327C244.362 246.329 244.609 246.086 244.611 245.784C244.613 245.482 244.371 245.236 244.069 245.233C243.767 245.231 243.52 245.474 243.518 245.776C243.516 246.078 243.759 246.324 244.061 246.327Z" fill="#133029"/>
<path d="M190.621 229.249C190.923 229.251 191.169 229.008 191.172 228.706C191.174 228.404 190.931 228.158 190.629 228.156C190.327 228.153 190.081 228.396 190.079 228.698C190.076 229 190.319 229.247 190.621 229.249Z" fill="#133029"/>
<path d="M53.1186 133.277C53.6075 133.281 54.007 132.888 54.0105 132.399C54.0142 131.91 53.6208 131.511 53.1321 131.507C52.6432 131.503 52.2437 131.897 52.24 132.386C52.2363 132.875 52.6297 133.274 53.1186 133.277Z" fill="#133029"/>
<path d="M62.967 191.594C63.456 191.598 63.8552 191.205 63.8589 190.716C63.8626 190.227 63.4693 189.827 62.9803 189.824C62.4916 189.82 62.0922 190.213 62.0885 190.702C62.0848 191.191 62.4781 191.59 62.967 191.594Z" fill="#133029"/>
<path d="M77.1817 199.416C77.4837 199.418 77.7305 199.176 77.7329 198.874C77.735 198.572 77.492 198.325 77.19 198.323C76.888 198.32 76.6416 198.563 76.6392 198.865C76.637 199.167 76.8798 199.414 77.1817 199.416Z" fill="#133029"/>
<path d="M54.8916 144.235C55.1936 144.237 55.4403 143.994 55.4425 143.692C55.4449 143.39 55.2019 143.144 54.8999 143.141C54.5979 143.139 54.3514 143.382 54.349 143.684C54.3466 143.986 54.5897 144.233 54.8916 144.235Z" fill="#133029"/>
<path d="M98.1792 205.699C98.4811 205.701 98.7276 205.459 98.73 205.157C98.7324 204.855 98.4894 204.608 98.1874 204.605C97.8855 204.603 97.6387 204.846 97.6366 205.148C97.6342 205.45 97.8772 205.697 98.1792 205.699Z" fill="#133029"/>
<path d="M81.8775 216.486C82.1795 216.488 82.4263 216.245 82.4287 215.943C82.4308 215.641 82.1878 215.395 81.8858 215.392C81.5838 215.39 81.3374 215.633 81.335 215.935C81.3329 216.237 81.5756 216.484 81.8775 216.486Z" fill="#133029"/>
<path d="M76.6352 184.399C76.9371 184.401 77.1836 184.158 77.186 183.856C77.1881 183.554 76.9453 183.308 76.6434 183.305C76.3414 183.303 76.0947 183.546 76.0923 183.848C76.0902 184.15 76.3332 184.397 76.6352 184.399Z" fill="#133029"/>
<path d="M217.705 271.555C218.007 271.557 218.254 271.314 218.256 271.012C218.258 270.71 218.015 270.464 217.713 270.461C217.412 270.459 217.165 270.702 217.163 271.004C217.161 271.306 217.403 271.552 217.705 271.555Z" fill="#133029"/>
<path d="M109.379 244.849C110.305 244.856 111.061 244.111 111.068 243.185C111.075 242.259 110.33 241.503 109.404 241.496C108.478 241.489 107.722 242.234 107.715 243.16C107.708 244.086 108.453 244.842 109.379 244.849Z" fill="#133029"/>
<path d="M251.94 215.371C252.866 215.378 253.622 214.633 253.63 213.707C253.636 212.781 252.891 212.024 251.965 212.017C251.039 212.01 250.283 212.755 250.276 213.682C250.269 214.608 251.014 215.364 251.94 215.371Z" fill="#133029"/>
<path d="M72.2795 185.585C73.2056 185.592 73.962 184.847 73.9689 183.921C73.9761 182.995 73.2308 182.239 72.3047 182.232C71.3788 182.225 70.6225 182.97 70.6153 183.896C70.6084 184.822 71.3536 185.578 72.2795 185.585Z" fill="#133029"/>
<path d="M121.319 196.299C122.246 196.306 123.002 195.561 123.009 194.635C123.016 193.709 122.271 192.953 121.345 192.946C120.419 192.939 119.662 193.684 119.655 194.61C119.648 195.536 120.393 196.292 121.319 196.299Z" fill="#133029"/>
</svg>
