<svg width="107" height="350" viewBox="0 0 107 350" fill="none" xmlns="http://www.w3.org/2000/svg">
<path d="M75.5238 170.49C71.3421 173.182 67.357 175.947 63.5921 178.757" stroke="#FFE9C8" stroke-width="1.5" stroke-linecap="round" stroke-linejoin="round"/>
<path d="M13.8678 171.296C14.7312 180.415 17.8159 186.923 22.1951 187.443C28.5075 188.193 35.1191 176.217 36.9623 160.695C38.8058 145.173 35.1828 131.981 28.8705 131.232C23.2011 130.558 17.2905 140.15 14.8096 153.357" stroke="#FFE9C8" stroke-width="1.5" stroke-linecap="round" stroke-linejoin="round"/>
<path d="M46.8343 192.936C28.7885 210.432 20.2374 227.904 26.3307 239.111C36.1986 257.259 80.7365 252.105 125.809 227.598C170.881 203.091 199.42 168.512 189.552 150.363C184.618 141.289 171.017 138.04 153.015 140.124" stroke="#FFE9C8" stroke-width="1.5" stroke-linecap="round" stroke-linejoin="round"/>
<path d="M85.9759 264.872C59.8362 266.989 41.5393 274.223 40.5706 284.442C39.1622 299.3 74.9211 314.842 120.44 319.157C165.96 323.472 204.002 314.925 205.41 300.067C206.388 289.756 189.465 279.115 163.801 272.125" stroke="#FFE9C8" stroke-width="1.5" stroke-linecap="round" stroke-linejoin="round"/>
<path d="M4.28127 157.984C5.24608 154.595 9.12992 152.682 12.6441 152.948C16.1583 153.213 20.295 155.666 23.3058 157.497C27.2868 159.919 39.6638 166.285 44.0625 168.06C46.446 169.021 48.6589 170.354 50.8754 171.655C58.7717 176.292 66.8554 180.61 75.0998 184.595L75.2273 184.24C82.0715 180.182 77.8538 174.091 74.2567 168.519C69.0748 160.491 63.9706 151.436 59.6941 148.799C52.1502 144.148 44.2277 142.137 34.6542 137.76C29.8724 135.574 17.577 135.606 11.1444 132.53C5.64588 129.901 3.29749 121.088 8.38288 119.402C17.8025 116.279 25.2969 118.175 38.6225 119.038C39.9607 119.125 43.8417 119.621 46.9711 120.543C56.3596 123.308 71.3247 128.117 75.9063 131.317C81.8046 135.437 91.2094 147.744 101.18 160.74C94.7848 149.554 86.8383 133.323 79.9922 128.652C71.0124 122.526 63.5792 118.45 57.3033 115.679C55.1619 114.733 50.8009 113.606 46.8882 113.341C41.732 112.991 37.122 112.516 32.9721 111.079C26.0728 108.69 25.3701 101.773 27.2997 98.9901C29.8344 95.3357 37.3169 96.9159 44.9153 95.7169C51.0807 94.7439 55.1979 95.1273 59.0307 95.7404C63.6325 96.4767 68.8826 99.3845 85.0696 105.631C88.4308 106.928 94.7777 108.618 97.8957 110.423C100.768 112.087 102.758 114.897 104.655 117.621C109.263 124.237 113.842 130.872 118.426 137.505L118.403 137.357C117.525 130.866 116.547 119.618 115.531 115.586C114.065 109.771 111.115 103.801 106.925 94.6388C103.301 86.713 99.6987 75.6153 95.2373 68.1285C91.9032 62.5339 88.0683 56.2069 89.8803 49.9512C90.6155 47.4135 92.6503 44.9658 95.2914 44.8983C97.3503 44.846 99.9434 48.0692 101.258 49.6541C106.49 55.9605 109.135 55.5361 112.589 61.3619C115.524 66.3137 119.737 75.5481 122.528 80.5687C128.036 90.4779 136.756 104.742 138.424 110.08C139.478 113.453 142.494 139.503 150.717 160.413C152.094 163.916 153.67 167.364 154.516 171.032C155.606 175.766 155.515 180.68 155.492 185.538C155.253 234.858 165.245 290.547 179.879 337.645C179.879 337.645 175.15 344.172 156.502 348.265C140.263 351.829 129.071 348.797 129.071 348.797C125.355 337.117 124.212 333.652 119.23 324.999C111.416 311.427 97.1853 302.035 91.1032 287.603C88.2805 280.905 87.427 273.576 86.2365 266.406C83.9856 252.849 80.431 239.51 75.6374 226.632C73.3071 220.371 70.6277 214.123 66.3934 208.957C62.4686 204.168 57.3716 200.506 52.3372 196.901C46.7997 192.936 41.5379 189.041 36.1057 185.353C32.4435 182.866 27.9483 179.367 23.9943 177.11C19.3722 174.472 15.0468 172.28 10.7082 169.198C8.83071 167.864 6.97603 166.421 5.66655 164.526C4.3573 162.631 3.65033 160.2 4.28127 157.984Z" fill="#FFE9C8"/>
<path d="M89.4578 54.3199C69.7052 61.6288 56.5297 73.2848 59.0086 82.161C61.8294 92.2607 83.8496 94.9369 108.193 88.1382C132.535 81.3396 149.983 67.6409 147.162 57.5412C144.609 48.4005 126.33 45.3406 104.835 49.8816" stroke="#FFE9C8" stroke-width="1.5" stroke-linecap="round" stroke-linejoin="round"/>
<path d="M179.879 337.645C165.245 290.547 155.253 234.858 155.492 185.538C155.515 180.68 155.606 175.766 154.516 171.031C153.67 167.364 152.094 163.916 150.717 160.413C142.494 139.503 139.478 113.452 138.424 110.079C136.756 104.742 128.036 90.4777 122.528 80.5685C119.737 75.5481 115.524 66.3135 112.589 61.3617C109.135 55.5359 106.49 55.9603 101.258 49.6539C99.9434 48.069 97.3503 44.8458 95.2914 44.8983C92.6503 44.9655 90.6155 47.4132 89.8804 49.951C88.0683 56.2067 91.9033 62.5337 95.2374 68.1283C99.6989 75.6151 103.301 86.7128 106.925 94.6386C111.115 103.801 114.065 109.77 115.531 115.586C116.547 119.617 117.525 130.866 118.403 137.357" stroke="#121715" stroke-width="1.5" stroke-linecap="round" stroke-linejoin="round"/>
<path d="M106.913 53.1228C105.476 50.685 103.154 47.4627 102.2 46.075C100.948 44.2529 99.2129 42.3379 97.0048 42.4482C95.9473 42.5009 95.0943 42.8352 94.176 43.3626C93.6997 43.6359 93.0723 44.1497 92.9062 44.6729C92.775 45.0856 92.8915 45.5339 93.0376 45.9415C93.6177 47.562 97.6525 52.366 98.8028 53.6464C101.358 56.4905 103.236 57.3595 105.074 57.1848C105.803 57.1154 109.281 57.143 106.913 53.1228Z" fill="#FFE9C8" stroke="#121715" stroke-width="1.5" stroke-linecap="round" stroke-linejoin="round"/>
<path d="M129.071 348.797C125.355 337.117 124.213 333.653 119.23 324.999C111.416 311.427 97.1854 302.035 91.1033 287.603C88.2805 280.905 87.4271 273.576 86.2365 266.406C83.9857 252.85 80.431 239.51 75.6375 226.632C73.3072 220.371 70.6277 214.123 66.3934 208.957C62.4686 204.168 57.3716 200.506 52.3373 196.901C46.7995 192.936 41.5379 189.041 36.1057 185.353C32.4436 182.867 27.9484 179.367 23.9943 177.111C19.3723 174.472 15.0469 172.28 10.7083 169.198C8.83077 167.864 6.9761 166.421 5.66662 164.526C4.35736 162.631 3.65038 160.2 4.2811 157.984C5.24613 154.595 9.12997 152.683 12.6442 152.948C16.1584 153.214 20.2951 155.666 23.3059 157.497C27.2871 159.919 39.6641 166.285 44.0625 168.06C46.446 169.022 48.6589 170.354 50.8755 171.655C60.6426 177.391 70.696 182.638 80.9859 187.372" stroke="#121715" stroke-width="1.5" stroke-linecap="round" stroke-linejoin="round"/>
<path d="M145.836 189.486C145.283 182.851 145.366 175.912 140.881 169.629C128.608 152.432 116.731 134.957 104.655 117.621C102.758 114.898 100.768 112.087 97.8957 110.424C94.7777 108.618 88.4308 106.928 85.0696 105.631C68.8826 99.3849 63.6325 96.477 59.0307 95.7408C55.1979 95.1277 51.0807 94.7443 44.9153 95.7173C37.3171 96.9163 29.8345 95.336 27.2997 98.9905C25.3699 101.773 26.0725 108.69 32.9721 111.079C37.122 112.516 41.732 112.991 46.8884 113.341C50.8009 113.606 55.1619 114.734 57.3033 115.679C63.5792 118.45 71.0124 122.526 79.9924 128.652C86.8383 133.323 94.7846 149.554 101.18 160.74" stroke="#121715" stroke-width="1.5" stroke-linecap="round" stroke-linejoin="round"/>
<path d="M126.288 199.228C125.68 192.384 122.803 187.54 119.212 183.382C103.845 165.592 85.3663 137.925 75.9063 131.317C71.3248 128.117 56.3596 123.308 46.9712 120.543C43.8417 119.621 39.9607 119.125 38.6226 119.038C25.2969 118.175 17.8026 116.279 8.38295 119.402C3.29755 121.088 5.64595 129.901 11.1445 132.53C17.5771 135.606 29.8724 135.574 34.6543 137.76C44.228 142.137 52.1501 144.148 59.6942 148.799C63.9707 151.436 69.0748 160.491 74.2567 168.519C77.8539 174.091 82.0716 180.182 75.2274 184.24" stroke="#121715" stroke-width="1.5" stroke-linecap="round" stroke-linejoin="round"/>
<path d="M34.1536 102.517C29.8396 103.064 29.196 101.85 28.7572 100.6C28.2156 99.0573 27.7917 97.1891 28.8453 96.3854C29.2214 96.0984 29.6757 95.9367 30.1218 95.779C31.9769 95.1239 46.7155 93.5155 47.137 95.5455C47.9594 99.5064 41.752 101.553 34.1536 102.517Z" fill="#FFE9C8" stroke="#121715" stroke-width="1.5" stroke-linecap="round" stroke-linejoin="round"/>
<path d="M12.7014 124.027C8.33504 124.195 7.77174 122.905 7.41653 121.597C6.97839 119.983 6.68026 118.049 7.7922 117.329C8.18921 117.071 8.65621 116.948 9.1146 116.828C11.021 116.33 25.9469 116.363 26.2056 118.119C26.8075 122.206 20.3924 123.731 12.7014 124.027Z" fill="#FFE9C8" stroke="#121715" stroke-width="1.5" stroke-linecap="round" stroke-linejoin="round"/>
<path d="M15.1755 161.553C15.8316 160.358 16.0304 158.872 15.4161 157.781C14.9209 156.902 14.098 156.261 13.2691 155.686C11.9704 154.786 10.6017 153.986 9.17954 153.297C7.82354 152.641 6.309 152.073 4.83861 152.402C3.11921 152.785 1.86423 154.339 1.28865 156.004C0.955415 156.969 0.805284 158.136 1.43019 158.942C2.04303 159.734 9.45764 163.777 11.4618 163.869C12.5326 163.917 14.1262 163.464 15.1755 161.553Z" fill="#FFE9C8" stroke="#121715" stroke-width="1.5" stroke-linecap="round" stroke-linejoin="round"/>
<path d="M85.789 7.5896C82.5114 11.0187 82.604 15.1175 86.0331 18.3952C82.604 15.1175 78.5052 15.2101 75.2275 18.6393C78.5052 15.2101 78.4126 11.1113 74.9834 7.83366C78.4126 11.1113 82.5114 11.0187 85.789 7.5896Z" fill="#121715" stroke="#FFE9C8" stroke-width="1.5" stroke-linecap="round" stroke-linejoin="round"/>
<path d="M93.6228 12.8182C90.6635 12.8852 84.8434 13.4642 82.8495 15.7003C81.0804 17.6845 80.7426 23.4831 80.8046 26.2294C80.7407 23.3969 80.0005 17.5139 78.1422 15.6603C76.337 13.8597 70.2668 13.3461 67.3934 13.411C70.1886 13.3479 75.8808 12.8813 77.9011 10.8112C79.7554 8.91128 80.2775 2.9104 80.2118 0C80.2808 3.05214 81.12 8.91451 83.2592 10.9165C85.171 12.7057 90.9694 12.8783 93.6228 12.8182Z" fill="#121715" stroke="#FFE9C8" stroke-width="1.5" stroke-linecap="round" stroke-linejoin="round"/>
<path d="M87.3955 309.848C86.6317 317.387 79.9016 322.878 72.3634 322.115C64.8251 321.351 59.3333 314.621 60.0971 307.083C60.8607 299.544 67.591 294.053 75.129 294.816C82.6673 295.58 88.1592 302.31 87.3955 309.848Z" fill="#121715" stroke="#FFE9C8" stroke-width="1.5" stroke-linecap="round" stroke-linejoin="round"/>
<path d="M63.2754 299.615C66.5809 299.577 68.8845 300.78 69.9532 302.161C71.3199 303.928 71.6891 305.546 71.2131 310.243C70.6875 315.431 71.7757 319.566 76.5837 321.89" stroke="#FFE9C8" stroke-width="1.5" stroke-linecap="round" stroke-linejoin="round"/>
<path d="M65.6906 297.362C71.0541 296.61 75.3032 300.186 76.298 305.578C77.2275 310.615 77.9791 316.301 84.3181 317.209" stroke="#FFE9C8" stroke-width="1.5" stroke-linecap="round" stroke-linejoin="round"/>
<path d="M84.2302 299.62C84.2302 299.62 78.0959 306.966 86.5568 313.379" stroke="#FFE9C8" stroke-width="1.5" stroke-linecap="round" stroke-linejoin="round"/>
<path d="M60.6337 304.426C60.6337 304.426 68.9429 307.864 63.051 317.052" stroke="#FFE9C8" stroke-width="1.5" stroke-linecap="round" stroke-linejoin="round"/>
<path d="M4.52182 203.998C4.48068 204.405 4.11664 204.703 3.70909 204.661C3.30132 204.62 3.00449 204.256 3.04563 203.848C3.08699 203.441 3.45102 203.144 3.85858 203.185C4.26613 203.226 4.56318 203.59 4.52182 203.998Z" fill="#FFE9C8"/>
<path d="M53.6872 226.862C53.6458 227.269 53.282 227.566 52.8742 227.525C52.4667 227.484 52.1696 227.12 52.211 226.712C52.2523 226.304 52.6162 226.007 53.024 226.049C53.4315 226.09 53.7286 226.454 53.6872 226.862Z" fill="#FFE9C8"/>
<path d="M63.0995 50.1151C63.0213 50.8874 62.3318 51.4498 61.5598 51.3716C60.7875 51.2934 60.2251 50.6039 60.3033 49.8319C60.3815 49.0596 61.0708 48.4972 61.843 48.5754C62.6151 48.6536 63.1777 49.3429 63.0995 50.1151Z" fill="#FFE9C8"/>
<path d="M16.0788 267.818C16.0006 268.591 15.3112 269.153 14.539 269.075C13.767 268.997 13.2043 268.307 13.2825 267.535C13.3609 266.763 14.0502 266.201 14.8225 266.279C15.5945 266.357 16.1572 267.046 16.0788 267.818Z" fill="#FFE9C8"/>
<path d="M108.396 301.179C108.355 301.587 107.991 301.884 107.583 301.843C107.175 301.801 106.878 301.437 106.92 301.03C106.961 300.622 107.325 300.325 107.733 300.366C108.14 300.408 108.437 300.772 108.396 301.179Z" fill="#121715"/>
<path d="M98.1644 59.4943C98.123 59.902 97.7589 60.1989 97.3514 60.1577C96.9436 60.1164 96.6468 59.7523 96.6879 59.3448C96.7293 58.937 97.0933 58.6402 97.5009 58.6813C97.9087 58.7227 98.2055 59.0867 98.1644 59.4943Z" fill="#121715"/>
<path d="M74.5931 144.97C74.5518 145.378 74.1877 145.675 73.7802 145.634C73.3726 145.592 73.0755 145.228 73.1169 144.821C73.158 144.413 73.5221 144.116 73.9297 144.157C74.3374 144.199 74.6343 144.563 74.5931 144.97Z" fill="#121715"/>
<path d="M47.9484 131.273C47.9071 131.681 47.543 131.978 47.1355 131.936C46.7279 131.895 46.4309 131.531 46.4722 131.124C46.5134 130.716 46.8774 130.419 47.285 130.46C47.6927 130.501 47.9896 130.865 47.9484 131.273Z" fill="#121715"/>
<path d="M53.4035 102.727C53.3621 103.135 52.9983 103.432 52.5905 103.391C52.183 103.349 51.8859 102.986 51.9273 102.578C51.9686 102.17 52.3324 101.873 52.7402 101.914C53.1478 101.956 53.4448 102.32 53.4035 102.727Z" fill="#121715"/>
<path d="M77.3219 203.257C77.2805 203.664 76.9167 203.961 76.5089 203.92C76.1014 203.879 75.8043 203.515 75.8457 203.107C75.887 202.699 76.2509 202.402 76.6586 202.444C77.0662 202.485 77.3632 202.849 77.3219 203.257Z" fill="#121715"/>
<path d="M55.1711 181.484C55.1298 181.892 54.766 182.189 54.3582 182.148C53.9506 182.106 53.6536 181.742 53.6949 181.335C53.7361 180.927 54.1001 180.63 54.5077 180.671C54.9154 180.712 55.2125 181.077 55.1711 181.484Z" fill="#121715"/>
<path d="M16.5243 166.697C16.4829 167.105 16.1191 167.402 15.7113 167.361C15.3038 167.319 15.0067 166.955 15.0481 166.548C15.0895 166.14 15.4533 165.843 15.861 165.884C16.2686 165.926 16.5656 166.29 16.5243 166.697Z" fill="#121715"/>
<path d="M86.5587 217.61C86.5333 217.862 86.3084 218.046 86.0566 218.02C85.805 217.995 85.6215 217.77 85.6469 217.518C85.6725 217.266 85.8972 217.083 86.149 217.108C86.4008 217.134 86.5843 217.359 86.5587 217.61Z" fill="#121715"/>
<path d="M86.1004 232.587C86.0748 232.838 85.8501 233.022 85.5983 232.996C85.3465 232.971 85.1632 232.746 85.1886 232.494C85.214 232.242 85.4389 232.059 85.6907 232.084C85.9425 232.11 86.1258 232.335 86.1004 232.587Z" fill="#121715"/>
<path d="M94.2824 254.522C94.257 254.774 94.0321 254.957 93.7805 254.932C93.5287 254.906 93.3452 254.681 93.3708 254.43C93.3962 254.178 93.6211 253.995 93.8727 254.02C94.1245 254.045 94.308 254.27 94.2824 254.522Z" fill="#121715"/>
<path d="M70.3855 191.318C70.3601 191.569 70.1352 191.753 69.8834 191.727C69.6316 191.702 69.4483 191.477 69.4737 191.225C69.4993 190.974 69.724 190.79 69.9758 190.816C70.2276 190.841 70.4112 191.066 70.3855 191.318Z" fill="#121715"/>
<path d="M104.947 281.764C104.921 282.015 104.696 282.199 104.445 282.173C104.193 282.148 104.009 281.923 104.035 281.671C104.06 281.419 104.285 281.236 104.537 281.261C104.789 281.287 104.972 281.512 104.947 281.764Z" fill="#121715"/>
<path d="M52.6631 187.523C52.6375 187.774 52.4128 187.958 52.161 187.933C51.9092 187.907 51.7257 187.682 51.7513 187.43C51.7767 187.179 52.0016 186.995 52.2534 187.021C52.505 187.046 52.6886 187.271 52.6631 187.523Z" fill="#121715"/>
<path d="M33.9258 124.088C33.9004 124.34 33.6755 124.524 33.4237 124.498C33.1721 124.473 32.9886 124.248 33.014 123.996C33.0397 123.744 33.2643 123.561 33.5161 123.586C33.768 123.612 33.9515 123.837 33.9258 124.088Z" fill="#121715"/>
<path d="M69.469 114.29C69.4436 114.542 69.2187 114.726 68.9668 114.7C68.7152 114.675 68.5317 114.45 68.5571 114.198C68.5828 113.946 68.8074 113.763 69.0593 113.788C69.3111 113.814 69.4946 114.039 69.469 114.29Z" fill="#121715"/>
<path d="M94.7407 178.803C94.7151 179.055 94.4904 179.238 94.2386 179.213C93.9868 179.187 93.8035 178.963 93.8289 178.711C93.8544 178.459 94.0792 178.276 94.331 178.301C94.5829 178.327 94.7662 178.552 94.7407 178.803Z" fill="#121715"/>
<path d="M73.8525 158.135C73.8271 158.387 73.6022 158.571 73.3504 158.545C73.0986 158.519 72.9152 158.295 72.9407 158.043C72.9663 157.791 73.191 157.608 73.4428 157.633C73.6946 157.659 73.8781 157.884 73.8525 158.135Z" fill="#121715"/>
<path d="M61.0643 101.957C61.0387 102.209 60.814 102.392 60.5622 102.367C60.3104 102.341 60.1269 102.116 60.1525 101.864C60.1779 101.613 60.4028 101.429 60.6546 101.455C60.9064 101.48 61.0898 101.705 61.0643 101.957Z" fill="#121715"/>
<path d="M107.656 215.475C107.63 215.727 107.405 215.91 107.154 215.884C106.902 215.859 106.718 215.634 106.744 215.382C106.769 215.131 106.994 214.947 107.246 214.973C107.498 214.998 107.681 215.223 107.656 215.475Z" fill="#121715"/>
<path d="M86.1004 120.342C86.0748 120.594 85.8501 120.778 85.5983 120.752C85.3465 120.727 85.1632 120.502 85.1886 120.25C85.214 119.998 85.4389 119.815 85.6907 119.84C85.9425 119.866 86.1258 120.091 86.1004 120.342Z" fill="#121715"/>
<path d="M79.3872 152.42C79.309 153.192 78.6197 153.755 77.8474 153.677C77.0752 153.598 76.5128 152.909 76.591 152.137C76.6692 151.365 77.3587 150.802 78.1307 150.88C78.903 150.958 79.4654 151.648 79.3872 152.42Z" fill="#121715"/>
<path d="M78.7238 117.817C78.6456 118.589 77.9563 119.151 77.1841 119.073C76.412 118.995 75.8494 118.305 75.9276 117.533C76.006 116.761 76.6953 116.199 77.4673 116.277C78.2396 116.355 78.802 117.044 78.7238 117.817Z" fill="#121715"/>
<path d="M98.8242 240.569C98.746 241.341 98.0567 241.904 97.2844 241.826C96.5124 241.748 95.9498 241.058 96.028 240.286C96.1064 239.514 96.7957 238.951 97.5679 239.029C98.3399 239.108 98.9026 239.797 98.8242 240.569Z" fill="#121715"/>
<path d="M102.424 192.897C102.346 193.669 101.656 194.232 100.884 194.154C100.112 194.075 99.5494 193.386 99.6276 192.614C99.706 191.842 100.395 191.279 101.167 191.357C101.94 191.436 102.502 192.125 102.424 192.897Z" fill="#121715"/>
<path d="M104.483 67.2084C104.405 67.9806 103.716 68.5431 102.944 68.4649C102.172 68.3867 101.609 67.6974 101.687 66.9251C101.765 66.1529 102.455 65.5904 103.227 65.6686C103.999 65.7468 104.561 66.4364 104.483 67.2084Z" fill="#121715"/>
<path d="M25.7783 164.617C25.7001 165.39 25.0108 165.952 24.2385 165.874C23.4665 165.796 22.9039 165.106 22.982 164.334C23.0602 163.562 23.7498 162.999 24.5218 163.078C25.294 163.156 25.8565 163.845 25.7783 164.617Z" fill="#121715"/>
<path d="M31.855 229.616C23.5185 230.059 23.3123 230.395 23.1042 243.866C22.8007 230.396 22.5922 230.062 14.2526 229.679C22.5892 229.236 22.7953 228.9 23.0034 215.429C23.3071 228.898 23.5157 229.232 31.855 229.616Z" fill="#121715" stroke="#FFE9C8" stroke-width="1.5" stroke-linecap="round" stroke-linejoin="round"/>
<path d="M34.0842 148.872C34.2415 150.904 36.0166 152.424 38.0492 152.267C40.0819 152.11 41.602 150.335 41.4445 148.302C41.2873 146.269 39.5119 144.749 37.4793 144.907C35.4469 145.064 33.9267 146.839 34.0842 148.872Z" fill="#121715" stroke="#FFE9C8" stroke-width="1.5" stroke-linecap="round" stroke-linejoin="round"/>
<path d="M104.555 89.0891C105.76 88.7958 106.974 88.4791 108.193 88.1385C113.749 86.5867 118.947 84.6752 123.626 82.5291" stroke="#121715" stroke-width="1.5" stroke-linecap="round" stroke-linejoin="round"/>
<path d="M35.1922 138.004C33.6958 134.053 31.5199 131.546 28.8704 131.232C26.5114 130.952 24.1109 132.448 21.9329 135.243" stroke="#121715" stroke-width="1.5" stroke-linecap="round" stroke-linejoin="round"/>
<path d="M30.5312 181.409C33.0844 177.283 35.2094 171.338 36.4086 164.476" stroke="#121715" stroke-width="1.5" stroke-linecap="round" stroke-linejoin="round"/>
<path d="M81.72 245.632C95.484 241.921 110.616 235.859 125.809 227.598C137.023 221.501 147.213 214.78 156.043 207.844" stroke="#121715" stroke-width="1.5" stroke-linecap="round" stroke-linejoin="round"/>
</svg>
