<svg width="119" height="350" viewBox="0 0 119 350" fill="none" xmlns="http://www.w3.org/2000/svg">
<path d="M28.5495 172.012V254.409" stroke="#FFE9C8" stroke-width="1.5" stroke-linecap="round" stroke-linejoin="round"/>
<path d="M75.4314 160.655V296.161" stroke="#FFE9C8" stroke-width="1.5" stroke-linecap="round" stroke-linejoin="round"/>
<path d="M117.654 184.444V273.997" stroke="#FFE9C8" stroke-width="1.5" stroke-linecap="round" stroke-linejoin="round"/>
<path d="M92.9861 179.818C91.1529 183.158 89.1235 186.296 91.8147 189.556C94.3969 192.683 97.0551 194.093 99.7689 194.093C101.867 194.093 104.906 191.561 106.488 190.54L103.899 183.544L92.9861 179.818Z" fill="#FFE9C8"/>
<path d="M14.7545 162.604C19.6614 157.697 28.9383 148.345 34.8735 142.224C40.4687 136.453 44.1821 132.331 50.2767 129.544C56.3713 126.756 77.1755 118.627 84.8972 113.588C87.6754 110.063 90.2138 106.677 92.1347 103.825C99.0254 93.5929 102.912 89.8568 109.724 86.9825C115.78 84.428 127.342 79.0502 130.017 77.8025C140.316 70.6104 152.946 62.0174 159.949 49.1136C166.145 37.6958 167.401 19.0746 168.868 3.24239C168.868 3.24239 177.821 -0.606092 196.139 0.0824941C214.204 0.761364 219.757 5.15501 219.757 5.15501C216.709 19.0685 214.73 34.3718 213.925 44.5738C212.924 57.2506 212.175 76.5373 211.472 83.3051C210.35 94.1053 202.916 110.626 185.569 123.303C168.222 135.98 150.899 141.423 144.65 152.936C144.958 155.334 145.446 157.615 145.928 160.145C146.718 164.294 148.132 175.237 143.321 179.976C141.707 181.566 140.209 182.386 138.871 182.702C138.93 182.925 140.466 188.669 141.628 192.155C142.813 195.711 145.579 200.65 147.752 207.762C149.925 214.873 148.345 224.751 141.035 226.133C133.726 227.516 129.183 215.466 126.022 208.354C124.228 204.317 119.49 194.697 114.813 185.072C113.75 186.548 107.302 192.135 101.235 190.974C95.2881 189.836 92.0619 184.973 93.2194 179.079C94.3769 173.187 100.365 164.986 104.11 161.77C101.32 153.032 104.085 148.269 105.556 140.915C105.556 140.915 97.0143 142.645 94.6624 143.397C92.3932 145.854 90.1048 148.243 87.9584 150.39C81.0677 157.28 79.1884 159.16 77.9354 163.336C76.6827 167.512 74.5945 181.294 72.7151 186.723C70.836 192.152 70.836 195.075 70.6271 199.043C70.4182 203.01 69.3742 214.077 64.7803 219.089C60.1864 224.1 52.0429 224.1 50.7899 218.045C49.5372 211.989 50.9988 205.307 50.7899 199.461C50.5812 193.614 51.834 188.811 52.6692 181.503C53.5046 174.194 56.0103 162.083 56.4279 153.939C56.5171 152.203 56.7108 150.686 57.0126 149.317C56.922 149.343 53.4459 150.326 50.2767 153.796C47.0655 157.312 41.1639 162.66 34.526 167.342C28.5024 171.59 29.828 171.395 21.6826 177.404C12.9133 183.873 7.29773 178.522 6.45179 174.63C5.60563 170.739 9.84801 167.51 14.7545 162.604Z" fill="#FFE9C8"/>
<path d="M168.868 3.24268C167.402 19.0749 166.145 37.6963 159.949 49.1139C151.797 64.1359 136.018 73.316 125.169 81.2443C114.319 89.1727 113.485 91.0268 111.815 100.74C110.146 110.454 107.226 132.569 105.556 140.915C103.887 149.261 100.549 154.268 105.556 165.535C110.564 176.801 122.861 201.243 126.022 208.354C129.183 215.466 133.726 227.517 141.036 226.134C148.345 224.751 149.925 214.873 147.752 207.762C145.579 200.65 142.813 195.711 141.628 192.155C140.443 188.6 138.869 182.695 138.869 182.695" stroke="#133029" stroke-width="1.5" stroke-linecap="round" stroke-linejoin="round"/>
<path d="M107.689 128.031C103.202 134.102 94.8493 143.499 87.9584 150.39C81.0677 157.28 79.1884 159.16 77.9355 163.336C76.6827 167.512 74.5946 181.294 72.7154 186.723C70.8359 192.152 70.8359 195.075 70.6272 199.043C70.4183 203.01 69.3742 214.077 64.7803 219.089C60.1864 224.1 52.0429 224.1 50.79 218.045C49.5372 211.989 50.9989 205.307 50.79 199.46C50.5813 193.614 51.8341 188.811 52.6692 181.503C53.5046 174.194 56.0104 162.083 56.428 153.939C56.8456 145.796 59.5602 142.455 64.9892 136.817C70.4183 131.179 85.244 114.056 92.1347 103.825C99.0254 93.5929 102.912 89.8568 109.725 86.9827C116.601 84.0816 128.731 78.4014 128.731 78.4014" stroke="#133029" stroke-width="1.5" stroke-linecap="round" stroke-linejoin="round"/>
<path d="M84.8972 113.588C77.1753 118.627 56.3713 126.756 50.2767 129.544C44.1823 132.331 40.4688 136.453 34.8735 142.224C28.9383 148.345 19.6612 157.697 14.7547 162.604C9.84801 167.51 5.60561 170.739 6.45155 174.63C7.2975 178.522 12.9133 183.873 21.6826 177.404C29.828 171.395 28.5024 171.591 34.526 167.342C41.1639 162.66 47.0655 157.312 50.2767 153.796C53.4879 150.28 57.0147 149.317 57.0147 149.317" stroke="#133029" stroke-width="1.5" stroke-linecap="round" stroke-linejoin="round"/>
<path d="M105.556 140.915C105.556 140.915 97.0136 142.645 94.6622 143.397" stroke="#133029" stroke-width="1.5" stroke-linecap="round" stroke-linejoin="round"/>
<path d="M114.813 185.073C113.75 186.548 107.302 192.135 101.235 190.974C95.2881 189.836 92.0616 184.973 93.2193 179.08C94.3771 173.186 100.367 164.983 104.112 161.769" stroke="#133029" stroke-width="1.5" stroke-linecap="round" stroke-linejoin="round"/>
<path d="M50.7906 201.951C52.6204 201.467 54.9126 204.419 55.6546 210.628C56.3542 216.482 56.174 219.41 55.6546 220.969C55.1371 222.523 54.4277 223.248 51.9739 223.16C49.5201 223.072 49.6077 222.109 49.5201 220.005C49.4324 217.902 49.307 202.343 50.7906 201.951Z" fill="#FFE9C8" stroke="#133029" stroke-width="1.5" stroke-linecap="round" stroke-linejoin="round"/>
<path d="M16.5209 160.834C16.1344 160.233 13.9081 160.935 11.245 163.24C8.58192 165.545 3.81906 170.41 3.15328 171.178C2.48751 171.946 2.74353 173.432 4.43352 174.354C6.12373 175.275 7.6126 173.676 9.6076 171.803C11.2154 170.294 13.8044 167.116 14.948 165.629C16.427 163.706 16.9829 161.552 16.5209 160.834Z" fill="#FFE9C8" stroke="#133029" stroke-width="1.5" stroke-linecap="round" stroke-linejoin="round"/>
<path d="M140.92 189.913C140.92 189.913 130.579 195.604 117.654 191.131" stroke="#133029" stroke-width="1.5" stroke-linecap="round" stroke-linejoin="round"/>
<path d="M72.7153 186.723C72.7153 186.723 61.5851 175.826 55.4271 163.264" stroke="#133029" stroke-width="1.5" stroke-linecap="round" stroke-linejoin="round"/>
<path d="M76.5889 169.313C72.4037 172.623 67.1749 174.969 53.3662 176.45" stroke="#133029" stroke-width="1.5" stroke-linecap="round" stroke-linejoin="round"/>
<path d="M71.178 192.569C71.178 192.569 67.8264 184.431 51.9922 186.58" stroke="#133029" stroke-width="1.5" stroke-linecap="round" stroke-linejoin="round"/>
<path d="M25.9681 151.311C30.0633 157.116 30.1157 167.056 29.2174 171.441" stroke="#133029" stroke-width="1.5" stroke-linecap="round" stroke-linejoin="round"/>
<path d="M20.9797 156.351C24.1039 158.036 28.202 165.161 28.5495 172.012" stroke="#133029" stroke-width="1.5" stroke-linecap="round" stroke-linejoin="round"/>
<path d="M112.042 277.817C115.526 281.3 115.526 285.558 112.042 289.042C115.526 285.558 119.783 285.558 123.267 289.042C119.783 285.558 119.783 281.3 123.267 277.817C119.783 281.3 115.526 281.3 112.042 277.817Z" fill="#133029" stroke="#FFE9C8" stroke-width="1.5" stroke-linecap="round" stroke-linejoin="round"/>
<path d="M104.031 283.429C107.105 283.429 113.161 283.894 115.284 286.169C117.168 288.187 117.654 294.2 117.654 297.053C117.654 294.111 118.285 287.985 120.171 286.017C122.003 284.105 128.293 283.429 131.278 283.429C128.375 283.429 122.454 283.078 120.307 280.976C118.338 279.047 117.654 272.829 117.654 269.806C117.654 272.976 116.921 279.083 114.747 281.212C112.804 283.114 106.787 283.429 104.031 283.429Z" fill="#133029" stroke="#FFE9C8" stroke-width="1.5" stroke-linecap="round" stroke-linejoin="round"/>
<path d="M22.2588 209.383C22.2588 209.383 24.6408 208.382 26.2573 205.988C27.7502 203.777 28.5495 200.065 28.5495 200.065C28.5495 200.065 29.2254 203.594 30.8419 205.988C32.3348 208.199 34.8407 209.383 34.8407 209.383C34.8407 209.383 32.4583 210.384 30.8419 212.779C29.3487 214.99 28.5495 218.701 28.5495 218.701C28.5495 218.701 27.8736 215.172 26.2571 212.778C24.7644 210.567 22.2588 209.383 22.2588 209.383Z" fill="#133029" stroke="#FFE9C8" stroke-width="1.5" stroke-linecap="round" stroke-linejoin="round"/>
<path d="M71.1763 252.669C71.1763 255.019 73.0813 256.924 75.4314 256.924C77.7817 256.924 79.6867 255.019 79.6867 252.669C79.6867 250.319 77.7817 248.414 75.4314 248.414C73.0813 248.414 71.1763 250.319 71.1763 252.669Z" fill="#133029" stroke="#FFE9C8" stroke-width="1.5" stroke-linecap="round" stroke-linejoin="round"/>
<path d="M75.4314 277.907C76.1852 277.907 76.7964 277.296 76.7964 276.542C76.7964 275.789 76.1852 275.177 75.4314 275.177C74.6776 275.177 74.0665 275.789 74.0665 276.542C74.0665 277.296 74.6776 277.907 75.4314 277.907Z" fill="#FFE9C8" stroke="#FFE9C8" stroke-width="1.5" stroke-linecap="round" stroke-linejoin="round"/>
<path d="M75.6363 230.16C76.3901 230.16 77.0012 229.549 77.0012 228.795C77.0012 228.041 76.3901 227.43 75.6363 227.43C74.8825 227.43 74.2714 228.041 74.2714 228.795C74.2714 229.549 74.8825 230.16 75.6363 230.16Z" fill="#FFE9C8" stroke="#FFE9C8" stroke-width="1.5" stroke-linecap="round" stroke-linejoin="round"/>
<path d="M117.654 260.141C118.408 260.141 119.019 259.53 119.019 258.777C119.019 258.023 118.408 257.412 117.654 257.412C116.901 257.412 116.289 258.023 116.289 258.777C116.289 259.53 116.901 260.141 117.654 260.141Z" fill="#FFE9C8" stroke="#FFE9C8" stroke-width="1.5" stroke-linecap="round" stroke-linejoin="round"/>
<path d="M28.5495 189.57C29.3033 189.57 29.9145 188.959 29.9145 188.205C29.9145 187.451 29.3033 186.84 28.5495 186.84C27.7957 186.84 27.1846 187.451 27.1846 188.205C27.1846 188.959 27.7957 189.57 28.5495 189.57Z" fill="#FFE9C8" stroke="#FFE9C8" stroke-width="1.5" stroke-linecap="round" stroke-linejoin="round"/>
<path d="M111.364 224.463C111.364 224.463 113.746 223.462 115.362 221.068C116.855 218.856 117.654 215.145 117.654 215.145C117.654 215.145 118.33 218.673 119.947 221.068C121.44 223.279 123.946 224.463 123.946 224.463C123.946 224.463 121.563 225.464 119.947 227.858C118.454 230.069 117.654 233.78 117.654 233.78C117.654 233.78 116.979 230.252 115.362 227.858C113.869 225.646 111.364 224.463 111.364 224.463Z" fill="#133029" stroke="#FFE9C8" stroke-width="1.5" stroke-linecap="round" stroke-linejoin="round"/>
<path d="M83.2904 350C90.3357 346.956 95.2675 339.948 95.2675 331.785C95.2675 320.83 86.3867 311.949 75.4314 311.949C64.4761 311.949 55.5955 320.83 55.5955 331.785C55.5955 339.948 60.5273 346.956 67.5724 350C56.2194 346.618 47.9388 336.105 47.9388 323.653C47.9388 308.47 60.2476 296.161 75.4314 296.161C90.6151 296.161 102.924 308.47 102.924 323.653C102.924 336.105 94.6436 346.618 83.2904 350Z" fill="#133029" stroke="#FFE9C8" stroke-width="1.5" stroke-linecap="round" stroke-linejoin="round"/>
<path d="M58.3057 321.776C63.6403 322.11 69.4099 322.292 75.4314 322.292C81.453 322.292 87.2227 322.11 92.5572 321.776" stroke="#FFE9C8" stroke-width="1.5" stroke-linecap="round" stroke-linejoin="round"/>
<path d="M102.924 320.878C116.086 319.381 124.745 316.841 124.745 313.959C124.745 309.357 102.666 305.626 75.4314 305.626C48.1963 305.626 26.1183 309.357 26.1183 313.959C26.1183 316.835 34.7425 319.371 47.8601 320.868" stroke="#FFE9C8" stroke-width="1.5" stroke-linecap="round" stroke-linejoin="round"/>
<path d="M28.5495 234.572L26.5986 250.241L15.8107 238.711L23.442 252.534L7.93732 249.548L22.2363 256.245L7.93732 262.942L23.442 259.956L15.8107 273.779L26.5986 262.249L28.5495 277.918L30.5006 262.249L41.2886 273.779L33.6571 259.956L49.1617 262.942L34.8629 256.245L49.1617 249.548L33.6571 252.534L41.2886 238.711L30.5006 250.241L28.5495 234.572Z" fill="#133029" stroke="#FFE9C8" stroke-width="1.5" stroke-linecap="round" stroke-linejoin="round"/>
<path d="M109.992 153.23C110.253 152.896 110.736 152.838 111.069 153.099C111.403 153.361 111.461 153.844 111.2 154.177C110.938 154.511 110.456 154.569 110.122 154.308C109.788 154.046 109.73 153.563 109.992 153.23Z" fill="#133029"/>
<path d="M97.8964 178.056C98.1579 177.723 98.6406 177.664 98.9743 177.926C99.3078 178.187 99.3662 178.67 99.1045 179.004C98.8428 179.337 98.3605 179.396 98.0268 179.134C97.693 178.872 97.6347 178.39 97.8964 178.056Z" fill="#133029"/>
<path d="M80.7916 128.806C81.0533 128.473 81.536 128.414 81.8695 128.676C82.2033 128.937 82.2615 129.42 82.0001 129.754C81.7383 130.087 81.2557 130.146 80.9221 129.884C80.5884 129.622 80.5299 129.14 80.7916 128.806Z" fill="#133029"/>
<path d="M62.7339 197.851C62.9956 197.517 63.4781 197.459 63.8118 197.721C64.1455 197.982 64.2038 198.465 63.9423 198.799C63.6806 199.132 63.198 199.191 62.8642 198.929C62.5307 198.667 62.4722 198.185 62.7339 197.851Z" fill="#133029"/>
<path d="M16.0753 173.752C16.3368 173.418 16.8194 173.36 17.1531 173.621C17.4868 173.883 17.5451 174.365 17.2834 174.699C17.0219 175.033 16.5393 175.091 16.2056 174.829C15.8721 174.568 15.8136 174.085 16.0753 173.752Z" fill="#133029"/>
<path d="M35.6634 156.329C36.0865 156.359 36.4046 156.727 36.3742 157.15C36.3438 157.573 35.9763 157.891 35.5534 157.86C35.1305 157.83 34.8122 157.463 34.8426 157.04C34.8731 156.617 35.2405 156.299 35.6634 156.329Z" fill="#133029"/>
<path d="M99.5051 103.575C99.7666 103.241 100.249 103.183 100.583 103.445C100.917 103.706 100.975 104.189 100.713 104.523C100.452 104.856 99.9691 104.915 99.6354 104.653C99.3017 104.391 99.2434 103.909 99.5051 103.575Z" fill="#133029"/>
<path d="M117.471 93.4827C117.733 93.1492 118.215 93.0907 118.549 93.3524C118.883 93.6141 118.941 94.0965 118.68 94.4302C118.418 94.764 117.935 94.8223 117.602 94.5608C117.268 94.2991 117.21 93.8164 117.471 93.4827Z" fill="#133029"/>
<path d="M69.7089 155.046C69.9704 154.712 70.453 154.654 70.7868 154.915C71.1203 155.177 71.1788 155.66 70.9171 155.993C70.6554 156.327 70.173 156.385 69.8393 156.124C69.5055 155.862 69.4472 155.379 69.7089 155.046Z" fill="#133029"/>
<path d="M115.685 132.912C115.947 132.578 116.43 132.52 116.763 132.781C117.097 133.043 117.155 133.525 116.894 133.859C116.632 134.193 116.149 134.251 115.816 133.99C115.482 133.728 115.424 133.245 115.685 132.912Z" fill="#133029"/>
<path d="M86.6404 136.453C86.802 136.247 87.1 136.211 87.3061 136.372C87.5123 136.534 87.5484 136.832 87.3868 137.038C87.225 137.244 86.927 137.28 86.7211 137.119C86.5149 136.957 86.4788 136.659 86.6404 136.453Z" fill="#133029"/>
<path d="M118.676 104.231C118.837 104.024 119.135 103.988 119.341 104.15C119.547 104.312 119.584 104.61 119.422 104.816C119.26 105.022 118.962 105.058 118.756 104.896C118.55 104.735 118.514 104.437 118.676 104.231Z" fill="#133029"/>
<path d="M108.98 160.337C109.142 160.131 109.44 160.095 109.646 160.257C109.852 160.418 109.888 160.716 109.727 160.922C109.565 161.128 109.267 161.165 109.061 161.003C108.855 160.841 108.819 160.543 108.98 160.337Z" fill="#133029"/>
<path d="M59.1653 205.475C59.3269 205.269 59.6249 205.233 59.8311 205.395C60.037 205.556 60.0732 205.854 59.9116 206.06C59.75 206.266 59.4519 206.302 59.2458 206.141C59.0396 205.979 59.0037 205.681 59.1653 205.475Z" fill="#133029"/>
<path d="M20.6064 166.859C20.768 166.653 21.0663 166.617 21.2722 166.778C21.4783 166.94 21.5145 167.238 21.3529 167.444C21.1913 167.65 20.8931 167.686 20.6872 167.525C20.481 167.363 20.4449 167.065 20.6064 166.859Z" fill="#133029"/>
<path d="M64.6046 130.419C64.7661 130.213 65.0642 130.177 65.2703 130.339C65.4762 130.5 65.5124 130.799 65.3508 131.005C65.1892 131.211 64.8912 131.247 64.685 131.085C64.4789 130.924 64.4428 130.626 64.6046 130.419Z" fill="#133029"/>
<path d="M51.7107 133.387C51.972 133.406 52.1686 133.633 52.1498 133.894C52.131 134.155 51.9039 134.352 51.6429 134.333C51.3816 134.314 51.1849 134.087 51.2037 133.826C51.2225 133.565 51.4496 133.368 51.7107 133.387Z" fill="#133029"/>
<path d="M62.5827 151.481C62.7443 151.275 63.0426 151.239 63.2485 151.401C63.4547 151.562 63.4907 151.86 63.3292 152.066C63.1676 152.273 62.8694 152.309 62.6634 152.147C62.4573 151.985 62.4211 151.687 62.5827 151.481Z" fill="#133029"/>
<path d="M100.504 122.172C100.665 121.967 100.963 121.93 101.169 122.092C101.376 122.254 101.412 122.552 101.25 122.758C101.089 122.964 100.79 123 100.584 122.838C100.378 122.677 100.342 122.379 100.504 122.172Z" fill="#133029"/>
<path d="M103.526 174.701C103.688 174.495 103.986 174.459 104.192 174.62C104.398 174.782 104.434 175.08 104.273 175.286C104.111 175.492 103.813 175.528 103.607 175.367C103.401 175.205 103.364 174.907 103.526 174.701Z" fill="#133029"/>
<path d="M98.1273 107.567C98.2889 107.361 98.5869 107.325 98.7931 107.487C98.9992 107.648 99.0354 107.946 98.8738 108.153C98.712 108.359 98.4139 108.395 98.2079 108.233C98.0018 108.071 97.9658 107.773 98.1273 107.567Z" fill="#133029"/>
<path d="M119.359 169.992C119.854 169.36 120.768 169.249 121.4 169.744C122.032 170.24 122.143 171.154 121.647 171.786C121.152 172.418 120.238 172.529 119.606 172.033C118.974 171.538 118.863 170.624 119.359 169.992Z" fill="#133029"/>
<path d="M85.8691 121.094C86.3647 120.462 87.2789 120.351 87.9109 120.847C88.5428 121.342 88.6535 122.256 88.158 122.888C87.6623 123.52 86.7483 123.631 86.1163 123.135C85.4841 122.64 85.3736 121.726 85.8691 121.094Z" fill="#133029"/>
<path d="M45.7246 138.464C46.5256 138.522 47.1284 139.218 47.0707 140.019C47.0133 140.82 46.3171 141.423 45.516 141.366C44.715 141.308 44.1122 140.612 44.1698 139.811C44.2275 139.01 44.9234 138.407 45.7246 138.464Z" fill="#133029"/>
<path d="M8.68019 204.487C8.68019 204.897 8.34748 205.229 7.93729 205.229C7.52709 205.229 7.19464 204.897 7.19464 204.487C7.19464 204.077 7.52709 203.744 7.93729 203.744C8.34748 203.744 8.68019 204.077 8.68019 204.487Z" fill="#FFE9C8"/>
<path d="M55.5513 283.429C55.5513 283.839 55.2189 284.172 54.8087 284.172C54.3985 284.172 54.0658 283.839 54.0658 283.429C54.0658 283.019 54.3985 282.686 54.8087 282.686C55.2189 282.686 55.5513 283.019 55.5513 283.429Z" fill="#FFE9C8"/>
<path d="M2.81368 220.745C2.81368 221.522 2.18378 222.151 1.40691 222.151C0.629817 222.151 0 221.522 0 220.745C0 219.968 0.629817 219.338 1.40691 219.338C2.18378 219.338 2.81368 219.968 2.81368 220.745Z" fill="#FFE9C8"/>
<path d="M97.3212 213.21C94.4169 213.21 94.2556 213.459 94.2556 216.276C94.2556 213.422 94.0942 213.21 91.1899 213.21C94.0942 213.21 94.1386 213.018 94.2556 210.145C94.3074 213.009 94.4169 213.21 97.3212 213.21Z" fill="#FFE9C8" stroke="#FFE9C8" stroke-width="1.5" stroke-linecap="round" stroke-linejoin="round"/>
<path d="M39.4419 289.854C36.5375 289.854 36.3764 290.102 36.3764 292.919C36.3764 290.065 36.215 289.854 33.3107 289.854C36.215 289.854 36.2592 289.662 36.3764 286.788C36.4281 289.652 36.5375 289.854 39.4419 289.854Z" fill="#FFE9C8" stroke="#FFE9C8" stroke-width="1.5" stroke-linecap="round" stroke-linejoin="round"/>
</svg>
