<svg width="267" height="350" viewBox="0 0 267 350" fill="none" xmlns="http://www.w3.org/2000/svg">
<path d="M94.4695 84.6607C93.1893 86.3987 89.8853 91.1717 86.7265 95.8679C83.5679 100.564 80.6212 105.217 79.8549 106.612C75.0651 115.326 74.3848 130.036 73.3987 135.687C73.113 137.325 72.5795 140.983 72.0353 144.981L71.6238 144.522C62.464 137.274 57.5926 128.714 49.9113 119.914C47.4828 117.132 43.9038 113.825 40.317 112.948C36.73 112.071 31.6091 113.41 31.3439 117.094C31.237 118.581 31.7045 120.084 32.4372 121.384C37.3094 130.023 40.9303 136.849 46.6707 142.842C51.2326 147.605 54.4073 153.736 59.2649 160.997C63.3099 167.043 66.0278 170.075 71.9786 174.681L72.0628 174.682C72.0138 175.763 72.0454 176.721 72.181 177.504C72.6781 180.375 73.9413 183.047 75.1518 185.698C82.3778 201.517 88.1841 217.984 92.4782 234.837L92.6294 234.869C91.1132 240.984 89.635 247.028 91.4424 253.004C93.5823 260.078 100.209 264.688 106.438 268.667C133.202 285.761 161.306 302.104 181.57 326.556C187.288 333.455 192.353 340.971 199.005 346.975C210.105 356.994 229.112 365.811 244.106 376.611C244.106 376.611 256.72 374.301 271.094 357.548C284.066 342.429 283.846 328.615 283.846 328.615C261.907 310.853 241.053 287.602 229.215 263.509C224.267 253.439 224.404 240.056 221.606 232.463C216.038 217.353 208.707 210.046 196.941 195.664C186.09 182.401 177.376 172.287 167.054 155.344C160.141 143.998 151.26 130.551 139.985 123.523C138.416 122.545 136.721 121.63 134.875 121.526C134.699 121.516 134.521 121.514 134.343 121.519L134.387 121.476C133.292 119.706 130.783 118.657 128.809 119.316C127.466 119.765 125.749 121.204 124.843 122.292C124.067 123.225 122.396 125.443 122.229 126.645C122.062 127.848 123.272 130.733 124.4 131.181C124.267 135.946 126.228 140.556 129.89 145.094L130.184 145.352C128.661 146.977 127.246 148.42 126.069 149.158C114.786 156.241 113.018 161.902 104.896 175.961C102.015 173.534 99.0472 171.718 99.1493 168.653C99.2224 166.464 100.065 136.592 100.294 133.928C100.59 130.476 105.38 126.479 110.565 117.897C115.026 110.513 118.352 102.994 113.232 97.5092C110.494 94.5766 107.017 93.4895 103.883 96.7555L103.892 96.7209C104.393 94.1468 104.579 92.7997 104.303 90.192C104.026 87.584 102.337 85.2827 100.282 83.6535C97.8618 81.7348 96.1666 82.3563 94.4695 84.6607ZM140.693 158.439C152.387 169.168 156.779 178.745 159.659 187.535C160.248 189.331 161.399 193.7 162.294 197.493C159.089 197.379 139.459 193.333 123.854 186.551C126.205 180.168 128.308 173.572 132.251 168.135C134.762 164.672 137.987 161.733 140.693 158.439Z" fill="#FFE9C8"/>
<path d="M253.208 -37.3111C268.99 -19.8977 284.884 -3.58838 289.863 17.9524C289.835 18.3932 289.804 18.8358 289.773 19.2815C289.236 26.8975 288.376 35.2987 288.854 46.2181C289.601 63.2752 293.732 74.9727 295.95 83.5324C299.362 96.7053 299.579 103.623 299.224 113.945C298.549 133.552 292.752 151.882 291.332 171.45C291.082 174.9 291.364 180.36 292.387 183.666C293.41 186.971 296.396 189.043 299.727 189.983C301.568 190.502 302.586 190.761 304.444 190.306C309.05 189.179 315.475 183.285 317.983 176.996C320.49 170.707 321.525 163.417 321.411 156.647C321.297 149.878 321.252 140.199 321.947 132.267C322.591 124.919 324.74 116.621 332.035 106.246C332.624 105.407 333.258 104.648 333.932 103.963C334.526 105.628 334.643 106.805 336.064 110.246L335.938 110.214C335.3 121.867 333.82 133.959 332.714 145.591C332.285 150.101 331.853 154.629 330.804 159.037C330.02 162.33 329.162 165.603 328.27 168.868C326.228 176.344 325.304 181.851 330.381 188.086L330.96 187.891C329.379 191.277 327.771 194.637 326.163 197.971C324.354 201.724 322.509 205.534 321.826 209.644C321.142 213.753 321.776 218.281 324.474 221.455L324.939 221.559C323.844 223.941 322.942 226.39 323.473 228.892C324.209 232.362 328.434 235.665 331.872 234.795C333.855 234.294 335.328 232.674 336.653 231.116C352.144 212.889 364.446 192.216 376.67 171.654C379.168 167.453 381.222 164.178 383.249 159.471C383.827 162.269 384.12 164.087 384.718 167.257C388.038 184.866 390.539 202.63 392.21 220.471C393.041 229.351 394.139 239.224 400.908 245.032C402.869 246.715 405.829 247.925 407.961 246.463C409.815 245.193 410.155 242.603 410.129 240.356C409.952 224.974 412.209 216.006 411.474 203.353C410.433 185.424 412.729 174.069 409.534 157.653C407.009 144.683 405.375 124.762 404.628 111.172C404.195 103.289 404.3 96.1686 402.524 91.8717C400.489 86.9491 381.989 57.8113 376.7 48.3535C361.536 21.2409 350.953 -3.44954 335.961 -25.4663C330.216 -33.904 309.872 -54.0795 302.327 -61.7174C302.327 -61.7174 289.702 -65.6439 271.326 -54.9118C255.26 -45.5287 253.208 -37.3111 253.208 -37.3111Z" fill="#FFE9C8"/>
<path d="M297.068 90.5908C288.229 77.9865 274.848 62.7897 259.112 55.003C217.313 34.3182 170.206 52.327 152.487 98.3578C138.312 135.183 156.673 176.526 193.498 190.701C222.958 202.041 256.033 187.352 267.373 157.893C276.445 134.325 264.694 107.865 241.126 98.793C222.272 91.5354 201.104 100.936 193.846 119.79C188.04 134.874 195.561 151.808 210.644 157.614C222.711 162.259 236.258 156.243 240.903 144.176C244.619 134.522 239.806 123.685 230.152 119.969C222.43 116.996 214.381 123.281 212.693 129.271C211.033 135.162 215.06 141.664 220.349 141.906" stroke="#FFE9C8" stroke-width="1.5" stroke-linecap="round" stroke-linejoin="round"/>
<path d="M246.508 378.254C231.514 367.454 210.105 356.995 199.005 346.975C192.353 340.972 187.288 333.456 181.571 326.556C161.306 302.105 133.202 285.761 106.438 268.668C100.209 264.689 93.5824 260.079 91.4425 253.005C88.8307 244.37 93.0795 235.591 94.3906 226.665C96.0443 215.408 93.8056 202.649 96.6207 191.625C97.927 186.509 100.277 183.766 102.98 179.23C112.809 162.733 113.95 156.767 126.07 149.159C129.92 146.742 136.32 136.786 140.743 137.572C147.693 138.808 146.755 148.357 143.863 153.801C140.971 159.244 135.87 163.146 132.251 168.136C125.98 176.784 124.363 188.365 118.998 197.357C117.968 199.084 121.015 210.762 119.214 226.93C119.035 228.541 128.906 243.909 127.226 258.594" stroke="#121715" stroke-width="1.5" stroke-linecap="round" stroke-linejoin="round"/>
<path d="M186.843 287.501C179.16 268.947 166.278 253.191 150.959 237.448" stroke="#121715" stroke-width="1.5" stroke-linecap="round" stroke-linejoin="round"/>
<path d="M206.011 245.22C185.717 241.763 166.142 234.138 148.856 222.958" stroke="#121715" stroke-width="1.5" stroke-linecap="round" stroke-linejoin="round"/>
<path d="M286.079 330.236C264.139 312.474 241.053 287.602 229.215 263.51C224.267 253.439 224.404 240.057 221.606 232.463C216.038 217.354 208.707 210.047 196.941 195.664C186.09 182.401 177.376 172.288 167.054 155.345C160.141 143.998 151.26 130.552 139.985 123.523C138.416 122.545 136.721 121.631 134.876 121.527C130.117 121.257 124.533 126.417 124.4 131.182C124.267 135.946 126.228 140.557 129.89 145.095" stroke="#121715" stroke-width="1.5" stroke-linecap="round" stroke-linejoin="round"/>
<path d="M85.8264 96.9858C84.6506 95.8444 85.1062 93.6607 86.1852 91.4319C88.1836 87.304 89.9696 83.7739 91.2611 81.4713C92.9586 78.445 96.1009 80.4755 97.0617 82.4496L85.8264 96.9858Z" fill="#FFE9C8"/>
<path d="M127.529 147.306C129.869 143.125 132.832 139.272 136.165 135.621C136.834 134.888 139.423 131.678 141.455 135.069C142.587 136.957 140.285 139.127 139.225 140.328C136.201 143.753 134.65 145.378 131.578 147.272C128.212 149.347 126.38 149.358 127.529 147.306Z" fill="#FFE9C8" stroke="#121715" stroke-width="1.5" stroke-linecap="round" stroke-linejoin="round"/>
<path d="M31.5852 116.016C29.9539 115.156 28.0439 115.098 27.3077 116.58C26.6469 117.91 31.0617 125.143 34.0621 128.841C34.9442 129.928 37.4426 131.803 38.7412 132.325L31.5852 116.016Z" fill="#FFE9C8"/>
<path d="M162.294 197.494C159.089 197.38 139.459 193.334 123.854 186.552" stroke="#121715" stroke-width="1.5" stroke-linecap="round" stroke-linejoin="round"/>
<path d="M140.693 158.439C152.387 169.169 156.779 178.746 159.66 187.535C160.626 190.485 163.107 200.368 163.485 203.254" stroke="#121715" stroke-width="1.5" stroke-linecap="round" stroke-linejoin="round"/>
<path d="M92.4785 234.838C88.1842 217.985 82.3778 201.517 75.1518 185.698C73.9413 183.047 72.6782 180.376 72.1811 177.505C71.1145 171.344 76.4453 154.5 77.3913 150.145C78.3441 145.76 81.3183 130.945 82.5131 127.669C83.6532 124.543 85.5769 121.774 87.4798 119.044C92.4488 111.916 97.7965 105.212 102.788 98.0992C106.185 93.2579 110.17 94.2302 113.232 97.5097C118.352 102.994 115.026 110.513 110.565 117.897C105.38 126.479 100.59 130.476 100.294 133.928C100.065 136.592 99.2224 166.464 99.1496 168.653C99.0475 171.718 102.015 173.534 104.896 175.962" stroke="#121715" stroke-width="1.5" stroke-linecap="round" stroke-linejoin="round"/>
<path d="M71.6238 144.522C62.464 137.274 57.5929 128.714 49.9114 119.914C47.4831 117.132 43.9039 113.825 40.3169 112.948C36.7301 112.071 31.6092 113.411 31.344 117.094C31.2371 118.582 31.7045 120.084 32.4373 121.384C37.3094 130.023 40.9305 136.849 46.6707 142.842C51.2329 147.606 54.4074 153.736 59.265 160.997C63.31 167.043 66.0278 170.076 71.9789 174.681" stroke="#121715" stroke-width="1.5" stroke-linecap="round" stroke-linejoin="round"/>
<path d="M72.901 168.344C70.8504 165.693 70.0542 162.447 70.3899 158.509C70.798 153.727 72.7461 139.43 73.3987 135.688C74.3848 130.037 75.0654 115.326 79.8549 106.612C80.6212 105.218 83.5679 100.564 86.7265 95.8682C89.8854 91.1722 93.1893 86.399 94.4695 84.661C96.1666 82.3566 98.3327 81.5143 100.753 83.4333C102.808 85.0625 103.722 87.1234 104.303 90.1923C104.79 92.769 104.393 94.1471 103.892 96.7212" stroke="#121715" stroke-width="1.5" stroke-linecap="round" stroke-linejoin="round"/>
<path d="M106.786 94.9267C105.517 92.8224 103.98 92.1831 102.636 92.665C101.292 93.147 100.25 94.5192 99.514 95.7426C97.7927 98.6045 96.4861 101.31 95.2688 103.888C94.2659 106.011 92.9828 108.878 93.957 110.131C93.957 110.131 99.2705 103.04 101.435 100.006C103.6 96.9713 105.4 94.7727 106.786 94.9267Z" fill="#FFE9C8" stroke="#121715" stroke-width="1.5" stroke-linecap="round" stroke-linejoin="round"/>
<path d="M370.186 106.187C357.414 98.2454 340.327 94.4504 332.035 106.245C324.74 116.621 322.591 124.919 321.947 132.266C321.251 140.199 321.297 149.877 321.411 156.647C321.525 163.416 320.491 170.706 317.983 176.995C315.475 183.284 309.05 189.179 304.444 190.306C302.586 190.76 301.568 190.501 299.727 189.982C296.396 189.043 293.41 186.971 292.387 183.665C291.364 180.36 291.082 174.9 291.332 171.449C292.752 151.882 298.549 133.552 299.224 113.945C299.579 103.623 299.362 96.705 295.95 83.5321C293.732 74.9723 289.601 63.2748 288.854 46.2177C288.376 35.2984 289.236 26.8969 289.773 19.2811C290.319 11.5456 290.532 4.62072 288.672 -3.30918" stroke="#121715" stroke-width="1.5" stroke-linecap="round" stroke-linejoin="round"/>
<path d="M250.504 -39.3108C266.286 -21.8974 284.884 -3.58857 289.863 17.9522" stroke="#121715" stroke-width="1.5" stroke-linecap="round" stroke-linejoin="round"/>
<path d="M221.893 202.212L238.155 189.112L217.68 185.005L238.537 183.965L224.386 168.608L241.871 180.026L239.449 159.284L246.884 178.799L257.116 160.595L251.66 180.753L270.638 172.039L254.376 185.14L274.851 189.247L253.994 190.287L268.145 205.644L250.66 194.226L253.082 214.968L245.648 195.453L235.416 213.657L240.872 193.499L221.893 202.212Z" fill="#121715" stroke="#FFE9C8" stroke-width="1.5" stroke-linecap="round" stroke-linejoin="round"/>
<path d="M158.01 95.8384C157.411 96.2813 156.558 96.0794 156.12 95.4765C153.785 92.2605 152.255 86.8247 151.597 83.696C152.225 86.6854 153.189 92.697 152.347 96.3513C152.171 97.115 151.413 97.5694 150.648 97.3993C149.287 97.097 147.897 96.4972 146.511 95.5919C147.834 96.456 148.904 97.4348 149.716 98.4999C150.15 99.0701 150.008 99.9277 149.424 100.343C146.171 102.655 140.841 104.368 137.666 105.035C140.733 104.391 146.453 103.757 150.244 104.487C150.984 104.629 151.52 105.34 151.35 106.074C151.041 107.406 150.448 108.766 149.562 110.122C150.478 108.719 151.524 107.6 152.663 106.773C153.261 106.339 154.104 106.538 154.542 107.133C156.867 110.29 158.361 115.897 159.006 118.966C158.367 115.926 157.714 110.125 158.427 106.381C158.568 105.642 159.277 105.107 160.01 105.274C161.354 105.581 162.725 106.177 164.093 107.07C162.724 106.177 161.626 105.16 160.805 104.053C160.357 103.45 160.561 102.586 161.179 102.159C164.331 99.9785 169.894 98.266 172.937 97.627C169.913 98.2619 164.06 99.0502 160.322 98.2783C159.594 98.1282 159.068 97.4292 159.227 96.7031C159.528 95.3342 160.13 93.9352 161.041 92.5402C160.143 93.9145 159.122 95.0162 158.01 95.8384Z" fill="#121715" stroke="#FFE9C8" stroke-width="1.5" stroke-linecap="round" stroke-linejoin="round"/>
<path d="M141.908 61.4311C142.454 61.1886 143.094 61.4346 143.336 61.9808C143.579 62.527 143.333 63.1666 142.787 63.4091C142.24 63.6518 141.601 63.4056 141.358 62.8594C141.116 62.3132 141.362 61.6736 141.908 61.4311Z" fill="#FFE9C8"/>
<path d="M176.338 136.291C176.884 136.048 177.524 136.294 177.766 136.84C178.009 137.387 177.763 138.026 177.217 138.269C176.671 138.512 176.031 138.265 175.788 137.719C175.546 137.173 175.792 136.533 176.338 136.291Z" fill="#FFE9C8"/>
<path d="M251.192 232.396C252.226 231.937 253.438 232.403 253.897 233.437C254.356 234.472 253.89 235.683 252.856 236.143C251.821 236.602 250.61 236.136 250.15 235.101C249.691 234.067 250.157 232.856 251.192 232.396Z" fill="#FFE9C8"/>
<path d="M204.5 21.8866C205.535 21.427 206.746 21.8933 207.206 22.928C207.665 23.9627 207.199 25.174 206.164 25.6335C205.129 26.093 203.918 25.6267 203.459 24.5921C202.999 23.5574 203.465 22.3461 204.5 21.8866Z" fill="#FFE9C8"/>
<path d="M166.728 29.9356C167.622 34.072 168.026 34.2254 172.038 33.3582C167.973 34.2368 167.722 34.5316 168.616 38.668C167.722 34.5316 167.434 34.5279 163.306 35.2454C167.369 34.2901 167.622 34.072 166.728 29.9356Z" stroke="#FFE9C8" stroke-width="1.5" stroke-linecap="round" stroke-linejoin="round"/>
<path d="M219.507 137.437C220.643 141.514 221.055 141.643 225.009 140.541C221.002 141.657 220.769 141.967 221.904 146.043C220.769 141.967 220.482 141.98 216.402 142.939C220.403 141.746 220.643 141.514 219.507 137.437Z" stroke="#FFE9C8" stroke-width="1.5" stroke-linecap="round" stroke-linejoin="round"/>
<path d="M260.191 47.4611C261.821 57.0054 255.405 66.0639 245.861 67.6944C236.317 69.3246 227.258 62.9088 225.628 53.3646C223.998 43.8203 230.413 34.7615 239.958 33.1313C249.502 31.5011 258.56 37.9168 260.191 47.4611Z" fill="#121715" stroke="#FFE9C8" stroke-width="1.5" stroke-linecap="round" stroke-linejoin="round"/>
<path d="M257.897 41.3133C264.317 41.6666 268.67 43.1894 269.093 45.6639C269.819 49.9166 258.665 55.3697 244.179 57.8438C229.692 60.3181 217.36 58.8767 216.634 54.624C216.211 52.1495 219.812 49.2685 225.751 46.8043" stroke="#FFE9C8" stroke-width="1.5" stroke-linecap="round" stroke-linejoin="round"/>
<path d="M203.938 97.6539C213.114 94.8921 213.252 94.4615 209.82 79.3822C213.823 94.3203 214.146 94.6362 223.55 92.7953C214.374 95.5574 214.236 95.9878 217.669 111.067C213.666 96.1292 213.342 95.813 203.938 97.6539Z" fill="#121715" stroke="#FFE9C8" stroke-width="1.5" stroke-linecap="round" stroke-linejoin="round"/>
<path d="M147.935 129.796C150.075 155.978 166.635 179.944 192.57 190.336" stroke="#121715" stroke-width="1.5" stroke-linecap="round" stroke-linejoin="round"/>
<path d="M240.951 314.827C241.355 315.095 241.899 314.985 242.166 314.581C242.434 314.178 242.324 313.634 241.92 313.366C241.517 313.099 240.973 313.209 240.705 313.612C240.437 314.016 240.548 314.56 240.951 314.827Z" fill="#121715"/>
<path d="M197.248 285.534C197.652 285.802 198.196 285.691 198.463 285.288C198.731 284.885 198.621 284.34 198.217 284.073C197.814 283.805 197.27 283.916 197.002 284.319C196.735 284.722 196.845 285.267 197.248 285.534Z" fill="#121715"/>
<path d="M263.257 349.449C263.66 349.716 264.204 349.606 264.472 349.203C264.74 348.799 264.629 348.255 264.226 347.987C263.822 347.72 263.278 347.83 263.011 348.233C262.743 348.637 262.853 349.181 263.257 349.449Z" fill="#121715"/>
<path d="M250.727 344.498C251.13 344.765 251.674 344.655 251.942 344.252C252.209 343.849 252.099 343.304 251.696 343.037C251.292 342.769 250.748 342.879 250.48 343.283C250.213 343.686 250.323 344.231 250.727 344.498Z" fill="#121715"/>
<path d="M205.112 340.79C205.516 341.057 206.06 340.947 206.327 340.544C206.595 340.14 206.485 339.596 206.081 339.329C205.678 339.061 205.134 339.171 204.866 339.575C204.598 339.978 204.708 340.522 205.112 340.79Z" fill="#121715"/>
<path d="M222.741 290.734C223.144 291.001 223.688 290.891 223.956 290.488C224.223 290.084 224.113 289.54 223.71 289.272C223.306 289.005 222.762 289.115 222.495 289.518C222.227 289.922 222.337 290.466 222.741 290.734Z" fill="#121715"/>
<path d="M168.303 244.684C168.706 244.952 169.25 244.842 169.518 244.438C169.785 244.035 169.675 243.491 169.272 243.223C168.868 242.956 168.324 243.066 168.057 243.469C167.789 243.873 167.899 244.417 168.303 244.684Z" fill="#121715"/>
<path d="M166.229 203.295C166.633 203.562 167.177 203.452 167.445 203.049C167.712 202.645 167.602 202.101 167.198 201.833C166.795 201.566 166.251 201.676 165.983 202.08C165.716 202.483 165.826 203.027 166.229 203.295Z" fill="#121715"/>
<path d="M88.5748 207.645C88.9782 207.913 89.5223 207.802 89.7898 207.399C90.0575 206.995 89.9473 206.451 89.5438 206.184C89.1404 205.916 88.5962 206.026 88.3287 206.43C88.061 206.833 88.1713 207.377 88.5748 207.645Z" fill="#121715"/>
<path d="M163.909 158.917C164.313 159.185 164.857 159.075 165.124 158.671C165.392 158.268 165.282 157.724 164.878 157.456C164.475 157.188 163.931 157.299 163.663 157.702C163.396 158.106 163.506 158.65 163.909 158.917Z" fill="#121715"/>
<path d="M108.227 105.482C108.63 105.749 109.174 105.639 109.442 105.236C109.709 104.832 109.599 104.288 109.196 104.02C108.792 103.753 108.248 103.863 107.981 104.266C107.713 104.67 107.823 105.214 108.227 105.482Z" fill="#121715"/>
<path d="M44.1636 133.565C44.567 133.833 45.1111 133.722 45.3789 133.319C45.6464 132.916 45.5363 132.371 45.1326 132.104C44.7292 131.836 44.1851 131.947 43.9176 132.35C43.6501 132.753 43.7601 133.298 44.1636 133.565Z" fill="#121715"/>
<path d="M88.0169 103.11C88.4203 103.378 88.9645 103.268 89.2319 102.864C89.4997 102.46 89.3893 101.916 88.9859 101.649C88.5825 101.381 88.0383 101.491 87.7708 101.895C87.5031 102.298 87.6134 102.842 88.0169 103.11Z" fill="#121715"/>
<path d="M114.679 178.862C115.082 179.13 115.626 179.02 115.894 178.616C116.161 178.212 116.051 177.668 115.648 177.401C115.244 177.133 114.7 177.243 114.433 177.647C114.165 178.05 114.275 178.594 114.679 178.862Z" fill="#121715"/>
<path d="M81.8394 161.834C82.2428 162.101 82.787 161.991 83.0544 161.587C83.3222 161.184 83.2119 160.64 82.8084 160.372C82.405 160.105 81.8609 160.215 81.5934 160.618C81.3257 161.022 81.4359 161.566 81.8394 161.834Z" fill="#121715"/>
<path d="M102.09 220.803C102.494 221.07 103.038 220.96 103.305 220.556C103.573 220.153 103.463 219.609 103.059 219.341C102.656 219.074 102.112 219.184 101.844 219.587C101.577 219.991 101.687 220.535 102.09 220.803Z" fill="#121715"/>
<path d="M102.82 255.628C103.223 255.896 103.768 255.786 104.035 255.382C104.303 254.978 104.192 254.435 103.789 254.167C103.386 253.899 102.841 254.009 102.574 254.413C102.306 254.817 102.416 255.36 102.82 255.628Z" fill="#121715"/>
<path d="M109.401 199.355C109.805 199.623 110.348 199.513 110.616 199.109C110.884 198.706 110.774 198.161 110.37 197.894C109.966 197.626 109.423 197.737 109.155 198.14C108.887 198.543 108.997 199.088 109.401 199.355Z" fill="#121715"/>
<path d="M149.216 160.04C149.619 160.308 150.163 160.198 150.431 159.794C150.699 159.391 150.588 158.847 150.185 158.579C149.781 158.311 149.237 158.422 148.97 158.825C148.702 159.229 148.812 159.773 149.216 160.04Z" fill="#121715"/>
<path d="M92.6215 127.036C93.025 127.304 93.569 127.193 93.8368 126.79C94.1043 126.386 93.9942 125.842 93.5906 125.575C93.1871 125.307 92.643 125.417 92.3755 125.821C92.108 126.224 92.2181 126.768 92.6215 127.036Z" fill="#121715"/>
<path d="M63.8136 152.716C64.217 152.984 64.7611 152.874 65.0287 152.47C65.2961 152.067 65.1861 151.523 64.7826 151.255C64.3792 150.988 63.835 151.098 63.5675 151.501C63.2998 151.905 63.4101 152.449 63.8136 152.716Z" fill="#121715"/>
<path d="M127.289 207.257C127.693 207.525 128.237 207.414 128.504 207.011C128.772 206.607 128.662 206.063 128.258 205.796C127.855 205.528 127.311 205.638 127.043 206.042C126.776 206.445 126.886 206.989 127.289 207.257Z" fill="#121715"/>
<path d="M193.819 217.666C194.223 217.934 194.767 217.824 195.035 217.42C195.302 217.017 195.192 216.473 194.788 216.205C194.385 215.937 193.841 216.047 193.573 216.451C193.306 216.855 193.416 217.399 193.819 217.666Z" fill="#121715"/>
<path d="M142.304 272.485C142.707 272.753 143.251 272.643 143.519 272.239C143.786 271.836 143.676 271.292 143.273 271.024C142.869 270.757 142.325 270.867 142.057 271.27C141.79 271.673 141.9 272.218 142.304 272.485Z" fill="#121715"/>
<path d="M212.883 231.19C213.342 231.037 213.589 230.54 213.435 230.081C213.282 229.621 212.785 229.374 212.326 229.528C211.866 229.682 211.619 230.179 211.773 230.638C211.927 231.097 212.424 231.344 212.883 231.19Z" fill="#121715"/>
<path d="M132.227 132.251C132.685 132.098 132.933 131.6 132.779 131.142C132.625 130.682 132.128 130.435 131.669 130.589C131.21 130.743 130.963 131.239 131.117 131.699C131.271 132.157 131.767 132.405 132.227 132.251Z" fill="#121715"/>
<path d="M125.485 224.885C125.889 225.152 126.433 225.042 126.7 224.638C126.968 224.235 126.858 223.691 126.454 223.423C126.051 223.156 125.507 223.266 125.239 223.669C124.972 224.073 125.082 224.617 125.485 224.885Z" fill="#121715"/>
<path d="M172.792 304.599C173.195 304.867 173.739 304.757 174.007 304.353C174.274 303.95 174.164 303.406 173.761 303.138C173.357 302.871 172.813 302.981 172.546 303.384C172.278 303.788 172.388 304.332 172.792 304.599Z" fill="#121715"/>
<path d="M152.593 287.216C152.996 287.484 153.54 287.373 153.808 286.97C154.076 286.566 153.966 286.022 153.562 285.755C153.158 285.487 152.614 285.597 152.347 286.001C152.079 286.404 152.189 286.948 152.593 287.216Z" fill="#121715"/>
<path d="M143.337 225.334C143.74 225.602 144.284 225.492 144.552 225.088C144.819 224.685 144.709 224.141 144.306 223.873C143.902 223.606 143.358 223.716 143.091 224.119C142.823 224.523 142.933 225.067 143.337 225.334Z" fill="#121715"/>
<path d="M228.254 310.514C228.503 310.68 228.839 310.611 229.004 310.362C229.169 310.113 229.101 309.777 228.852 309.612C228.603 309.447 228.267 309.515 228.102 309.764C227.936 310.013 228.004 310.349 228.254 310.514Z" fill="#121715"/>
<path d="M223.816 344.66C224.065 344.825 224.401 344.757 224.567 344.508C224.732 344.259 224.664 343.923 224.415 343.757C224.165 343.592 223.829 343.66 223.664 343.909C223.499 344.159 223.567 344.494 223.816 344.66Z" fill="#121715"/>
<path d="M200.019 236.859C200.268 237.024 200.604 236.956 200.769 236.707C200.934 236.458 200.866 236.122 200.617 235.957C200.368 235.791 200.032 235.859 199.867 236.109C199.702 236.358 199.769 236.694 200.019 236.859Z" fill="#121715"/>
<path d="M214.049 247.658C214.299 247.823 214.635 247.755 214.8 247.506C214.965 247.257 214.897 246.921 214.648 246.756C214.399 246.59 214.063 246.658 213.897 246.908C213.732 247.157 213.8 247.493 214.049 247.658Z" fill="#121715"/>
<path d="M227.969 271.567C228.218 271.733 228.554 271.665 228.719 271.415C228.885 271.166 228.816 270.83 228.567 270.665C228.318 270.5 227.982 270.568 227.817 270.817C227.651 271.066 227.719 271.402 227.969 271.567Z" fill="#121715"/>
<path d="M215.242 294.459C215.492 294.625 215.827 294.556 215.993 294.307C216.158 294.058 216.09 293.722 215.841 293.557C215.592 293.391 215.255 293.459 215.09 293.709C214.925 293.958 214.993 294.294 215.242 294.459Z" fill="#121715"/>
<path d="M188.607 283.866C188.857 284.031 189.193 283.963 189.358 283.714C189.523 283.464 189.455 283.128 189.206 282.963C188.957 282.798 188.621 282.866 188.455 283.115C188.29 283.364 188.358 283.7 188.607 283.866Z" fill="#121715"/>
<path d="M238.047 323.821C238.296 323.987 238.632 323.918 238.797 323.669C238.963 323.42 238.895 323.084 238.645 322.919C238.396 322.753 238.06 322.821 237.895 323.071C237.729 323.32 237.798 323.656 238.047 323.821Z" fill="#121715"/>
<path d="M158.525 150.838C158.774 151.004 159.11 150.936 159.275 150.686C159.441 150.437 159.373 150.101 159.124 149.936C158.874 149.771 158.538 149.838 158.373 150.088C158.207 150.337 158.276 150.673 158.525 150.838Z" fill="#121715"/>
<path d="M135.74 258.345C135.99 258.51 136.326 258.442 136.491 258.193C136.656 257.944 136.588 257.608 136.339 257.442C136.09 257.277 135.754 257.345 135.589 257.594C135.423 257.844 135.491 258.18 135.74 258.345Z" fill="#121715"/>
<path d="M147.9 245.792C148.15 245.957 148.486 245.889 148.651 245.64C148.816 245.391 148.748 245.055 148.499 244.89C148.25 244.724 147.914 244.792 147.748 245.041C147.583 245.291 147.651 245.627 147.9 245.792Z" fill="#121715"/>
<path d="M244.877 301.719C245.127 301.884 245.463 301.816 245.628 301.567C245.793 301.317 245.725 300.981 245.476 300.816C245.227 300.651 244.891 300.719 244.725 300.968C244.56 301.217 244.628 301.553 244.877 301.719Z" fill="#121715"/>
<path d="M139.385 276.66C139.634 276.825 139.97 276.757 140.135 276.508C140.301 276.259 140.233 275.923 139.983 275.758C139.734 275.592 139.398 275.66 139.233 275.91C139.068 276.159 139.136 276.495 139.385 276.66Z" fill="#121715"/>
<path d="M169.25 283.991C169.499 284.156 169.835 284.088 170.001 283.839C170.166 283.59 170.098 283.254 169.849 283.088C169.599 282.923 169.263 282.991 169.098 283.24C168.933 283.49 169.001 283.826 169.25 283.991Z" fill="#121715"/>
<path d="M85.2826 111.975C85.5318 112.14 85.8679 112.072 86.0333 111.823C86.1985 111.574 86.1305 111.238 85.8813 111.072C85.6319 110.907 85.296 110.975 85.1306 111.224C84.9653 111.474 85.0334 111.809 85.2826 111.975Z" fill="#121715"/>
<path d="M88.0897 160.413C88.3389 160.578 88.675 160.51 88.8401 160.261C89.0056 160.011 88.9376 159.675 88.6881 159.51C88.439 159.345 88.1029 159.413 87.9377 159.662C87.7724 159.911 87.8405 160.247 88.0897 160.413Z" fill="#121715"/>
<path d="M88.2879 196.839C88.5371 197.004 88.8732 196.936 89.0383 196.687C89.2038 196.438 89.1355 196.101 88.8864 195.936C88.6372 195.771 88.3011 195.839 88.136 196.088C87.9705 196.337 88.0385 196.674 88.2879 196.839Z" fill="#121715"/>
<path d="M42.6086 123.672C42.8578 123.837 43.1939 123.769 43.3593 123.52C43.5244 123.27 43.4565 122.934 43.2073 122.769C42.9582 122.604 42.622 122.672 42.4566 122.921C42.2914 123.17 42.3594 123.506 42.6086 123.672Z" fill="#121715"/>
<path d="M169.116 188.484C169.366 188.65 169.702 188.582 169.867 188.332C170.032 188.083 169.964 187.747 169.715 187.582C169.466 187.416 169.13 187.485 168.964 187.734C168.799 187.983 168.867 188.319 169.116 188.484Z" fill="#121715"/>
<path d="M136.131 129.881C136.38 130.046 136.716 129.978 136.882 129.729C137.047 129.479 136.979 129.144 136.73 128.978C136.48 128.813 136.144 128.881 135.979 129.13C135.814 129.379 135.882 129.715 136.131 129.881Z" fill="#121715"/>
<path d="M103.559 107.95C103.808 108.115 104.144 108.047 104.309 107.798C104.474 107.548 104.406 107.212 104.157 107.047C103.908 106.882 103.572 106.95 103.407 107.199C103.241 107.448 103.309 107.784 103.559 107.95Z" fill="#121715"/>
<path d="M112.078 247.813C112.327 247.978 112.663 247.91 112.829 247.661C112.994 247.412 112.926 247.075 112.677 246.91C112.427 246.745 112.091 246.813 111.926 247.062C111.761 247.311 111.829 247.647 112.078 247.813Z" fill="#121715"/>
<path d="M144.856 206.583C145.105 206.748 145.441 206.68 145.606 206.431C145.772 206.182 145.704 205.845 145.454 205.68C145.205 205.515 144.869 205.583 144.704 205.832C144.539 206.082 144.607 206.417 144.856 206.583Z" fill="#121715"/>
<path d="M87.1915 180.701C87.4407 180.867 87.7768 180.798 87.9419 180.549C88.1074 180.3 88.0394 179.964 87.79 179.799C87.5408 179.634 87.2047 179.702 87.0396 179.951C86.8742 180.2 86.9424 180.536 87.1915 180.701Z" fill="#121715"/>
<path d="M88.611 142.684C88.8602 142.849 89.1963 142.781 89.3615 142.532C89.5269 142.283 89.4589 141.947 89.2094 141.782C88.9603 141.617 88.6242 141.685 88.459 141.934C88.2937 142.183 88.3618 142.519 88.611 142.684Z" fill="#121715"/>
<path d="M63.4559 149.054C63.7051 149.22 64.0412 149.152 64.2066 148.902C64.3718 148.653 64.3038 148.317 64.0546 148.152C63.8052 147.986 63.4694 148.055 63.304 148.304C63.1388 148.553 63.2068 148.889 63.4559 149.054Z" fill="#121715"/>
<path d="M158.423 215.269C158.672 215.434 159.009 215.366 159.174 215.117C159.339 214.868 159.271 214.532 159.022 214.366C158.773 214.201 158.436 214.269 158.271 214.518C158.106 214.768 158.174 215.104 158.423 215.269Z" fill="#121715"/>
<path d="M182.134 205.332C182.383 205.497 182.719 205.429 182.884 205.18C183.049 204.931 182.981 204.595 182.732 204.429C182.483 204.264 182.147 204.332 181.982 204.581C181.816 204.831 181.884 205.167 182.134 205.332Z" fill="#121715"/>
<path d="M190.463 200.447C190.712 200.612 191.048 200.544 191.214 200.295C191.379 200.046 191.311 199.71 191.062 199.545C190.812 199.379 190.476 199.447 190.311 199.697C190.146 199.946 190.214 200.282 190.463 200.447Z" fill="#121715"/>
<path d="M207.745 337.871C207.994 338.037 208.33 337.969 208.496 337.72C208.661 337.47 208.593 337.134 208.344 336.969C208.094 336.804 207.758 336.872 207.593 337.121C207.428 337.37 207.496 337.706 207.745 337.871Z" fill="#121715"/>
<path d="M204.631 320.524C204.88 320.69 205.216 320.622 205.382 320.372C205.547 320.123 205.479 319.787 205.23 319.622C204.98 319.456 204.644 319.525 204.479 319.774C204.314 320.023 204.382 320.359 204.631 320.524Z" fill="#121715"/>
<path d="M255.165 330.737C255.415 330.902 255.751 330.834 255.916 330.585C256.081 330.336 256.013 330 255.764 329.834C255.515 329.669 255.179 329.737 255.013 329.986C254.848 330.236 254.916 330.572 255.165 330.737Z" fill="#121715"/>
<path d="M182.265 254.541C182.514 254.707 182.85 254.638 183.015 254.389C183.18 254.14 183.112 253.804 182.863 253.639C182.614 253.473 182.278 253.541 182.113 253.791C181.947 254.04 182.015 254.376 182.265 254.541Z" fill="#121715"/>
<path d="M123.474 161.271C123.723 161.436 124.059 161.368 124.224 161.119C124.389 160.87 124.321 160.534 124.072 160.368C123.823 160.203 123.487 160.271 123.322 160.52C123.157 160.77 123.224 161.106 123.474 161.271Z" fill="#121715"/>
<path d="M181.836 304.285C182.085 304.451 182.422 304.383 182.587 304.133C182.752 303.884 182.684 303.548 182.435 303.383C182.186 303.218 181.85 303.285 181.684 303.535C181.519 303.784 181.587 304.12 181.836 304.285Z" fill="#121715"/>
<path d="M211.191 262.264C211.955 262.771 212.986 262.562 213.493 261.798C213.999 261.034 213.791 260.003 213.027 259.496C212.262 258.989 211.232 259.198 210.725 259.962C210.218 260.727 210.427 261.757 211.191 262.264Z" fill="#121715"/>
<path d="M221.291 322.291C222.055 322.798 223.085 322.589 223.592 321.825C224.099 321.061 223.89 320.03 223.126 319.523C222.362 319.017 221.331 319.225 220.824 319.99C220.318 320.754 220.526 321.784 221.291 322.291Z" fill="#121715"/>
<path d="M186.111 319.417C186.875 319.924 187.906 319.716 188.413 318.951C188.92 318.187 188.711 317.157 187.947 316.65C187.182 316.143 186.152 316.351 185.645 317.116C185.138 317.88 185.347 318.91 186.111 319.417Z" fill="#121715"/>
<path d="M132.111 202.691C132.875 203.198 133.906 202.989 134.413 202.225C134.92 201.461 134.711 200.43 133.947 199.923C133.182 199.416 132.152 199.625 131.645 200.389C131.138 201.154 131.347 202.184 132.111 202.691Z" fill="#121715"/>
<path d="M106.659 228.628C107.424 229.135 108.454 228.926 108.961 228.162C109.468 227.397 109.259 226.367 108.495 225.86C107.731 225.353 106.7 225.562 106.193 226.326C105.686 227.091 105.895 228.121 106.659 228.628Z" fill="#121715"/>
<path d="M163.463 270.19C164.227 270.697 165.258 270.488 165.765 269.724C166.271 268.959 166.063 267.929 165.298 267.422C164.534 266.915 163.504 267.124 162.997 267.888C162.49 268.652 162.698 269.683 163.463 270.19Z" fill="#121715"/>
<path d="M83.6946 184.73C84.4589 185.236 85.4894 185.028 85.9962 184.264C86.5032 183.499 86.2943 182.469 85.5302 181.962C84.7658 181.455 83.7354 181.664 83.2284 182.428C82.7216 183.192 82.9302 184.223 83.6946 184.73Z" fill="#121715"/>
<path d="M128.688 275.203C129.452 275.71 130.483 275.502 130.99 274.737C131.497 273.973 131.288 272.942 130.524 272.436C129.759 271.929 128.729 272.137 128.222 272.902C127.715 273.666 127.924 274.696 128.688 275.203Z" fill="#121715"/>
<path d="M184.663 232.662C185.533 232.37 186.001 231.429 185.71 230.56C185.419 229.69 184.477 229.221 183.608 229.513C182.738 229.804 182.269 230.746 182.561 231.615C182.852 232.485 183.793 232.953 184.663 232.662Z" fill="#121715"/>
</svg>
