<svg width="295" height="350" viewBox="0 0 295 350" fill="none" xmlns="http://www.w3.org/2000/svg">
<path d="M148 110.037C170.955 106.003 190.167 104.42 223.833 87.2205C250.392 73.6524 269.568 56.896 281.908 44.3087" stroke="#FFE9C8" stroke-width="1.5" stroke-linecap="round" stroke-linejoin="round"/>
<path d="M100.888 111.688C109.388 113.245 116.257 114.329 125.934 113.3" stroke="#FFE9C8" stroke-width="1.5" stroke-linecap="round" stroke-linejoin="round"/>
<path d="M118.539 120.414C122.213 121.251 130.379 124.541 137.079 126.504C156.197 132.104 202.066 153.248 245.084 130.147C285.392 108.501 297.388 52.6292 303.222 38.7361C303.826 37.2961 305.291 33.7675 306.095 32.5494" stroke="#FFE9C8" stroke-width="1.5" stroke-linecap="round" stroke-linejoin="round"/>
<path d="M295.402 29.5192C299.4 25.1283 305.649 15.6544 306.36 12.1403" stroke="#FFE9C8" stroke-width="1.5" stroke-linecap="round" stroke-linejoin="round"/>
<path d="M492.65 175.784C479.549 164.039 476.007 173.105 463.482 155.06C450.958 137.015 437.615 96.2714 433.063 81.6976C428.51 67.1239 421.853 45.098 420.748 39.6551C419.643 34.2123 414.899 26.701 412.429 22.4224C409.959 18.1438 406.824 12.0076 404.753 9.12796C402.683 6.24827 397.867 1.08283 395.509 -2.64925C393.151 -6.38123 389.669 -11.7059 388.175 -12.8812C386.682 -14.0564 381.497 -13.508 379.465 -7.85246C377.433 -2.19674 384.003 8.47637 387.82 15.4408C391.637 22.4055 394.79 27.5127 397.208 34.8775C399.626 42.2424 403.31 53.5629 404.974 65.8334L404.981 65.8483C404.461 65.1903 403.991 64.5692 403.588 63.9973C399.375 58.0247 387.654 35.6049 383.935 29.9584C380.217 24.3119 378.735 23.3335 372.737 18.2387C366.739 13.1439 355.772 5.26444 350.515 0.658801C345.258 -3.94684 343.107 -4.23257 335.492 -7.62948C327.876 -11.0263 321.236 -12.9992 318.482 -8.5058C315.728 -4.01224 320.826 1.90737 324.994 5.15527C329.161 8.40325 340.526 16.9704 342.091 18.3587C343.657 19.747 352.266 28.8353 356.699 34.0691C361.133 39.303 363.042 42.7926 367.67 51.8026C366.989 51.0626 366.319 50.3256 365.662 49.5925C359.079 42.2527 350.594 34.3287 346.959 31.9914C343.741 29.9216 337.269 26.0347 331.242 22.5082C325.975 19.4262 321.091 16.3716 317.6 15.0644C314.109 13.7573 309.872 12.8378 304.234 11.2731C298.679 9.73169 293.849 9.16222 291.104 12.7013C288.36 16.2402 291.109 21.0048 294.42 24.3701C297.731 27.7356 308.508 32.9656 314.509 36.2132C321.676 40.0917 327.404 44.5275 331.201 48.3946C334.363 51.6157 348.072 67.5195 355.71 76.2351C357.241 77.9827 359.473 80.398 360.377 81.4118C362.015 83.2488 362.027 85.7425 361.061 86.8406C358.447 84.9464 355.506 82.5274 352.968 79.7266C348.475 74.7696 337.814 65.5735 331.157 59.3631C324.499 53.1525 321 49.028 313.746 43.7201C306.492 38.4121 298.484 32.6212 296.377 30.567C293.511 27.7729 287.672 22.7455 282.498 19.5886C277.324 16.4314 271.802 9.28574 265.986 17.112C260.171 24.9382 276.566 40.3939 280.499 44.0201C283.901 47.1565 285.731 48.1149 292.177 54.4926C298.652 60.8983 310.024 74.6976 318.11 84.8318C326.195 94.9662 338.53 111.802 347.069 129.494C349.651 134.844 351.565 139.125 353.035 142.699L352.583 142.556C350.395 142.415 344.181 141.186 339.948 139.319C335.559 137.384 326.403 131.591 325.294 130.517C322.445 127.757 318.892 121.592 312.605 116.42C305.749 110.778 298.344 111.85 296.401 115.78C294.457 119.711 302.043 129.608 303.976 134.577C305.909 139.546 309.373 145.813 312.274 148.036C315.981 150.875 321.364 153.628 331.879 160.314C341.901 166.685 363.554 184.541 377.637 195.388C391.719 206.235 411.593 207.11 424.315 214.454C437.358 221.983 469.403 237.89 489.459 249.287C489.459 249.287 504.067 246.325 518.913 228.847C534.422 210.59 531.25 198.653 531.25 198.653C531.25 198.653 505.75 187.529 492.65 175.784Z" fill="#FFE9C8"/>
<path d="M214.43 154.361C208.625 156.85 203.318 163.136 203.436 175.039C203.494 180.913 204.95 188.878 205.616 192.495C208.224 206.666 203.88 219.609 203.88 219.609C203.47 218.825 203.069 218.055 202.681 217.307C197.546 207.397 190.543 194.784 184.366 185.911C178.189 177.038 169.565 162.832 167.234 158.063C164.903 153.295 159.746 139.617 156.776 133.742C153.805 127.867 150.713 119.954 148.947 115.07C147.182 110.186 147.26 107.4 142.767 95.2356C138.274 83.0716 131.631 81.4251 127.379 82.8256C123.128 84.2261 125.565 97.5771 125.549 104.122C125.533 110.667 127.263 117.68 129.004 122.157C130.745 126.633 133.029 136.067 134.692 143.329C136.355 150.591 137.439 155.026 140.02 159.861C142.601 164.696 143.952 168.132 148.937 178.958C150.663 182.705 152.308 186.094 153.834 189.21L153.283 188.832C152.009 194.831 149.18 193.54 146.353 190.201C143.097 186.355 129.833 166.754 127.554 162.806C125.275 158.858 124.231 157.355 123.587 152.288C122.942 147.221 118.455 125.774 118.278 123.947C118.1 122.12 118.565 120.798 119.222 115.857C119.878 110.917 119.879 98.4589 115.17 94.861C110.461 91.2634 106.524 95.9928 104.775 100.863C103.025 105.733 100.126 110.741 98.7965 116.947C98.2746 119.384 98.1491 121.943 98.2214 124.432C97.8025 129.173 96.1299 133.646 96.1516 138.496C96.1732 143.345 97.2042 161.503 97.421 171.101C97.6379 180.699 98.875 184.847 101.771 189.426C104.668 194.004 111.509 205.974 114.233 212.114C117.151 218.691 119.886 225.35 116.996 224.344C112.734 222.862 100.211 205.606 98.0857 203.129C95.9609 200.652 85.4423 184.036 83.5105 180.29C81.5789 176.543 75.7646 166.473 72.3973 164.249C69.0302 162.026 64.8637 163.129 63.2746 166.275C61.9826 168.833 65.7884 175.805 67.9113 180.499C69.6775 184.404 71.1431 189.745 73.0477 193.044C74.9525 196.344 79.3171 204.705 82.7056 211.777C86.0947 218.85 88.7673 221.474 92.215 225.04C95.6627 228.605 109.234 245.195 111.62 250.068C114.007 254.941 118.753 263.487 120.517 265.941C122.282 268.395 123.06 269.163 128.271 281.515C133.482 293.866 139.69 307.945 147.075 326.722C154.459 345.498 155.46 346.82 152.948 357.102C150.437 367.384 154.062 373.7 155.326 379.882C156.592 386.063 156.714 403.309 155.666 418.122C155.666 418.122 168.56 426.097 190.802 421.546C214.313 416.735 220.973 407.388 220.973 407.388C220.814 381.88 219.398 363.521 224.474 343.107C227.48 331.016 233.37 319.957 237.01 299.797C240.651 279.637 233.354 249.355 231.469 240.025C229.584 230.695 227.444 215.133 228.301 203.775C229.159 192.416 228.407 189.919 226.544 183.407C224.681 176.895 223.909 174.064 222.857 166.567C221.805 159.07 220.235 151.871 214.43 154.361Z" fill="#FFE9C8"/>
<path d="M155.666 418.122C156.714 403.309 156.592 386.063 155.327 379.882C154.061 373.7 150.437 367.384 152.948 357.102C155.46 346.82 154.459 345.498 147.075 326.721C139.69 307.945 133.482 293.866 128.27 281.514C123.059 269.163 122.282 268.395 120.517 265.941C118.753 263.487 114.007 254.941 111.62 250.068C109.234 245.195 95.6626 228.605 92.2149 225.04C88.7671 221.474 86.0945 218.85 82.7057 211.777C79.3169 204.705 74.9526 196.343 73.0479 193.044C71.1431 189.745 69.6774 184.404 67.9111 180.499C65.7882 175.804 61.9825 168.833 63.2744 166.275C64.8635 163.129 69.03 162.026 72.3973 164.249C75.7644 166.472 81.5788 176.543 83.5103 180.29C85.442 184.036 95.9608 200.651 98.0857 203.129C100.211 205.606 112.734 222.862 116.996 224.344C119.885 225.35 117.151 218.691 114.233 212.114C111.508 205.974 104.668 194.004 101.771 189.425C98.8748 184.847 97.6378 180.699 97.4209 171.101C97.204 161.503 96.1731 143.345 96.1515 138.496C96.1299 133.646 97.802 129.172 98.2211 124.431" stroke="#133029" stroke-width="1.5" stroke-linecap="round" stroke-linejoin="round"/>
<path d="M62.131 162.7C60.4312 163.538 59.8957 164.322 61.5633 168.85C63.231 173.379 65.909 177.423 66.4447 177.961C66.9804 178.499 68.6455 178.821 69.9875 177.62C71.3299 176.419 71.679 173.78 70.2242 170.241C68.8612 166.924 67.6833 163.388 66.5863 162.554C65.4893 161.72 63.0897 162.227 62.131 162.7Z" fill="#FFE9C8" stroke="#133029" stroke-width="1.5" stroke-linecap="round" stroke-linejoin="round"/>
<path d="M132.011 222.406C130.551 216.23 128.43 211.427 123.892 203.871C119.354 196.314 109.88 182.308 106.835 177.049C103.79 171.789 101.855 169.045 101.484 161.716C101.112 154.386 99.8007 139.352 99.2526 134.755C98.7044 130.159 97.4669 123.154 98.7965 116.947C100.126 110.74 103.025 105.733 104.775 100.863C106.524 95.9925 110.461 91.2633 115.17 94.861C119.879 98.4586 119.878 110.916 119.222 115.857C118.565 120.798 118.1 122.119 118.278 123.947C118.455 125.774 122.942 147.221 123.587 152.288C124.231 157.355 125.275 158.858 127.554 162.806C129.833 166.754 143.097 186.355 146.353 190.201C149.18 193.54 152.009 194.831 153.283 188.832" stroke="#133029" stroke-width="1.5" stroke-linecap="round" stroke-linejoin="round"/>
<path d="M102.023 107.476C102.953 107.821 106.893 106.942 109.396 103.22C111.899 99.4969 113.395 94.7018 113.337 93.0444C113.264 90.9219 108.894 90.1081 107.189 90.9253C105.769 91.6056 104.548 94.4415 103.342 98.1561C102.137 101.871 100.566 106.935 102.023 107.476Z" fill="#FFE9C8" stroke="#133029" stroke-width="1.5" stroke-linecap="round" stroke-linejoin="round"/>
<path d="M160.941 204.495C158.238 197.623 153.923 189.784 148.937 178.958C143.952 168.132 142.601 164.695 140.02 159.86C137.439 155.026 136.355 150.591 134.692 143.329C133.029 136.067 130.745 126.633 129.004 122.157C127.263 117.68 125.533 110.667 125.549 104.122C125.565 97.577 123.128 84.226 127.379 82.8255C131.631 81.4252 138.274 83.0715 142.767 95.2358C147.26 107.4 147.182 110.186 148.947 115.07C150.713 119.954 153.806 127.866 156.776 133.741C159.746 139.617 164.903 153.295 167.234 158.063C169.565 162.832 178.189 177.038 184.366 185.911C190.543 194.784 197.546 207.396 202.681 217.307C208.214 227.984 216.358 242.866 218.06 245.731" stroke="#133029" stroke-width="1.5" stroke-linecap="round" stroke-linejoin="round"/>
<path d="M203.88 219.608C203.88 219.608 208.224 206.666 205.616 192.495C204.95 188.878 203.494 180.913 203.436 175.039C203.318 163.136 208.625 156.85 214.43 154.361C220.235 151.871 221.805 159.07 222.857 166.567C223.909 174.064 224.681 176.895 226.544 183.407C228.407 189.919 229.159 192.416 228.301 203.775C227.444 215.133 229.584 230.695 231.469 240.025C233.354 249.355 240.651 279.637 237.01 299.797C233.37 319.957 227.48 331.016 224.474 343.107C219.398 363.521 220.722 382.831 220.881 408.339" stroke="#133029" stroke-width="1.5" stroke-linecap="round" stroke-linejoin="round"/>
<path d="M217.052 163.42C216.655 158.684 216.064 153.237 217.544 152.468C219.024 151.699 222.359 152.339 223.278 153.652C224.197 154.966 224.339 165.626 224.25 168.804C224.161 171.982 222.681 172.724 221.322 172.313C219.284 171.696 217.364 167.132 217.052 163.42Z" fill="#FFE9C8" stroke="#133029" stroke-width="1.5" stroke-linecap="round" stroke-linejoin="round"/>
<path d="M123.781 92.7578C122.992 88.3658 122.386 82.4738 123.742 81.312C125.097 80.1499 127.374 79.2033 130.274 80.2917C133.174 81.38 134.006 92.07 133.45 94.5832C132.497 98.8883 129.689 99.9063 128.008 100.079C126.327 100.251 124.89 98.9318 123.781 92.7578Z" fill="#FFE9C8" stroke="#133029" stroke-width="1.5" stroke-linecap="round" stroke-linejoin="round"/>
<path d="M489.459 249.287C469.403 237.89 437.357 221.983 424.314 214.454C411.593 207.111 391.719 206.235 377.636 195.388C363.554 184.541 341.901 166.686 331.879 160.314C321.364 153.628 315.98 150.875 312.274 148.036C309.373 145.814 305.909 139.546 303.976 134.577C302.043 129.608 294.457 119.711 296.4 115.781C298.344 111.85 305.749 110.778 312.605 116.42C318.891 121.592 322.445 127.757 325.294 130.518C326.403 131.591 335.559 137.384 339.948 139.319C344.181 141.186 350.395 142.415 352.583 142.556" stroke="#133029" stroke-width="1.5" stroke-linecap="round" stroke-linejoin="round"/>
<path d="M358.908 160.643C356.835 153.182 355.608 147.187 347.069 129.495C338.53 111.802 326.195 94.9665 318.11 84.8322C310.024 74.6978 298.652 60.8986 292.177 54.4929C285.73 48.1151 283.901 47.1566 280.499 44.0204C276.566 40.3942 260.171 24.9383 265.986 17.1122C271.802 9.28612 277.324 16.4318 282.498 19.5888C287.672 22.7458 293.511 27.7731 296.377 30.5673C298.484 32.6215 306.492 38.4126 313.746 43.7204C321 49.0282 324.499 53.1527 331.156 59.3633C337.814 65.574 348.475 74.7698 352.968 79.7269C359.301 86.715 368.145 91.3312 368.145 91.3312" stroke="#133029" stroke-width="1.5" stroke-linecap="round" stroke-linejoin="round"/>
<path d="M407.82 92.4858C407.82 92.4858 405.171 86.6219 402.437 83.3691C398.844 79.0929 396.798 78.836 388.411 71.756C380.023 64.6764 372.245 56.9327 365.662 49.5929C359.079 42.2533 350.594 34.3291 346.959 31.9918C343.741 29.9219 337.269 26.035 331.242 22.5086C325.975 19.4264 321.091 16.3719 317.6 15.0648C314.109 13.7577 309.872 12.8381 304.234 11.2737C298.679 9.73193 293.849 9.16256 291.104 12.7016C288.36 16.2405 291.109 21.0051 294.42 24.3704C297.732 27.7358 308.508 32.9659 314.509 36.2136C321.676 40.0923 327.404 44.5279 331.201 48.3949C334.363 51.616 348.072 67.5199 355.71 76.2354C357.241 77.983 359.473 80.3983 360.377 81.4121C362.015 83.2492 362.026 85.7429 361.061 86.8409" stroke="#133029" stroke-width="1.5" stroke-linecap="round" stroke-linejoin="round"/>
<path d="M265.733 13.268C262.224 15.959 263.028 18.0597 264.955 19.992C266.883 21.9246 271.021 24.5387 274.573 24.9291C278.472 25.3575 281.573 23.1292 281.972 21.334C282.372 19.5388 281.445 18.2048 279.023 16.3544C276.602 14.5043 272.688 12.297 271.086 11.868C269.485 11.439 267.724 11.7407 265.733 13.268Z" fill="#FFE9C8" stroke="#133029" stroke-width="1.5" stroke-linecap="round" stroke-linejoin="round"/>
<path d="M290.695 10.3439C288.329 11.7662 287.828 13.7388 289.244 14.8297C290.659 15.9207 294.826 15.7509 296.875 15.3009C299.357 14.7557 301.464 13.8271 302.539 12.7173C303.73 11.4867 303.267 10.6941 300.815 9.87471C298.435 9.07905 296.58 8.95086 295.002 8.9239C293.857 8.90427 292.532 9.23908 290.695 10.3439Z" fill="#FFE9C8" stroke="#133029" stroke-width="1.5" stroke-linecap="round" stroke-linejoin="round"/>
<path d="M302.588 131.695C303.752 131.239 302.28 125.649 300.468 121.225C298.434 116.262 297.43 114.205 295.563 114.19C294.218 114.179 290.918 114.412 293.233 119.047C295.585 123.755 300.78 132.404 302.588 131.695Z" fill="#FFE9C8" stroke="#133029" stroke-width="1.5" stroke-linecap="round" stroke-linejoin="round"/>
<path d="M224.092 96.5953C213.884 102.489 200.831 98.9911 194.937 88.7828C190.546 81.1774 191.369 71.9936 196.295 65.3671C194.808 65.8831 193.347 66.5448 191.933 67.361C179.888 74.3152 175.761 89.7172 182.716 101.762C189.67 113.807 205.072 117.934 217.117 110.98C224.274 106.848 228.635 99.7324 229.537 92.1112C228.024 93.8523 226.202 95.3771 224.092 96.5953Z" fill="#133029" stroke="#FFE9C8" stroke-width="1.5" stroke-linecap="round" stroke-linejoin="round"/>
<path d="M218.473 72.2852C211.312 76.4196 211.268 77.2627 215.278 84.208C211.215 77.1701 210.516 76.879 203.355 81.0133C210.516 76.879 210.352 76.3424 206.55 69.0905C210.755 76.0788 211.312 76.4196 218.473 72.2852Z" fill="#133029" stroke="#FFE9C8" stroke-width="1.5" stroke-linecap="round" stroke-linejoin="round"/>
<path d="M159.204 70.7312C156.044 72.5558 156.025 72.9279 157.795 75.9931C156.001 72.887 155.693 72.7585 152.533 74.583C155.693 72.7585 155.621 72.5218 153.943 69.3214C155.799 72.4056 156.044 72.5558 159.204 70.7312Z" fill="#133029" stroke="#FFE9C8" stroke-width="1.5" stroke-linecap="round" stroke-linejoin="round"/>
<path d="M252.541 153.876C249.381 155.701 249.361 156.073 251.131 159.138C249.338 156.032 249.029 155.904 245.869 157.728C249.029 155.904 248.957 155.667 247.279 152.466C249.135 155.55 249.381 155.701 252.541 153.876Z" fill="#133029" stroke="#FFE9C8" stroke-width="1.5" stroke-linecap="round" stroke-linejoin="round"/>
<path d="M246.248 37.9185C243.62 39.4355 242.942 41.9683 244.459 44.5959C242.942 41.9683 240.409 41.2897 237.781 42.8067C240.409 41.2897 241.088 38.7569 239.571 36.1293C241.088 38.7569 243.62 39.4355 246.248 37.9185Z" fill="#133029" stroke="#FFE9C8" stroke-width="1.5" stroke-linecap="round" stroke-linejoin="round"/>
<path d="M264.359 82.4956C261.732 84.0126 261.053 86.5455 262.57 89.173C261.053 86.5455 258.52 85.8668 255.893 87.3838C258.52 85.8668 259.199 83.334 257.682 80.7065C259.199 83.334 261.732 84.0126 264.359 82.4956Z" fill="#133029" stroke="#FFE9C8" stroke-width="1.5" stroke-linecap="round" stroke-linejoin="round"/>
<path d="M208.196 135.151C202.941 138.185 201.583 143.25 204.617 148.505C201.583 143.25 196.518 141.893 191.263 144.927C196.518 141.893 197.875 136.828 194.841 131.573C197.875 136.828 202.941 138.185 208.196 135.151Z" fill="#133029" stroke="#FFE9C8" stroke-width="1.5" stroke-linecap="round" stroke-linejoin="round"/>
<path d="M215.121 32.1549C211.464 34.266 210.52 37.7908 212.631 41.4472C210.52 37.7908 206.995 36.8462 203.339 38.9572C206.995 36.8462 207.939 33.3217 205.828 29.6651C207.939 33.3217 211.464 34.266 215.121 32.1549Z" fill="#133029" stroke="#FFE9C8" stroke-width="1.5" stroke-linecap="round" stroke-linejoin="round"/>
<path d="M273.442 113.194C274.929 119.688 270.871 126.157 264.378 127.644C257.884 129.131 251.415 125.073 249.928 118.579C248.441 112.086 252.499 105.617 258.992 104.129C265.486 102.642 271.955 106.701 273.442 113.194Z" fill="#133029" stroke="#FFE9C8" stroke-width="1.5" stroke-linecap="round" stroke-linejoin="round"/>
<path d="M271.63 109.059C276.053 109.055 279.102 109.933 279.488 111.617C280.15 114.51 272.698 118.685 262.843 120.942C252.987 123.199 244.461 122.684 243.798 119.79C243.413 118.107 245.775 115.989 249.76 114.068" stroke="#FFE9C8" stroke-width="1.5" stroke-linecap="round" stroke-linejoin="round"/>
<path d="M290.94 76.0903C292.479 78.7552 291.565 82.1628 288.9 83.7014C286.236 85.24 282.828 84.327 281.289 81.6621C279.751 78.997 280.664 75.5894 283.329 74.0508C285.994 72.5121 289.401 73.4252 290.94 76.0903Z" fill="#133029" stroke="#FFE9C8" stroke-width="1.5" stroke-linecap="round" stroke-linejoin="round"/>
<path d="M235.173 61.5664C235.43 62.0128 235.277 62.5836 234.831 62.8413C234.385 63.099 233.814 62.9461 233.556 62.4996C233.298 62.0534 233.451 61.4828 233.898 61.225C234.344 60.9674 234.915 61.1202 235.173 61.5664Z" fill="#FFE9C8"/>
<path d="M296.033 96.0558C296.291 96.5022 296.138 97.0729 295.692 97.3305C295.245 97.5882 294.675 97.4353 294.417 96.9889C294.159 96.5427 294.312 95.972 294.759 95.7143C295.205 95.4567 295.776 95.6095 296.033 96.0558Z" fill="#FFE9C8"/>
<path d="M220.622 122.044C220.88 122.49 220.727 123.061 220.281 123.319C219.834 123.576 219.263 123.423 219.006 122.977C218.748 122.531 218.901 121.96 219.347 121.702C219.794 121.445 220.364 121.598 220.622 122.044Z" fill="#FFE9C8"/>
<path d="M176.531 119.412C176.789 119.858 176.636 120.429 176.19 120.686C175.743 120.944 175.173 120.791 174.915 120.345C174.657 119.899 174.81 119.328 175.257 119.07C175.703 118.813 176.274 118.966 176.531 119.412Z" fill="#FFE9C8"/>
<path d="M173.718 62.3518C173.976 62.7982 173.822 63.369 173.376 63.6266C172.93 63.8844 172.359 63.7315 172.101 63.285C171.844 62.8388 171.997 62.2682 172.443 62.0104C172.889 61.7528 173.46 61.9056 173.718 62.3518Z" fill="#FFE9C8"/>
<path d="M206.99 56.1813C207.437 55.9236 207.59 55.3528 207.332 54.9064C207.074 54.4601 206.503 54.3072 206.057 54.5649C205.611 54.8226 205.458 55.3933 205.716 55.8397C205.973 56.286 206.544 56.439 206.99 56.1813Z" fill="#FFE9C8"/>
<path d="M298.177 26.1428C301.803 21.3757 305.8 14.9086 306.36 12.1402" stroke="#133029" stroke-width="1.5" stroke-linecap="round" stroke-linejoin="round"/>
<path d="M294.907 30.2454C294.907 30.2454 285.645 40.4489 281.908 44.3091" stroke="#133029" stroke-width="1.5" stroke-linecap="round" stroke-linejoin="round"/>
<path d="M296.493 58.2985C299.521 49.6393 302.491 40.4927 304.106 36.648" stroke="#133029" stroke-width="1.5" stroke-linecap="round" stroke-linejoin="round"/>
<path d="M126.438 113.009C126.438 113.009 135.937 112.934 147.443 110.054" stroke="#133029" stroke-width="1.5" stroke-linecap="round" stroke-linejoin="round"/>
<path d="M99.9252 112.855C105.058 115.966 112.115 118.295 118.538 120.414" stroke="#133029" stroke-width="1.5" stroke-linecap="round" stroke-linejoin="round"/>
<path d="M101.225 110.753C106.934 112.482 113.286 113.391 119.133 113.702" stroke="#133029" stroke-width="1.5" stroke-linecap="round" stroke-linejoin="round"/>
<path d="M129.693 124.094C132.163 124.952 134.712 125.81 137.079 126.504C141.858 127.903 148.309 130.275 155.971 132.684" stroke="#133029" stroke-width="1.5" stroke-linecap="round" stroke-linejoin="round"/>
<path d="M278.447 31.6694C278.632 32.0799 278.449 32.5627 278.038 32.7472C277.627 32.932 277.145 32.7487 276.96 32.3381C276.775 31.9274 276.959 31.445 277.369 31.2602C277.78 31.0757 278.262 31.2587 278.447 31.6694Z" fill="#133029"/>
<path d="M287.403 28.671C287.517 28.9246 287.404 29.2227 287.15 29.3368C286.897 29.4508 286.599 29.3377 286.484 29.0839C286.37 28.8303 286.483 28.5323 286.737 28.4183C286.991 28.3042 287.289 28.4174 287.403 28.671Z" fill="#133029"/>
<path d="M294.277 46.4411C294.391 46.6947 294.278 46.9928 294.025 47.1069C293.771 47.2209 293.473 47.1077 293.359 46.8541C293.245 46.6005 293.358 46.3025 293.612 46.1884C293.865 46.0743 294.163 46.1875 294.277 46.4411Z" fill="#133029"/>
<path d="M183.78 312.297C183.999 312.69 184.496 312.829 184.889 312.61C185.282 312.389 185.422 311.893 185.202 311.5C184.982 311.107 184.485 310.967 184.093 311.187C183.7 311.407 183.56 311.904 183.78 312.297Z" fill="#133029"/>
<path d="M217.323 329.581C217.543 329.974 218.04 330.114 218.433 329.894C218.825 329.674 218.966 329.177 218.746 328.784C218.526 328.392 218.029 328.252 217.636 328.472C217.243 328.692 217.103 329.188 217.323 329.581Z" fill="#133029"/>
<path d="M173.296 257.17C173.516 257.563 174.012 257.703 174.405 257.483C174.798 257.263 174.938 256.767 174.718 256.374C174.498 255.981 174.001 255.841 173.608 256.061C173.216 256.281 173.075 256.778 173.296 257.17Z" fill="#133029"/>
<path d="M193.078 231.094C193.298 231.487 193.795 231.627 194.188 231.407C194.581 231.187 194.721 230.69 194.501 230.297C194.281 229.904 193.784 229.764 193.391 229.984C192.998 230.204 192.858 230.701 193.078 231.094Z" fill="#133029"/>
<path d="M76.865 188.883C77.0852 189.276 77.5819 189.416 77.9748 189.196C78.3676 188.976 78.5078 188.479 78.2877 188.086C78.0677 187.693 77.5709 187.553 77.1781 187.773C76.7854 187.993 76.6452 188.49 76.865 188.883Z" fill="#133029"/>
<path d="M213.344 192.777C213.564 193.17 214.061 193.31 214.453 193.09C214.846 192.87 214.986 192.373 214.767 191.981C214.546 191.588 214.05 191.448 213.657 191.668C213.264 191.887 213.124 192.384 213.344 192.777Z" fill="#133029"/>
<path d="M116.395 187.2C116.615 187.593 117.111 187.733 117.504 187.513C117.897 187.293 118.037 186.796 117.817 186.403C117.597 186.01 117.101 185.87 116.708 186.09C116.315 186.31 116.175 186.807 116.395 187.2Z" fill="#133029"/>
<path d="M106.023 154.768C106.243 155.161 106.74 155.302 107.133 155.082C107.526 154.861 107.666 154.365 107.446 153.972C107.226 153.579 106.729 153.439 106.336 153.659C105.944 153.879 105.803 154.376 106.023 154.768Z" fill="#133029"/>
<path d="M94.5887 219.581C94.8088 219.974 95.3054 220.114 95.6984 219.894C96.0911 219.674 96.2313 219.177 96.0112 218.784C95.7913 218.391 95.2944 218.251 94.9017 218.471C94.509 218.691 94.3687 219.188 94.5887 219.581Z" fill="#133029"/>
<path d="M168.508 192.114C168.728 192.507 169.225 192.647 169.618 192.427C170.011 192.207 170.151 191.71 169.931 191.317C169.711 190.924 169.214 190.784 168.821 191.004C168.428 191.224 168.288 191.721 168.508 192.114Z" fill="#133029"/>
<path d="M136.843 101.185C137.063 101.577 137.56 101.718 137.953 101.498C138.345 101.278 138.486 100.781 138.266 100.388C138.046 99.9953 137.549 99.855 137.156 100.075C136.763 100.295 136.623 100.792 136.843 101.185Z" fill="#133029"/>
<path d="M124.372 219.438C124.592 219.831 125.089 219.971 125.482 219.751C125.875 219.531 126.015 219.034 125.795 218.641C125.575 218.248 125.078 218.108 124.685 218.328C124.292 218.548 124.152 219.045 124.372 219.438Z" fill="#133029"/>
<path d="M118.391 247.428C118.611 247.821 119.108 247.961 119.501 247.741C119.894 247.521 120.034 247.024 119.814 246.631C119.594 246.238 119.097 246.098 118.705 246.318C118.312 246.538 118.172 247.035 118.391 247.428Z" fill="#133029"/>
<path d="M147.752 203.682C147.972 204.075 148.468 204.215 148.861 203.995C149.254 203.775 149.394 203.279 149.174 202.886C148.954 202.493 148.458 202.353 148.065 202.573C147.672 202.793 147.532 203.29 147.752 203.682Z" fill="#133029"/>
<path d="M183.638 198.819C183.858 199.212 184.355 199.352 184.748 199.132C185.141 198.912 185.281 198.415 185.061 198.022C184.841 197.63 184.344 197.49 183.951 197.71C183.559 197.929 183.418 198.426 183.638 198.819Z" fill="#133029"/>
<path d="M147.054 138.761C147.274 139.153 147.771 139.294 148.164 139.073C148.557 138.853 148.697 138.357 148.477 137.964C148.257 137.571 147.76 137.431 147.367 137.651C146.974 137.871 146.834 138.368 147.054 138.761Z" fill="#133029"/>
<path d="M104.643 183.636C104.863 184.028 105.36 184.169 105.753 183.949C106.146 183.729 106.286 183.232 106.066 182.839C105.846 182.446 105.349 182.306 104.956 182.526C104.563 182.746 104.423 183.243 104.643 183.636Z" fill="#133029"/>
<path d="M159.188 217.821C159.408 218.214 159.905 218.354 160.298 218.134C160.691 217.914 160.831 217.417 160.611 217.025C160.391 216.632 159.894 216.492 159.501 216.712C159.108 216.932 158.968 217.428 159.188 217.821Z" fill="#133029"/>
<path d="M105.996 126.417C106.216 126.81 106.712 126.95 107.105 126.73C107.498 126.51 107.638 126.013 107.418 125.62C107.198 125.228 106.701 125.087 106.309 125.308C105.916 125.528 105.776 126.024 105.996 126.417Z" fill="#133029"/>
<path d="M209.789 254.707C210.009 255.1 210.506 255.24 210.899 255.02C211.292 254.8 211.432 254.304 211.212 253.911C210.992 253.518 210.495 253.378 210.102 253.598C209.709 253.818 209.569 254.315 209.789 254.707Z" fill="#133029"/>
<path d="M172.571 272.64C172.791 273.033 173.287 273.173 173.68 272.953C174.073 272.733 174.213 272.237 173.993 271.844C173.773 271.451 173.276 271.311 172.884 271.531C172.491 271.751 172.351 272.247 172.571 272.64Z" fill="#133029"/>
<path d="M228.345 277.272C228.79 277.34 229.206 277.034 229.274 276.589C229.341 276.144 229.036 275.728 228.591 275.66C228.145 275.592 227.73 275.898 227.662 276.343C227.594 276.788 227.9 277.204 228.345 277.272Z" fill="#133029"/>
<path d="M220.159 209.219C220.604 209.286 221.02 208.981 221.088 208.536C221.156 208.09 220.85 207.675 220.405 207.607C219.96 207.539 219.544 207.845 219.476 208.29C219.408 208.735 219.714 209.151 220.159 209.219Z" fill="#133029"/>
<path d="M150.204 231.633C150.424 232.026 150.921 232.166 151.314 231.946C151.706 231.726 151.847 231.229 151.627 230.837C151.407 230.444 150.91 230.304 150.517 230.524C150.124 230.744 149.984 231.24 150.204 231.633Z" fill="#133029"/>
<path d="M155.449 317.67C155.669 318.063 156.166 318.202 156.558 317.983C156.951 317.763 157.091 317.266 156.871 316.873C156.651 316.48 156.155 316.34 155.762 316.56C155.369 316.78 155.229 317.277 155.449 317.67Z" fill="#133029"/>
<path d="M146.131 294.708C146.351 295.101 146.848 295.241 147.241 295.021C147.633 294.801 147.774 294.304 147.554 293.911C147.334 293.518 146.837 293.378 146.444 293.598C146.051 293.818 145.911 294.315 146.131 294.708Z" fill="#133029"/>
<path d="M164.777 239.593C164.997 239.986 165.494 240.126 165.887 239.906C166.28 239.686 166.42 239.189 166.2 238.796C165.98 238.404 165.483 238.263 165.09 238.483C164.697 238.703 164.557 239.2 164.777 239.593Z" fill="#133029"/>
<path d="M198.806 346.135C198.942 346.377 199.248 346.464 199.491 346.328C199.734 346.192 199.82 345.886 199.684 345.643C199.548 345.4 199.242 345.314 198.999 345.45C198.756 345.585 198.67 345.892 198.806 346.135Z" fill="#133029"/>
<path d="M206.759 273.216C206.895 273.459 207.201 273.545 207.444 273.409C207.687 273.273 207.773 272.967 207.637 272.724C207.502 272.481 207.195 272.395 206.952 272.531C206.709 272.667 206.623 272.973 206.759 273.216Z" fill="#133029"/>
<path d="M213.773 288.112C213.909 288.354 214.216 288.441 214.459 288.305C214.701 288.169 214.788 287.862 214.652 287.62C214.516 287.377 214.209 287.291 213.967 287.426C213.724 287.562 213.638 287.869 213.773 288.112Z" fill="#133029"/>
<path d="M215.124 313.802C215.259 314.045 215.566 314.131 215.809 313.995C216.052 313.86 216.138 313.553 216.002 313.31C215.866 313.068 215.56 312.981 215.317 313.117C215.074 313.253 214.988 313.56 215.124 313.802Z" fill="#133029"/>
<path d="M194.868 327.326C195.004 327.569 195.311 327.655 195.554 327.519C195.796 327.384 195.883 327.077 195.747 326.834C195.611 326.591 195.304 326.505 195.062 326.641C194.819 326.777 194.732 327.083 194.868 327.326Z" fill="#133029"/>
<path d="M177.342 307.244C177.478 307.486 177.784 307.573 178.027 307.437C178.27 307.301 178.356 306.994 178.221 306.752C178.085 306.509 177.778 306.423 177.535 306.558C177.292 306.694 177.206 307.001 177.342 307.244Z" fill="#133029"/>
<path d="M218.14 182.611C218.275 182.854 218.582 182.941 218.825 182.805C219.068 182.669 219.154 182.362 219.018 182.12C218.882 181.877 218.575 181.79 218.333 181.926C218.09 182.062 218.004 182.369 218.14 182.611Z" fill="#133029"/>
<path d="M144.464 263.667C144.6 263.909 144.907 263.996 145.149 263.86C145.392 263.724 145.479 263.417 145.343 263.175C145.207 262.932 144.9 262.846 144.657 262.981C144.415 263.117 144.328 263.424 144.464 263.667Z" fill="#133029"/>
<path d="M159.857 258.452C159.993 258.695 160.299 258.782 160.542 258.646C160.785 258.51 160.871 258.203 160.735 257.96C160.6 257.718 160.293 257.631 160.05 257.767C159.807 257.903 159.721 258.21 159.857 258.452Z" fill="#133029"/>
<path d="M216.293 345.926C216.429 346.169 216.736 346.255 216.979 346.119C217.221 345.983 217.308 345.677 217.172 345.434C217.036 345.191 216.729 345.105 216.486 345.241C216.244 345.377 216.157 345.683 216.293 345.926Z" fill="#133029"/>
<path d="M139.694 280.364C139.83 280.606 140.137 280.693 140.379 280.557C140.622 280.421 140.708 280.114 140.573 279.872C140.437 279.629 140.13 279.542 139.887 279.678C139.645 279.814 139.558 280.121 139.694 280.364Z" fill="#133029"/>
<path d="M161.279 299.12C161.414 299.363 161.721 299.449 161.964 299.314C162.207 299.178 162.293 298.871 162.157 298.628C162.021 298.386 161.715 298.299 161.472 298.435C161.229 298.571 161.143 298.878 161.279 299.12Z" fill="#133029"/>
<path d="M228.371 294.205C228.646 294.247 228.903 294.058 228.945 293.783C228.987 293.508 228.798 293.251 228.523 293.209C228.248 293.167 227.991 293.356 227.949 293.631C227.907 293.906 228.096 294.163 228.371 294.205Z" fill="#133029"/>
<path d="M139.967 120.323C140.103 120.566 140.41 120.652 140.653 120.517C140.895 120.381 140.982 120.074 140.846 119.831C140.71 119.589 140.403 119.502 140.161 119.638C139.918 119.774 139.831 120.081 139.967 120.323Z" fill="#133029"/>
<path d="M146.678 162.416C146.813 162.659 147.12 162.745 147.363 162.61C147.606 162.474 147.692 162.167 147.556 161.924C147.42 161.681 147.114 161.595 146.871 161.731C146.628 161.867 146.542 162.173 146.678 162.416Z" fill="#133029"/>
<path d="M132.716 204.852C132.852 205.095 133.159 205.181 133.401 205.045C133.644 204.909 133.731 204.602 133.595 204.36C133.459 204.117 133.152 204.031 132.909 204.166C132.667 204.302 132.58 204.609 132.716 204.852Z" fill="#133029"/>
<path d="M112.653 105.499C112.789 105.741 113.096 105.828 113.339 105.692C113.581 105.556 113.668 105.249 113.532 105.007C113.396 104.764 113.089 104.677 112.847 104.813C112.604 104.949 112.518 105.256 112.653 105.499Z" fill="#133029"/>
<path d="M220.764 226.153C220.9 226.396 221.207 226.482 221.449 226.347C221.692 226.211 221.778 225.904 221.643 225.661C221.507 225.419 221.2 225.332 220.957 225.468C220.715 225.604 220.628 225.911 220.764 226.153Z" fill="#133029"/>
<path d="M109.105 195.951C109.24 196.194 109.547 196.28 109.79 196.144C110.033 196.008 110.119 195.702 109.983 195.459C109.847 195.216 109.54 195.13 109.298 195.266C109.055 195.402 108.969 195.708 109.105 195.951Z" fill="#133029"/>
<path d="M89.3163 198.923C89.4523 199.166 89.7592 199.252 90.0016 199.116C90.2442 198.981 90.331 198.674 90.195 198.431C90.0591 198.188 89.7522 198.102 89.5098 198.238C89.267 198.374 89.1804 198.681 89.3163 198.923Z" fill="#133029"/>
<path d="M96.9621 212.166C97.098 212.409 97.4049 212.495 97.6473 212.359C97.8901 212.224 97.9767 211.917 97.8408 211.674C97.7049 211.431 97.398 211.345 97.1555 211.481C96.9129 211.617 96.8261 211.923 96.9621 212.166Z" fill="#133029"/>
<path d="M129.37 244.898C129.506 245.141 129.813 245.227 130.055 245.092C130.298 244.956 130.385 244.649 130.249 244.406C130.113 244.164 129.806 244.077 129.563 244.213C129.321 244.349 129.234 244.656 129.37 244.898Z" fill="#133029"/>
<path d="M174.004 224.73C174.139 224.973 174.446 225.059 174.689 224.924C174.932 224.788 175.018 224.481 174.882 224.238C174.746 223.996 174.439 223.909 174.197 224.045C173.954 224.181 173.868 224.487 174.004 224.73Z" fill="#133029"/>
<path d="M108.941 237.233C109.076 237.475 109.383 237.562 109.626 237.426C109.868 237.29 109.955 236.983 109.819 236.74C109.683 236.498 109.376 236.411 109.134 236.547C108.891 236.683 108.805 236.99 108.941 237.233Z" fill="#133029"/>
<path d="M112.446 171.757C112.582 172 112.888 172.086 113.131 171.95C113.374 171.814 113.46 171.508 113.324 171.265C113.189 171.022 112.882 170.936 112.639 171.072C112.397 171.208 112.31 171.514 112.446 171.757Z" fill="#133029"/>
<path d="M154.644 147.976C154.779 148.218 155.086 148.305 155.329 148.169C155.572 148.033 155.658 147.726 155.522 147.484C155.386 147.241 155.08 147.154 154.837 147.29C154.594 147.426 154.508 147.733 154.644 147.976Z" fill="#133029"/>
<path d="M112.005 147.051C112.141 147.294 112.448 147.38 112.691 147.245C112.933 147.109 113.02 146.802 112.884 146.559C112.748 146.316 112.441 146.23 112.199 146.366C111.956 146.502 111.869 146.808 112.005 147.051Z" fill="#133029"/>
<path d="M181.533 237.68C181.669 237.923 181.976 238.01 182.218 237.874C182.461 237.738 182.547 237.431 182.411 237.188C182.276 236.946 181.969 236.859 181.726 236.995C181.483 237.131 181.397 237.438 181.533 237.68Z" fill="#133029"/>
<path d="M221.803 258.211C221.939 258.454 222.245 258.54 222.488 258.404C222.731 258.268 222.817 257.961 222.681 257.719C222.545 257.476 222.239 257.39 221.996 257.525C221.753 257.661 221.667 257.968 221.803 258.211Z" fill="#133029"/>
<path d="M190.144 211.765C190.28 212.007 190.587 212.094 190.83 211.958C191.072 211.822 191.159 211.515 191.023 211.273C190.887 211.03 190.58 210.944 190.338 211.079C190.095 211.215 190.009 211.522 190.144 211.765Z" fill="#133029"/>
<path d="M175.014 344.373C175.15 344.616 175.456 344.702 175.699 344.566C175.942 344.43 176.028 344.124 175.892 343.881C175.757 343.638 175.45 343.552 175.207 343.687C174.964 343.823 174.878 344.13 175.014 344.373Z" fill="#133029"/>
<path d="M184.56 280.294C184.695 280.537 185.002 280.623 185.245 280.488C185.487 280.352 185.574 280.045 185.438 279.802C185.302 279.56 184.995 279.473 184.753 279.609C184.51 279.745 184.424 280.052 184.56 280.294Z" fill="#133029"/>
<path d="M164.664 174.974C164.8 175.216 165.107 175.303 165.349 175.167C165.592 175.031 165.678 174.724 165.543 174.482C165.407 174.239 165.1 174.153 164.857 174.288C164.615 174.424 164.528 174.731 164.664 174.974Z" fill="#133029"/>
<path d="M163.063 321.255C163.198 321.497 163.505 321.584 163.748 321.448C163.991 321.312 164.077 321.005 163.941 320.763C163.805 320.52 163.499 320.433 163.256 320.569C163.013 320.705 162.927 321.012 163.063 321.255Z" fill="#133029"/>
<path d="M205.201 298.976C205.618 299.72 206.559 299.986 207.303 299.569C208.047 299.152 208.313 298.211 207.896 297.467C207.479 296.723 206.538 296.458 205.794 296.874C205.05 297.291 204.785 298.232 205.201 298.976Z" fill="#133029"/>
<path d="M160.167 335.587C160.583 336.331 161.524 336.596 162.268 336.179C163.013 335.763 163.278 334.822 162.861 334.078C162.445 333.334 161.503 333.068 160.759 333.485C160.015 333.902 159.75 334.843 160.167 335.587Z" fill="#133029"/>
<path d="M182.065 208.426C182.482 209.17 183.423 209.435 184.167 209.019C184.911 208.602 185.176 207.661 184.76 206.917C184.343 206.173 183.402 205.908 182.658 206.324C181.914 206.741 181.649 207.682 182.065 208.426Z" fill="#133029"/>
<path d="M141.406 238.105C141.823 238.849 142.764 239.115 143.508 238.698C144.252 238.281 144.517 237.34 144.101 236.596C143.684 235.852 142.743 235.587 141.999 236.003C141.255 236.42 140.99 237.361 141.406 238.105Z" fill="#133029"/>
<path d="M155.609 163.953C156.026 164.697 156.967 164.963 157.711 164.546C158.455 164.129 158.721 163.188 158.304 162.444C157.887 161.7 156.946 161.435 156.202 161.851C155.458 162.268 155.193 163.209 155.609 163.953Z" fill="#133029"/>
<path d="M169.479 288.985C169.896 289.729 170.837 289.995 171.581 289.578C172.325 289.162 172.59 288.221 172.174 287.476C171.757 286.732 170.816 286.467 170.072 286.884C169.328 287.3 169.062 288.241 169.479 288.985Z" fill="#133029"/>
<path d="M125.974 176.665C126.391 177.409 127.332 177.675 128.076 177.258C128.82 176.841 129.085 175.9 128.669 175.156C128.252 174.412 127.311 174.147 126.567 174.564C125.823 174.98 125.558 175.921 125.974 176.665Z" fill="#133029"/>
<path d="M131.466 274.612C131.883 275.356 132.824 275.622 133.568 275.205C134.312 274.788 134.577 273.847 134.161 273.103C133.744 272.359 132.803 272.094 132.059 272.51C131.315 272.927 131.049 273.868 131.466 274.612Z" fill="#133029"/>
<path d="M179.955 255.248C180.371 255.992 181.312 256.257 182.056 255.84C182.8 255.424 183.066 254.483 182.649 253.739C182.232 252.995 181.292 252.73 180.548 253.146C179.803 253.563 179.538 254.504 179.955 255.248Z" fill="#133029"/>
<path d="M193.042 263.676C193.885 263.804 194.673 263.225 194.802 262.382C194.93 261.539 194.351 260.751 193.508 260.623C192.665 260.494 191.877 261.073 191.749 261.916C191.62 262.759 192.199 263.547 193.042 263.676Z" fill="#133029"/>
</svg>
