<svg width="147" height="157" viewBox="0 0 147 157" fill="none" xmlns="http://www.w3.org/2000/svg">
<path d="M88.0054 43.3469C88.0054 43.3469 93.8396 31.1898 103.843 30.6737C113.846 30.1575 121.383 43.3469 121.383 43.3469C121.383 43.3469 107.117 59.4974 88.0054 43.3469Z" fill="#FFE9C8"/>
<path d="M21.4926 -12.0042L52.3912 42.8948L58.4882 32.0618L40.4548 0.0208702H168.934L104.694 114.158L64.5855 42.8948L58.4882 53.7278L104.694 135.824L187.896 -12.0042H21.4926Z" fill="#FFE9C8"/>
<path d="M95.4842 -12.0039L104.694 -28.3681L144.803 42.8949L150.9 32.062L104.694 -50.0339L83.29 -12.004H95.4842V-12.0039Z" stroke="#FFE9C8" stroke-linecap="round" stroke-linejoin="round"/>
<path d="M88.716 85.7687L95.484 97.7938H187.896L156.997 42.8948L150.9 53.7277L168.933 85.7687H88.716Z" stroke="#FFE9C8" stroke-linecap="round" stroke-linejoin="round"/>
<path d="M76.5219 85.7687H40.4548L88.7161 0.020752H76.5219L21.4926 97.7937H83.2899L76.5219 85.7687Z" stroke="#FFE9C8" stroke-linecap="round" stroke-linejoin="round"/>
<path d="M89.2027 42.7134C89.1193 42.7134 89.034 42.7013 88.9504 42.6769C88.6859 42.5986 82.4811 40.7002 82.3994 35.1741C82.3925 34.6817 82.7856 34.2761 83.2764 34.2693H83.2903C83.7758 34.2693 84.1742 34.6591 84.1812 35.1463C84.2438 39.3779 89.4028 40.9525 89.455 40.9682C89.9266 41.1074 90.1963 41.6032 90.0571 42.0748C89.9422 42.4628 89.5873 42.7134 89.2027 42.7134Z" fill="#FFE9C8"/>
<path d="M93.0342 37.7476C92.8725 37.7476 92.7088 37.7041 92.5627 37.6118C92.3765 37.4953 88.0282 34.7113 88.3136 30.3143C88.3467 29.8237 88.7817 29.4392 89.2602 29.4826C89.7508 29.514 90.1231 29.9385 90.0919 30.4292C89.8762 33.7596 93.4744 36.0806 93.5109 36.1033C93.9269 36.3661 94.0504 36.9159 93.7894 37.3317C93.6188 37.5996 93.3301 37.7476 93.0342 37.7476Z" fill="#FFE9C8"/>
<path d="M99.5868 33.1122C99.4215 33.1122 99.2545 33.067 99.105 32.9712C98.9239 32.8547 94.6715 30.0671 95.8442 25.7137C95.9713 25.2387 96.4689 24.9568 96.9351 25.0856C97.4101 25.2127 97.692 25.7015 97.5634 26.1765C96.7264 29.286 100.034 31.4505 100.069 31.4713C100.481 31.7376 100.603 32.2891 100.337 32.7033C100.166 32.9678 99.8791 33.1122 99.5868 33.1122Z" fill="#FFE9C8"/>
<path d="M106.286 32.303C106.19 32.303 106.091 32.2874 105.995 32.2542C105.531 32.0941 105.284 31.5861 105.444 31.1215C105.456 31.0851 106.695 27.4571 106.563 25.0507C106.535 24.5601 106.911 24.139 107.403 24.1129C107.913 24.0676 108.315 24.4627 108.341 24.9533C108.494 27.7095 107.184 31.5409 107.128 31.7027C107.001 32.0715 106.655 32.303 106.286 32.303Z" fill="#FFE9C8"/>
<path d="M112.712 35.1303C112.343 35.1303 112 34.9006 111.871 34.5336C111.709 34.069 111.955 33.5609 112.418 33.3992C112.458 33.3834 116.435 31.9531 117.253 28.7028C117.375 28.2261 117.853 27.9373 118.335 28.0555C118.812 28.1774 119.103 28.6612 118.983 29.1378C117.926 33.3295 113.204 35.012 113.004 35.0816C112.907 35.1147 112.809 35.1303 112.712 35.1303Z" fill="#FFE9C8"/>
<path d="M118.729 40.9629H118.678C118.186 40.9543 117.796 40.5506 117.803 40.0599C117.81 39.5727 118.207 39.1812 118.694 39.1812H118.713C118.923 39.1812 122.758 39.1429 123.423 36.6287C123.55 36.1553 124.03 35.863 124.512 35.9953C124.987 36.1205 125.271 36.6077 125.146 37.0845C124.15 40.8481 119.311 40.9629 118.729 40.9629Z" fill="#FFE9C8"/>
<path d="M110.56 40.5917C110.56 45.5408 107.848 49.5529 104.503 49.5529C101.158 49.5529 98.4467 45.5408 98.4467 40.5917C98.4467 35.6427 101.158 31.6306 104.503 31.6306C107.848 31.6306 110.56 35.6427 110.56 40.5917Z" fill="#121715"/>
<path d="M36.582 2.33979C37.0096 3.09462 37.437 3.84929 37.8644 4.60412C38.0286 4.89391 38.3435 5.13032 38.6631 5.21824C38.9829 5.30631 39.4088 5.26656 39.6927 5.08358C39.978 4.89956 40.2293 4.62569 40.3069 4.28487C40.3874 3.93126 40.3538 3.5759 40.1721 3.25531C39.7447 2.50048 39.3172 1.74563 38.8898 0.9908C38.7257 0.701008 38.4106 0.464754 38.0912 0.376685C37.7712 0.288617 37.3453 0.328347 37.0615 0.511476C36.7761 0.695348 36.5249 0.969378 36.4474 1.31005C36.3668 1.66381 36.4005 2.01906 36.582 2.33979Z" fill="#121715"/>
<path d="M118.726 100.068C117.151 102.692 115.796 105.429 114.621 108.255C114.352 108.902 114.911 109.752 115.554 109.898C116.335 110.076 116.91 109.658 117.198 108.965C117.318 108.676 117.417 108.446 117.584 108.068C117.722 107.754 117.863 107.441 118.007 107.13C118.305 106.485 118.615 105.845 118.936 105.211C119.589 103.921 120.29 102.656 121.034 101.416C121.394 100.816 121.188 99.9226 120.555 99.5881C119.908 99.2464 119.111 99.427 118.726 100.068Z" fill="#121715"/>
<path d="M71.3997 17.7425C69.8289 20.4881 68.2581 23.2338 66.6873 25.9795C66.34 26.5865 66.5246 27.4686 67.1667 27.8078C67.8023 28.1436 68.6242 27.9765 68.995 27.3285C70.5659 24.5828 72.1367 21.837 73.7075 19.0913C74.0547 18.4843 73.8701 17.6021 73.228 17.263C72.5925 16.9272 71.7706 17.0943 71.3997 17.7425Z" fill="#FFE9C8"/>
<path d="M76.2303 14.9037C77.95 14.9037 77.9528 12.231 76.2303 12.231C74.5106 12.231 74.5078 14.9037 76.2303 14.9037Z" fill="#FFE9C8"/>
<path d="M37.8815 49.3543C34.8439 54.4495 32.0786 59.7007 29.5962 65.0882C29.2944 65.7432 29.4104 66.5275 30.0756 66.9165C30.6519 67.2536 31.6004 67.0956 31.9039 66.4372C34.3865 61.0497 37.1517 55.7985 40.1891 50.7031C41.0721 49.2223 38.7623 47.8766 37.8815 49.3543Z" fill="#FFE9C8"/>
<path d="M33.2722 43.6602C31.68 46.7851 30.0879 49.9099 28.4957 53.0348C28.1681 53.6776 28.3271 54.4843 28.9751 54.8632C29.5712 55.2119 30.4745 55.0292 30.8035 54.3838C32.3955 51.2589 33.9878 48.134 35.58 45.009C35.9074 44.3662 35.7484 43.5598 35.1005 43.1807C34.5044 42.832 33.6011 43.0147 33.2722 43.6602Z" fill="#FFE9C8"/>
<path d="M124.73 143.319C127.678 147.467 130.333 151.813 132.678 156.329C133.471 157.856 135.778 156.506 134.986 154.98C132.641 150.464 129.986 146.118 127.038 141.97C126.62 141.383 125.872 141.104 125.209 141.491C124.628 141.831 124.31 142.728 124.73 143.319Z" fill="#FFE9C8"/>
<path d="M132.33 133.596L145.938 148.222C147.112 149.483 148.999 147.59 147.828 146.332C143.292 141.456 138.755 136.581 134.219 131.706C133.045 130.444 131.158 132.338 132.33 133.596Z" fill="#FFE9C8"/>
<path d="M146.676 124.432C151.555 127.046 156.435 129.66 161.315 132.274C162.831 133.086 164.182 130.78 162.664 129.967C157.784 127.353 152.904 124.738 148.024 122.124C146.509 121.312 145.157 123.619 146.676 124.432Z" fill="#FFE9C8"/>
<path d="M142.81 132.937C142.827 132.944 142.995 133.002 142.994 133.012C142.995 132.998 142.746 132.905 142.95 132.993C143.086 133.053 143.223 133.113 143.358 133.176C143.599 133.287 143.837 133.403 144.073 133.524C144.574 133.781 145.063 134.06 145.539 134.361C145.763 134.503 145.984 134.649 146.202 134.8C146.311 134.875 146.419 134.952 146.526 135.03C146.599 135.082 146.848 135.21 146.885 135.296C146.86 135.238 146.706 135.155 146.851 135.27C146.902 135.311 146.955 135.352 147.006 135.393C147.109 135.476 147.212 135.561 147.313 135.646C147.542 135.837 147.765 136.035 147.984 136.237C148.499 136.71 149.372 136.784 149.874 136.237C150.347 135.722 150.424 134.852 149.874 134.347C148.006 132.629 145.87 131.309 143.521 130.36C143.221 130.239 142.757 130.339 142.491 130.495C142.214 130.657 141.949 130.975 141.877 131.293C141.7 132.067 142.114 132.656 142.81 132.937Z" fill="#FFE9C8"/>
<path d="M129.663 137.304C130.872 138.708 132.082 140.111 133.291 141.514C133.749 142.045 134.718 142.019 135.181 141.514C135.701 140.948 135.67 140.191 135.181 139.624C133.972 138.221 132.762 136.818 131.553 135.414C131.095 134.883 130.127 134.909 129.663 135.414C129.143 135.98 129.174 136.737 129.663 137.304Z" fill="#FFE9C8"/>
<path d="M13.0992 19.5936V35.8024C13.0992 37.2533 15.3542 37.2557 15.3542 35.8024V19.5936C15.3542 18.1425 13.0992 18.1401 13.0992 19.5936Z" fill="#FFE9C8"/>
<path d="M7.45093 27.6296H21.4011C22.8522 27.6296 22.8546 25.3748 21.4011 25.3748H7.45093C5.99989 25.3748 5.99751 27.6296 7.45093 27.6296Z" fill="#FFE9C8"/>
<path d="M6.90138 58.8815C10.1074 58.8815 10.1128 53.8989 6.90138 53.8989C3.69522 53.8989 3.68986 58.8815 6.90138 58.8815Z" fill="#FFE9C8"/>
<path d="M65.3402 128.684C68.5463 128.684 68.5517 123.701 65.3402 123.701C62.1342 123.701 62.1288 128.684 65.3402 128.684Z" fill="#FFE9C8"/>
<path d="M26.3811 127.06C29.5871 127.06 29.5924 122.078 26.3811 122.078C23.1749 122.078 23.1697 127.06 26.3811 127.06Z" fill="#FFE9C8"/>
<path d="M84.82 145.785C91.2322 145.785 91.2427 135.819 84.82 135.819C78.4077 135.819 78.3971 145.785 84.82 145.785Z" fill="#FFE9C8"/>
<path d="M5.27812 111.695C11.6903 111.695 11.7009 101.73 5.27812 101.73C-1.13406 101.73 -1.14477 111.695 5.27812 111.695Z" fill="#FFE9C8"/>
</svg>
