<svg width="184" height="309" viewBox="0 0 184 309" fill="none" xmlns="http://www.w3.org/2000/svg">
<path d="M109.883 84.3222C109.883 84.3222 97.7793 88.0056 92.6498 101.686C87.5203 115.367 97.5178 146.412 127.774 139.572C158.029 132.731 146.132 111.947 143.793 104.58C141.455 97.2137 143.559 90.8997 138.034 87.2163C132.509 83.5329 139.613 74.5877 140.139 69.3259C140.665 64.0639 135.666 59.3283 130.931 50.6463C126.195 41.9641 123.038 36.1761 127.774 26.9678C127.774 26.9678 114.093 34.0714 117.25 50.6463C120.407 67.2212 126.649 73.2723 119.713 79.0604C112.777 84.8483 109.883 84.3222 109.883 84.3222Z" fill="#121715" stroke="#FFE9C8" stroke-miterlimit="10"/>
<path d="M120.933 329.263C171.499 329.263 212.49 320.958 212.49 310.715C212.49 300.471 171.499 292.167 120.933 292.167C70.368 292.167 29.3766 300.471 29.3766 310.715C29.3766 320.958 70.368 329.263 120.933 329.263Z" fill="#121715" stroke="#FFE9C8" stroke-miterlimit="10"/>
<path d="M124.617 145.36C124.617 145.36 111.988 144.045 99.6226 143.782C87.2572 143.519 84.1002 143.256 83.0477 159.041C81.9954 174.827 85.4156 187.192 83.0477 202.452C80.68 217.711 86.4679 216.396 86.4679 216.396V305.848C86.4679 305.848 94.3608 316.634 123.038 315.582C151.715 314.53 154.609 305.321 154.609 305.321V194.296C154.609 194.296 156.977 197.716 159.871 195.611C162.765 193.506 160.66 180.878 159.871 170.354C159.082 159.831 159.871 149.307 156.977 144.834C154.083 140.362 141.718 143.519 124.617 145.36Z" fill="#FFE9C8"/>
<path d="M92.5193 182.193C92.9385 185.324 93.2204 188.438 93.3632 191.549C93.5479 194.659 93.5564 197.763 93.6296 200.873C93.6885 203.983 93.8315 207.16 93.195 210.382C92.8702 211.971 92.2576 213.647 91.0164 214.872C89.755 216.084 88.0272 216.54 86.468 216.395C88.0022 216.053 89.4436 215.376 90.2175 214.169C91.0459 213.028 91.3622 211.582 91.5217 210.116C91.7767 207.15 91.5622 204.056 91.4606 200.94C91.4431 194.687 91.6771 188.408 92.5193 182.193Z" fill="#121715"/>
<path d="M99.6227 171.932C102.024 171.533 104.825 172.201 106.44 174.294C108.115 176.347 108.265 179.121 108.274 181.565C108.193 186.519 107.899 191.439 107.876 196.349C107.87 198.802 107.886 201.252 108.03 203.673C108.192 206.076 108.434 208.531 109.204 210.654C109.556 211.795 110.141 212.513 110.926 213.044C111.885 213.613 112.935 214.007 113.904 214.007C114.869 214.006 115.705 213.64 116.296 212.879C116.881 212.116 117.25 211.077 117.41 209.971C117.781 207.757 117.45 205.358 117.216 202.888L116.474 195.521C116.042 190.595 115.546 185.654 115.725 180.647C115.854 178.15 115.93 175.614 116.954 173.099C117.463 171.886 118.493 170.634 119.96 170.282C121.4 169.926 122.851 170.374 123.928 171.142C125.014 171.919 125.889 172.979 126.34 174.251C126.562 174.866 126.587 175.648 126.541 176.216C126.499 176.794 126.584 177.378 126.752 177.933C127.08 179.035 127.877 180.064 129.003 180.407C130.146 180.758 131.39 180.166 132.246 179.299C131.476 180.226 130.256 180.997 128.924 180.725C127.625 180.429 126.658 179.327 126.209 178.122C125.979 177.514 125.842 176.863 125.843 176.208C125.845 175.541 125.784 175.08 125.571 174.533C125.127 173.501 124.302 172.622 123.345 172.033C122.399 171.424 121.248 171.172 120.29 171.459C119.322 171.728 118.605 172.602 118.211 173.649C117.44 175.754 117.405 178.269 117.395 180.669C117.48 185.532 117.907 190.434 118.44 195.32L119.279 202.666C119.529 205.086 119.96 207.638 119.549 210.324C119.331 211.645 118.882 213.022 117.945 214.211C117.021 215.423 115.368 216.143 113.872 216.077C112.361 216.041 111.04 215.472 109.896 214.784C108.622 213.982 107.689 212.575 107.355 211.341C106.482 208.802 106.304 206.276 106.158 203.774C106.018 201.269 106.099 198.782 106.214 196.305C106.442 191.352 106.918 186.433 107.216 181.528C107.365 179.138 107.38 176.602 105.982 174.637C104.65 172.661 102.062 171.763 99.6227 171.932Z" fill="#121715"/>
<path d="M135.667 199.295C135.665 200.968 135.796 202.686 136.362 204.201C136.651 204.942 137.116 205.624 137.752 205.868C138.369 206.115 139.176 205.938 139.733 205.595C140.858 204.898 140.829 203.069 140.728 201.495C140.61 199.865 140.35 198.206 140.11 196.542C139.59 193.21 139.221 189.836 139.077 186.409C139.01 184.692 139.055 182.963 139.252 181.226C139.452 179.491 139.767 177.739 140.51 176.021C140.879 175.17 141.391 174.312 142.199 173.592C142.971 172.86 144.276 172.398 145.422 172.659C146.015 172.767 146.464 172.961 146.965 173.304C147.495 173.643 147.813 174.085 148.13 174.529C148.633 175.425 148.953 176.336 149.109 177.221C149.746 180.766 149.574 184.159 149.343 187.542L148.492 197.603C148.378 199.258 148.286 200.942 148.568 202.544C148.728 203.294 148.967 204.205 149.7 204.411C150.433 204.622 151.276 204.177 151.979 203.767C151.322 204.253 150.59 204.848 149.624 204.731C148.601 204.516 148.266 203.453 148.009 202.681C147.542 200.992 147.478 199.274 147.428 197.574L147.674 187.471C147.669 184.147 147.787 180.741 147.102 177.668C146.941 176.9 146.672 176.213 146.355 175.644C146.021 175.122 145.613 174.881 145.031 174.745C144.061 174.504 143.069 175.501 142.489 176.909C141.302 179.708 141.097 183.107 141.126 186.366C141.143 189.671 141.484 192.999 141.762 196.349C141.903 198.028 142.069 199.712 142.093 201.445C142.117 202.306 142.056 203.2 141.888 204.101C141.705 204.984 141.211 206.03 140.265 206.51C139.367 206.936 138.335 207.059 137.408 206.607C136.493 206.125 136.061 205.209 135.82 204.385C135.351 202.685 135.438 200.961 135.667 199.295Z" fill="#121715"/>
<path d="M128.563 222.71C129.204 225.968 129.56 229.274 129.651 232.594C129.75 235.915 129.625 239.253 129.101 242.588C128.835 244.275 128.365 245.906 128.079 247.43C127.741 248.988 127.566 250.573 127.514 252.142C127.496 253.687 127.588 255.332 128.317 256.539C128.666 257.129 129.261 257.505 130.014 257.449C130.767 257.426 131.511 257.022 132.246 256.649C131.646 257.205 131.006 257.814 130.104 258.017C129.229 258.297 128.116 257.938 127.482 257.2C126.25 255.705 125.972 253.891 125.821 252.193C125.666 250.47 125.817 248.761 126.053 247.08C126.316 245.359 126.75 243.812 126.959 242.24C127.5 239.075 127.718 235.82 127.964 232.564L128.563 222.71Z" fill="#121715"/>
<path d="M99.6227 151.148C103.371 152.231 107.189 152.807 110.994 153.258C114.808 153.66 118.633 153.853 122.46 153.793C124.371 153.716 126.29 153.724 128.197 153.52L131.066 153.305L133.928 152.965C137.75 152.511 141.547 151.822 145.401 151.148C143.597 151.886 141.758 152.557 139.9 153.183C138.013 153.684 136.141 154.316 134.204 154.637C130.367 155.505 126.426 155.816 122.492 155.963C118.553 155.981 114.604 155.688 110.738 154.927C106.881 154.181 103.067 153.016 99.6227 151.148Z" fill="#121715"/>
<path d="M120.695 121.682V154.89C120.695 157.228 124.329 157.232 124.329 154.89V121.682C124.329 119.343 120.695 119.34 120.695 121.682Z" fill="#FFE9C8"/>
<path d="M142.634 270.112V280.488C142.634 282.191 144.132 283.823 145.891 283.745C147.656 283.666 149.148 282.313 149.148 280.488V270.112C149.148 268.408 147.65 266.776 145.891 266.855C144.126 266.934 142.634 268.286 142.634 270.112Z" fill="#121715"/>
<path d="M144.948 303.552C149.139 303.552 149.146 297.038 144.948 297.038C140.756 297.038 140.749 303.552 144.948 303.552Z" fill="#121715"/>
<path d="M95.4722 237.099V241.815C95.4722 242.65 95.8355 243.527 96.4263 244.118C96.9911 244.683 97.918 245.108 98.7293 245.072C99.5718 245.034 100.445 244.758 101.032 244.118C101.617 243.481 101.986 242.697 101.986 241.815V237.099C101.986 236.264 101.623 235.386 101.032 234.796C100.468 234.231 99.5406 233.805 98.7293 233.842C97.8868 233.879 97.0133 234.156 96.4263 234.796C95.8413 235.433 95.4722 236.216 95.4722 237.099Z" fill="#121715"/>
<path d="M98.2094 114.484C98.8361 116.057 99.4627 117.63 100.089 119.203C100.19 119.627 100.384 119.996 100.672 120.31C100.902 120.665 101.207 120.945 101.586 121.149C101.96 121.387 102.364 121.516 102.797 121.536C103.23 121.633 103.663 121.613 104.096 121.478C104.884 121.223 105.644 120.734 106.043 119.981C106.152 119.721 106.261 119.462 106.371 119.203C106.526 118.625 106.526 118.048 106.371 117.471C105.744 115.898 105.117 114.325 104.491 112.752C104.39 112.328 104.196 111.959 103.908 111.645C103.678 111.29 103.374 111.01 102.994 110.806C102.62 110.568 102.217 110.439 101.783 110.419C101.35 110.322 100.917 110.342 100.484 110.477C99.6962 110.732 98.9358 111.221 98.5377 111.974C98.4284 112.233 98.3189 112.493 98.2094 112.752C98.0542 113.329 98.0542 113.907 98.2094 114.484Z" fill="#FFE9C8"/>
<path d="M110.048 102.643C114.24 102.643 114.247 96.1294 110.048 96.1294C105.857 96.1294 105.85 102.643 110.048 102.643Z" fill="#FFE9C8"/>
<path d="M145.993 97.2158L147.855 101.001C148.059 101.38 148.339 101.685 148.694 101.915C149.008 102.203 149.377 102.397 149.801 102.498C150.234 102.633 150.667 102.653 151.1 102.556C151.534 102.536 151.937 102.407 152.311 102.169C153.007 101.721 153.619 101.053 153.808 100.223C153.847 99.9342 153.886 99.6455 153.924 99.3569C153.922 98.7691 153.774 98.221 153.48 97.713C152.859 96.4513 152.238 95.1896 151.618 93.9282C151.413 93.5485 151.133 93.2439 150.778 93.0142C150.464 92.7263 150.095 92.5321 149.671 92.4313C149.238 92.2956 148.805 92.2761 148.372 92.373C147.939 92.3927 147.535 92.5216 147.161 92.7596C146.466 93.208 145.854 93.8757 145.664 94.7062C145.626 94.9947 145.587 95.2833 145.548 95.5721C145.55 96.1599 145.698 96.7078 145.993 97.2158Z" fill="#FFE9C8"/>
<path d="M47.8859 39.676C52.6186 47.5262 57.3513 55.3764 62.0842 63.2268C62.9915 64.732 65.0077 65.2919 66.5404 64.3952C68.0469 63.5141 68.6206 61.4512 67.7088 59.9389C62.9761 52.0887 58.2434 44.2383 53.5108 36.3881C52.6034 34.8827 50.5872 34.323 49.0545 35.2195C47.548 36.1006 46.9743 38.1637 47.8859 39.676Z" fill="#FFE9C8"/>
<path d="M70.0432 30.4817C70.9759 33.001 71.9085 35.5202 72.8412 38.0395C73.1418 38.8512 73.5691 39.5359 74.3381 39.9859C75.0361 40.3944 76.0651 40.5675 76.8478 40.3144C77.636 40.0593 78.3963 39.5707 78.7944 38.8175C79.1837 38.0805 79.4238 37.1208 79.1227 36.3076C78.1901 33.7883 77.2574 31.2693 76.3246 28.75C76.0241 27.9383 75.5968 27.2536 74.8279 26.8034C74.1298 26.3949 73.1008 26.2218 72.3181 26.4752C71.53 26.7302 70.7696 27.2186 70.3715 27.972C69.9822 28.7088 69.742 29.6685 70.0432 30.4817Z" fill="#FFE9C8"/>
<path d="M87.4278 13.31C88.6854 15.8252 89.9432 18.3404 91.2008 20.8558C91.5521 21.5587 92.4093 22.1493 93.1474 22.3527C93.9269 22.5674 94.9651 22.4703 95.6571 22.0242C96.3527 21.576 96.9648 20.9083 97.1539 20.0778C97.3558 19.1914 97.2336 18.3839 96.8257 17.568C95.5681 15.0527 94.3103 12.5373 93.0527 10.0221C92.7014 9.31924 91.8441 8.72845 91.106 8.52525C90.3265 8.31053 89.2884 8.40742 88.5964 8.85351C87.9008 9.30195 87.2886 9.96961 87.0995 10.8001C86.8976 11.6865 87.0199 12.4938 87.4278 13.31Z" fill="#FFE9C8"/>
<path d="M153.451 2.382C151.512 11.1671 148.674 19.7434 144.876 27.9016C144.134 29.4954 144.428 31.4124 146.044 32.3581C147.454 33.1824 149.755 32.7916 150.501 31.1895C154.54 22.5139 157.67 13.4607 159.732 4.11366C160.111 2.39737 159.215 0.589939 157.457 0.107131C155.826 -0.341312 153.831 0.656524 153.451 2.382Z" fill="#FFE9C8"/>
<path d="M184.545 19.431C179.116 27.8379 174.385 36.6708 170.394 45.8482C169.693 47.4601 169.918 49.3429 171.562 50.3044C172.94 51.1104 175.313 50.7578 176.019 49.136C180.009 39.9586 184.741 31.1257 190.169 22.7189C191.124 21.2405 190.471 19.1223 189.001 18.2624C187.422 17.3388 185.502 17.9491 184.545 19.431Z" fill="#FFE9C8"/>
<path d="M163.396 29.1704C162.767 29.7992 162.138 30.428 161.509 31.057C161.192 31.352 160.967 31.7014 160.836 32.1053C160.632 32.4933 160.538 32.9116 160.555 33.3601C160.538 33.8085 160.632 34.2269 160.836 34.6149C160.967 35.0188 161.192 35.3682 161.509 35.6631C161.729 35.833 161.949 36.0027 162.168 36.1724C162.677 36.4672 163.224 36.6153 163.812 36.6172C164.101 36.5784 164.39 36.5395 164.678 36.5009C165.23 36.3461 165.709 36.067 166.116 35.6631L168.002 33.7767C168.32 33.4818 168.544 33.1324 168.675 32.7285C168.879 32.3403 168.973 31.9221 168.956 31.4737C168.973 31.0252 168.879 30.6069 168.675 30.2186C168.544 29.8148 168.32 29.4654 168.002 29.1704C167.782 29.0007 167.562 28.831 167.343 28.6611C166.835 28.3666 166.287 28.2183 165.699 28.2166C165.41 28.2552 165.122 28.294 164.833 28.3329C164.281 28.4876 163.802 28.7668 163.396 29.1704Z" fill="#FFE9C8"/>
<path d="M123.804 7.941C123.47 8.87738 123.136 9.81354 122.802 10.7497C122.666 11.1828 122.647 11.6156 122.744 12.0485C122.763 12.482 122.892 12.8856 123.13 13.2596C123.335 13.6391 123.614 13.9437 123.969 14.1733C124.284 14.4613 124.653 14.6557 125.077 14.7564C125.365 14.7951 125.654 14.8339 125.943 14.8728C126.531 14.8709 127.079 14.7227 127.587 14.428C127.806 14.2583 128.026 14.0886 128.246 13.9187C128.649 13.5123 128.929 13.0333 129.084 12.4816C129.418 11.5452 129.752 10.609 130.086 9.67288C130.221 9.23981 130.241 8.80695 130.144 8.37409C130.124 7.94059 129.995 7.53697 129.757 7.16302C129.552 6.78352 129.273 6.47893 128.918 6.24927C128.604 5.96133 128.234 5.76689 127.811 5.66614C127.522 5.62751 127.233 5.58865 126.945 5.5498C126.357 5.55173 125.809 5.69986 125.301 5.99463C125.081 6.16432 124.861 6.33401 124.642 6.50391C124.238 6.9103 123.959 7.38926 123.804 7.941Z" fill="#FFE9C8"/>
<path d="M38.889 76.2222C41.8866 79.315 45.3057 82.0321 48.9805 84.2773C50.4362 85.1667 52.6261 84.6434 53.4368 83.1089C54.2752 81.5222 53.8223 79.6019 52.2684 78.6525C50.7841 77.7458 49.3513 76.7611 47.9721 75.7012C48.1919 75.8711 48.4115 76.0408 48.6314 76.2105C46.812 74.8022 45.0965 73.2682 43.4953 71.6159C42.3073 70.3903 40.0663 70.3335 38.889 71.6159C37.68 72.9331 37.6215 74.9144 38.889 76.2222Z" fill="#FFE9C8"/>
<path d="M15.9674 87.1074C19.7404 89.9371 23.5132 92.7669 27.2862 95.5965C27.9178 96.0701 29.0721 96.1241 29.7961 95.9248C30.5515 95.7167 31.3702 95.1327 31.7425 94.4279C32.1418 93.6721 32.342 92.7564 32.071 91.9182C31.7933 91.0604 31.2904 90.5089 30.5741 89.9716C26.8011 87.142 23.0283 84.3122 19.2553 81.4826C18.6237 81.009 17.4693 80.955 16.7456 81.1541C15.99 81.3622 15.1712 81.9464 14.799 82.651C14.3996 83.407 14.1994 84.3227 14.4707 85.1608C14.7482 86.0187 15.2511 86.5702 15.9674 87.1074Z" fill="#FFE9C8"/>
<path d="M166.642 240.356C170.834 240.356 170.841 233.841 166.642 233.841C162.451 233.841 162.444 240.356 166.642 240.356Z" fill="#FFE9C8"/>
<path d="M54.3975 287.517C58.5891 287.517 58.5959 281.003 54.3975 281.003C50.2059 281.003 50.1989 287.517 54.3975 287.517Z" fill="#FFE9C8"/>
<path d="M23.4496 297.349C22.9124 297.608 22.4001 297.915 21.9216 298.272C21.249 298.772 20.588 299.284 20.0129 299.896C19.4428 300.503 18.9233 301.174 18.4693 301.871C17.9993 302.593 17.6749 303.369 17.3443 304.163C17.2085 304.596 17.1891 305.029 17.286 305.462C17.3059 305.896 17.4346 306.299 17.6725 306.673C18.0681 307.349 18.8427 307.993 19.6192 308.17C20.4529 308.36 21.3888 308.319 22.129 307.842C22.3486 307.672 22.5685 307.502 22.7882 307.332C23.1918 306.926 23.4712 306.447 23.6259 305.895C23.6353 305.872 23.6449 305.849 23.6545 305.826C23.545 306.086 23.4355 306.345 23.326 306.604C23.6383 305.871 24.0412 305.185 24.5249 304.552C24.3552 304.771 24.1855 304.991 24.0156 305.211C24.5196 304.562 25.1004 303.981 25.7497 303.477C25.53 303.647 25.3102 303.816 25.0905 303.986C25.6049 303.594 26.1546 303.255 26.7375 302.974C27.117 302.769 27.4218 302.489 27.6514 302.135C27.9391 301.82 28.1336 301.451 28.2343 301.027C28.3701 300.594 28.3895 300.161 28.2924 299.729C28.2727 299.295 28.144 298.891 27.906 298.518C27.4576 297.822 26.79 297.21 25.9595 297.021C25.6709 296.982 25.3821 296.943 25.0935 296.904C24.5057 296.906 23.9576 297.054 23.4496 297.349Z" fill="#FFE9C8"/>
<path d="M22.3275 225.264C26.5192 225.264 26.526 218.75 22.3275 218.75C18.136 218.75 18.1289 225.264 22.3275 225.264Z" fill="#FFE9C8"/>
<path d="M54.3975 203.569C58.5891 203.569 58.5959 197.055 54.3975 197.055C50.2059 197.055 50.1989 203.569 54.3975 203.569Z" fill="#FFE9C8"/>
<path d="M27.9869 154.522C32.1785 154.522 32.1853 148.007 27.9869 148.007C23.7953 148.007 23.7883 154.522 27.9869 154.522Z" fill="#FFE9C8"/>
<path d="M6.29259 193.621C14.6758 193.621 14.6896 180.593 6.29259 180.593C-2.09059 180.593 -2.10446 193.621 6.29259 193.621Z" fill="#FFE9C8"/>
<path d="M46.8515 146.46C55.2346 146.46 55.2487 133.431 46.8515 133.431C38.4685 133.431 38.4544 146.46 46.8515 146.46Z" fill="#FFE9C8"/>
</svg>
