<svg width="157" height="150" viewBox="0 0 157 150" fill="none" xmlns="http://www.w3.org/2000/svg">
<path d="M161.582 51.7422C167.452 26.5538 151.791 1.37611 126.603 -4.49375C101.414 -10.3636 76.2365 5.29715 70.3666 30.4856C64.4967 55.674 80.1575 80.8517 105.346 86.7216C130.534 92.5914 155.712 76.9306 161.582 51.7422Z" stroke="#FFE9C8" stroke-miterlimit="10"/>
<path d="M145.62 41.1138C143.658 47.464 139.694 53.2959 134.267 57.3805C131.582 59.4427 128.512 61.062 125.25 62.0275C123.653 62.6425 121.957 62.8566 120.294 63.2179C118.617 63.4658 116.915 63.5575 115.223 63.6655C111.837 63.5716 108.415 63.3104 105.158 62.2631C101.877 61.3655 98.7611 59.7986 96.0823 57.7135C93.3821 55.652 91.0626 53.1204 89.234 50.2957C87.4709 47.4363 86.037 44.3606 85.2895 41.1138C86.4128 44.2386 87.9811 47.1796 89.9377 49.8122C91.8593 52.4671 94.2072 54.7978 96.875 56.6337C102.152 60.4408 108.735 62.0219 115.203 61.9262C121.683 61.9139 128.178 60.0676 133.481 56.3034C136.159 54.4689 138.554 52.1881 140.566 49.5951C142.621 47.0333 144.318 44.1684 145.62 41.1138Z" fill="#FFE9C8"/>
<path d="M85.2895 41.114C89.2182 37.2646 93.9937 34.2736 99.1126 32.1274C104.232 29.9572 109.827 28.8252 115.42 28.8741C116.821 28.7853 118.21 28.9654 119.6 29.1243C120.984 29.304 122.395 29.3357 123.736 29.7514L127.795 30.7708C129.114 31.2108 130.391 31.7799 131.679 32.2976L133.605 33.0884C134.234 33.3774 134.82 33.7575 135.428 34.0872L139.035 36.137C140.235 36.8187 141.259 37.7757 142.374 38.5783C143.471 39.4105 144.552 40.258 145.62 41.114C143.227 39.7433 141.008 38.1403 138.601 36.8723L134.943 35.0742C134.329 34.7865 133.739 34.4482 133.109 34.2027L131.188 33.5437C129.903 33.1226 128.643 32.6343 127.36 32.2332L123.416 31.3688C122.116 30.9997 120.763 30.973 119.431 30.8174C118.095 30.6765 116.761 30.516 115.416 30.6146C110.048 30.525 104.682 31.5554 99.5938 33.371C98.3327 33.8532 97.0779 34.3651 95.8242 34.8816C94.6175 35.4951 93.3644 36.0332 92.187 36.7114C89.7631 37.9563 87.4813 39.4634 85.2895 41.114Z" fill="#FFE9C8"/>
<path d="M145.62 41.1138C145.62 41.1138 139.034 21.3813 115.454 19.8943C115.454 19.8943 91.6624 20.9093 85.2893 41.1138C85.2893 41.1138 112.693 15.3862 145.62 41.1138Z" fill="#FFE9C8"/>
<path d="M102.228 31.7456C100.361 34.3861 99.2536 37.6018 99.2536 41.0818C99.2536 50.0291 106.507 57.2826 115.454 57.2826C124.402 57.2826 131.655 50.0291 131.655 41.0818C131.655 37.6653 130.592 34.5004 128.787 31.8875C118.588 28.5422 109.461 29.4663 102.228 31.7456Z" fill="#FFE9C8"/>
<path d="M89.722 32.5477L84.4397 25.3115" stroke="#FFE9C8" stroke-miterlimit="10"/>
<path d="M98.5485 24.9863L95.2736 17.9829" stroke="#FFE9C8" stroke-miterlimit="10"/>
<path d="M115.454 19.8947L113.914 12.7251" stroke="#FFE9C8" stroke-miterlimit="10"/>
<path d="M127.803 22.7467L130.803 16.3098" stroke="#FFE9C8" stroke-miterlimit="10"/>
<path d="M138.862 30.5043L144.186 25.3115" stroke="#FFE9C8" stroke-miterlimit="10"/>
<path d="M86.3515 58.4507L93.6804 65.3017L84.4397 68.8067L86.3515 58.4507Z" fill="#FFE9C8"/>
<path d="M100.136 69.1204L109.664 72.2615L102.749 79.3221L100.136 69.1204Z" fill="#FFE9C8"/>
<path d="M120.404 72.4079L129.953 69.3315L128.526 79.1111L120.404 72.4079Z" fill="#FFE9C8"/>
<path d="M145.55 58.4507L138.221 65.3017L147.461 68.8067L145.55 58.4507Z" fill="#FFE9C8"/>
<path d="M124.676 -4.90729C129.284 -4.03502 133.838 -2.45565 138.187 -0.112816C139.965 0.845299 141.645 1.91238 143.247 3.05684C143.244 2.90519 143.253 2.77326 143.246 2.61298C142.615 -12.3395 147.23 -17.5465 155.515 -26.2054C163.8 -34.8643 164.895 -59.0649 164.895 -59.0649C160.532 -46.9372 149.631 -35.437 137.596 -28.8908C125.561 -22.3448 124.675 -4.90908 124.675 -4.90908L124.676 -4.90729Z" fill="#FFE9C8"/>
<path d="M145.464 4.72702C149.106 7.68053 152.367 11.231 155.084 15.3562C156.195 17.0431 157.168 18.7796 158.035 20.5467C158.105 20.4119 158.174 20.2999 158.245 20.1555C164.782 6.69305 171.315 4.29796 182.715 0.604929C194.116 -3.08843 206.558 -23.8743 206.558 -23.8743C196.965 -15.2669 181.913 -10.3134 168.214 -10.2588C154.514 -10.2044 145.463 4.72474 145.463 4.72474L145.464 4.72702Z" fill="#FFE9C8"/>
<path d="M162.583 45.7275C162.12 50.3943 160.948 55.0699 158.998 59.6078C158.2 61.4636 157.285 63.2316 156.286 64.9274C156.437 64.9118 156.569 64.9084 156.728 64.8875C171.567 62.942 177.16 67.0805 186.515 74.5702C195.871 82.06 220.073 81.018 220.073 81.018C207.609 77.741 195.193 67.8951 187.612 56.4838C180.031 45.0725 162.585 45.7259 162.585 45.7259L162.583 45.7275Z" fill="#FFE9C8"/>
<path d="M154.818 67.283C152.197 71.1717 148.948 74.732 145.078 77.8018C143.495 79.0572 141.851 80.1796 140.168 81.1987C140.308 81.2565 140.426 81.3163 140.576 81.3733C154.562 86.6988 157.523 92.9953 162.206 104.026C166.89 115.057 188.691 125.62 188.691 125.62C179.272 116.822 173.011 102.265 171.75 88.6238C170.489 74.9822 154.82 67.2822 154.82 67.2822L154.818 67.283Z" fill="#FFE9C8"/>
<path d="M137.758 82.5767C133.606 84.7568 129.057 86.3498 124.194 87.2169C122.205 87.5713 120.226 87.7798 118.26 87.8782C118.356 87.9958 118.431 88.1041 118.536 88.2255C128.323 99.5478 127.943 106.495 126.834 118.428C125.725 130.361 139.907 150 139.907 150C135.788 137.788 137.182 122.003 142.542 109.395C147.902 96.7874 137.76 82.577 137.76 82.577L137.758 82.5767Z" fill="#FFE9C8"/>
<path d="M115.485 87.9481C110.796 87.8979 106.035 87.1425 101.343 85.5993C99.4241 84.9681 97.5824 84.2127 95.8051 83.3669C95.8341 83.516 95.849 83.6471 95.8838 83.8038C99.1292 98.4133 95.4996 104.35 88.8631 114.328C82.2269 124.307 85.397 148.324 85.397 148.324C87.5633 135.619 96.2769 122.384 106.976 113.827C117.675 105.27 115.487 87.9495 115.487 87.9495L115.485 87.9481Z" fill="#FFE9C8"/>
<path d="M93.3294 82.1126C89.2249 79.8443 85.3919 76.9211 81.9933 73.3369C80.6033 71.8712 79.3405 70.3326 78.1769 68.7449C78.1317 68.8898 78.0826 69.0125 78.0389 69.1669C73.9664 83.5678 67.9553 87.0724 57.3799 92.7092C46.8044 98.3461 38.2035 120.993 38.2035 120.993C46.1369 110.836 60.0856 103.317 73.5632 100.859C87.0407 98.4007 93.3302 82.1147 93.3302 82.1147L93.3294 82.1126Z" fill="#FFE9C8"/>
<path d="M76.5923 66.466C74.0548 62.5221 72.0671 58.1308 70.7751 53.3633C70.2466 51.4137 69.8647 49.4602 69.5935 47.5107C69.4848 47.6168 69.3835 47.7015 69.2719 47.8167C58.8559 58.5628 51.9017 58.7968 39.9179 58.7431C27.9342 58.6895 9.6203 74.5473 9.6203 74.5473C21.4225 69.3681 37.2684 69.3654 50.2995 73.5939C63.3303 77.8223 76.5922 66.4683 76.5922 66.4683L76.5923 66.466Z" fill="#FFE9C8"/>
<path d="M69.2794 44.7531C68.916 40.0775 69.2491 35.2688 70.3729 30.4589C70.8326 28.4918 71.4229 26.5909 72.1088 24.7459C71.9628 24.7879 71.8335 24.8143 71.6805 24.8628C57.4135 29.3827 51.1804 26.2902 40.656 20.5588C30.1315 14.8274 6.48729 20.1013 6.48729 20.1013C19.3339 21.1397 33.2852 28.6532 42.7514 38.5568C52.2175 48.4603 69.2781 44.7549 69.2781 44.7549L69.2794 44.7531Z" fill="#FFE9C8"/>
<path d="M73.1403 22.1693C75.0381 17.8809 77.6122 13.8054 80.883 10.104C82.2207 8.59032 83.642 7.19683 85.1209 5.89795C84.9725 5.8657 84.8461 5.82759 84.6885 5.79778C69.9848 3.00977 65.9643 -2.66926 59.4176 -12.7068C52.8708 -22.7446 29.554 -29.3167 29.554 -29.3167C40.3711 -22.3091 49.0891 -9.07699 52.7253 4.13155C56.3615 17.3401 73.1383 22.1702 73.1383 22.1702L73.1403 22.1693Z" fill="#FFE9C8"/>
<path d="M87.2511 4.11868C90.956 1.24352 95.1552 -1.12328 99.7902 -2.83036C101.686 -3.52851 103.598 -4.08121 105.516 -4.52313C105.401 -4.62185 105.308 -4.71548 105.183 -4.81647C93.561 -14.2452 92.7151 -21.1517 91.7129 -33.0936C90.7104 -45.0355 73.3008 -61.8809 73.3008 -61.8809C79.4997 -50.5811 80.8985 -34.7969 77.8345 -21.4441C74.7706 -8.09123 87.2489 4.11848 87.2489 4.11848L87.2511 4.11868Z" fill="#FFE9C8"/>
<path d="M127.424 39.4433C127.424 41.6781 125.613 43.4897 123.378 43.4897C121.143 43.4897 119.331 41.6781 119.331 39.4433C119.331 37.2084 121.143 35.3967 123.378 35.3967C125.613 35.3967 127.424 37.2084 127.424 39.4433Z" fill="#133029"/>
<path d="M27.4851 143.744C30.8466 143.744 30.8521 138.519 27.4851 138.519C24.1237 138.519 24.1181 143.744 27.4851 143.744Z" fill="#FFE9C8"/>
<path d="M9.33106 93.8195C12.6925 93.8195 12.698 88.5955 9.33106 88.5955C5.96953 88.5955 5.96398 93.8195 9.33106 93.8195Z" fill="#FFE9C8"/>
<path d="M2.52324 34.8185C5.88463 34.8185 5.89016 29.5945 2.52324 29.5945C-0.83831 29.5945 -0.843848 34.8185 2.52324 34.8185Z" fill="#FFE9C8"/>
<path d="M71.7359 140.683C78.4587 140.683 78.4698 130.234 71.7359 130.234C65.013 130.234 65.0019 140.683 71.7359 140.683Z" fill="#FFE9C8"/>
<path d="M22.9466 51.0464C29.6694 51.0464 29.6807 40.5981 22.9466 40.5981C16.2237 40.5981 16.2126 51.0464 22.9466 51.0464Z" fill="#FFE9C8"/>
<path d="M144.353 133.874C151.075 133.874 151.086 123.426 144.353 123.426C137.63 123.426 137.619 133.874 144.353 133.874Z" fill="#FFE9C8"/>
<path d="M151.712 30.4104C152.218 32.5502 152.723 34.69 153.228 36.8297C153.464 37.8279 154.657 38.5154 155.638 38.198C156.679 37.8613 157.259 36.8575 157.006 35.7882C156.501 33.6485 155.996 31.5085 155.491 29.3688C155.255 28.3706 154.062 27.6831 153.081 28.0006C152.04 28.3373 151.46 29.341 151.712 30.4104Z" fill="#FFE9C8"/>
<path d="M151.56 24.6587C154.081 24.6587 154.086 20.7407 151.56 20.7407C149.039 20.7407 149.035 24.6587 151.56 24.6587Z" fill="#FFE9C8"/>
<path d="M93.3996 6.24639L90.1939 8.23678C89.7683 8.50114 89.428 8.91974 89.2936 9.40759C89.1644 9.87639 89.2227 10.5009 89.491 10.9171C89.7608 11.3354 90.1623 11.7035 90.6619 11.8174C91.1684 11.9327 91.7187 11.901 92.1714 11.62L95.377 9.6296C95.8027 9.36523 96.143 8.94663 96.2773 8.45878C96.4065 7.98982 96.3482 7.36547 96.0797 6.94929C95.8102 6.53099 95.4087 6.16285 94.9091 6.04899C94.4025 5.93367 93.8523 5.96541 93.3996 6.24639Z" fill="#FFE9C8"/>
<path d="M63.3789 3.69096C64.5903 4.87908 65.8017 6.06718 67.0132 7.25546C67.3741 7.60942 67.8911 7.82916 68.3984 7.82916C68.8789 7.82916 69.4529 7.61577 69.7836 7.25546C70.1263 6.88212 70.3807 6.39203 70.3574 5.8703C70.3343 5.35345 70.161 4.85497 69.7836 4.48488C68.5723 3.29677 67.3609 2.10865 66.1495 0.920531C65.7885 0.566572 65.2715 0.34668 64.7641 0.34668C64.2838 0.34668 63.7097 0.560057 63.3789 0.920531C63.0362 1.29387 62.7818 1.78401 62.8052 2.30575C62.8283 2.82243 63.0017 3.32088 63.3789 3.69096Z" fill="#133029"/>
<path d="M103.709 100.578C103.575 101.409 103.379 102.227 103.111 103.026C103.042 103.231 102.969 103.435 102.892 103.637C102.858 103.726 102.822 103.816 102.786 103.905C102.612 104.345 102.906 103.653 102.787 103.902C102.599 104.292 102.42 104.684 102.211 105.065C102.015 105.423 101.804 105.773 101.58 106.115C101.461 106.296 101.339 106.474 101.213 106.65C101.157 106.728 101.098 106.804 101.042 106.883C100.903 107.079 101.273 106.6 101.04 106.885C100.49 107.557 99.9009 108.185 99.2521 108.762C98.4842 109.446 98.5034 110.846 99.2521 111.533C100.072 112.285 101.203 112.262 102.023 111.533C104.88 108.99 106.88 105.399 107.487 101.619C107.649 100.611 107.227 99.462 106.118 99.2093C105.178 98.9949 103.882 99.4955 103.709 100.578Z" fill="#133029"/>
<path d="M80.173 89.6996C80.0008 89.861 79.8216 90.0138 79.6351 90.1586C79.7674 90.0565 79.8995 89.9544 80.0316 89.8523C79.5437 90.2258 79.0129 90.5359 78.4478 90.7773C78.6039 90.7115 78.7597 90.6457 78.9158 90.5799C78.6982 90.6711 78.477 90.752 78.2519 90.8227C77.7709 90.9737 77.3387 91.2826 77.081 91.723C76.9378 91.948 76.8605 92.1907 76.8486 92.4515C76.7902 92.7118 76.802 92.9722 76.8836 93.2327C77.0369 93.7067 77.3307 94.1639 77.7839 94.4033C78.241 94.6449 78.7862 94.7599 79.2934 94.6008C80.6612 94.1717 81.8976 93.4505 82.9434 92.47C83.3027 92.1332 83.5172 91.5706 83.5172 91.0848C83.5172 90.6043 83.3039 90.0303 82.9434 89.6996C82.57 89.3569 82.0799 89.1025 81.5582 89.1257C81.0291 89.1495 80.5639 89.3329 80.173 89.6996Z" fill="#133029"/>
</svg>
