<svg width="60" height="60" viewBox="0 0 60 60" fill="none" xmlns="http://www.w3.org/2000/svg">
<circle cx="30" cy="30" r="30" fill="url(#paint0_linear_193_11708)"/>
<circle cx="30" cy="30" r="30" fill="url(#paint1_radial_193_11708)" fill-opacity="0.5"/>
<path d="M27.61 33.3102C27.51 32.7102 27.48 32.1902 27.52 31.7502C27.58 31.2902 27.68 30.8802 27.82 30.5202C27.98 30.1602 28.18 29.8402 28.42 29.5602C28.66 29.2602 28.92 28.9602 29.2 28.6602C29.5 28.3402 29.82 28.0202 30.16 27.7002C30.52 27.3802 30.86 27.0502 31.18 26.7102C31.5 26.3702 31.76 26.0202 31.96 25.6602C32.18 25.2802 32.3 24.8802 32.32 24.4602C32.34 23.7402 32.11 23.2102 31.63 22.8702C31.17 22.5302 30.58 22.3502 29.86 22.3302C29.48 22.3102 29.11 22.3302 28.75 22.3902C28.41 22.4502 28.1 22.5702 27.82 22.7502C27.56 22.9102 27.34 23.1402 27.16 23.4402C26.98 23.7402 26.88 24.1302 26.86 24.6102H22.78C22.76 23.7102 22.94 22.8402 23.32 22.0002C23.7 21.1602 24.25 20.4702 24.97 19.9302C25.51 19.5302 26.16 19.2002 26.92 18.9402C27.68 18.6602 28.66 18.5102 29.86 18.4902C30.7 18.4902 31.5 18.5602 32.26 18.7002C33.04 18.8402 33.73 19.1102 34.33 19.5102C35.01 19.9502 35.55 20.5502 35.95 21.3102C36.37 22.0502 36.57 22.9702 36.55 24.0702C36.55 24.8902 36.4 25.6102 36.1 26.2302C35.82 26.8502 35.41 27.4602 34.87 28.0602C34.47 28.4802 34.07 28.8802 33.67 29.2602C33.27 29.6202 32.9 30.0102 32.56 30.4302C32.24 30.8302 31.97 31.2602 31.75 31.7202C31.55 32.1802 31.46 32.7102 31.48 33.3102H27.61ZM29.65 35.1402C30.47 35.1402 31.11 35.3802 31.57 35.8602C32.03 36.3402 32.26 36.9702 32.26 37.7502C32.26 38.5302 32.03 39.1502 31.57 39.6102C31.11 40.0502 30.47 40.2702 29.65 40.2702C28.83 40.2702 28.18 40.0502 27.7 39.6102C27.24 39.1702 27.01 38.5502 27.01 37.7502C27.01 36.9702 27.24 36.3402 27.7 35.8602C28.18 35.3802 28.83 35.1402 29.65 35.1402Z" fill="#855C29"/>
<defs>
<linearGradient id="paint0_linear_193_11708" x1="62.6962" y1="-2.9392" x2="-14.0869" y2="5.73432" gradientUnits="userSpaceOnUse">
<stop stop-color="#FFE9C8"/>
<stop offset="0.197278" stop-color="#FFD9AD"/>
<stop offset="0.480812" stop-color="#FFDDB5"/>
<stop offset="0.696698" stop-color="#FFDDB5"/>
<stop offset="1" stop-color="#FFCC8F"/>
</linearGradient>
<radialGradient id="paint1_radial_193_11708" cx="0" cy="0" r="1" gradientUnits="userSpaceOnUse" gradientTransform="translate(30 1.33556) rotate(90) scale(33.0808)">
<stop stop-color="#F7F7F7"/>
<stop offset="1" stop-color="#F7F7F7" stop-opacity="0"/>
</radialGradient>
</defs>
</svg>
