<svg width="82" height="82" viewBox="0 0 82 82" fill="none" xmlns="http://www.w3.org/2000/svg">
<rect width="82" height="82" rx="41" fill="url(#paint0_linear_97_2369)"/>
<rect width="82" height="82" rx="41" fill="url(#paint1_radial_97_2369)"/>
<rect width="82" height="82" rx="41" fill="url(#paint2_radial_97_2369)"/>
<path d="M41.0791 35.3865C37.9422 35.3865 35.3822 37.9464 35.3822 41.0833C35.3822 44.2202 37.9422 46.7802 41.0791 46.7802C44.216 46.7802 46.7759 44.2202 46.7759 41.0833C46.7759 37.9464 44.216 35.3865 41.0791 35.3865ZM58.1654 41.0833C58.1654 38.7242 58.1868 36.3865 58.0543 34.0317C57.9218 31.2965 57.2978 28.869 55.2977 26.8689C53.2934 24.8646 50.8702 24.2449 48.135 24.1124C45.7759 23.9799 43.4382 24.0013 41.0833 24.0013C38.7242 24.0013 36.3865 23.9799 34.0317 24.1124C31.2965 24.2449 28.869 24.8688 26.8689 26.8689C24.8646 28.8733 24.2449 31.2965 24.1124 34.0317C23.9799 36.3908 24.0013 38.7285 24.0013 41.0833C24.0013 43.4382 23.9799 45.7802 24.1124 48.135C24.2449 50.8702 24.8688 53.2976 26.8689 55.2977C28.8733 57.3021 31.2965 57.9218 34.0317 58.0543C36.3908 58.1868 38.7285 58.1654 41.0833 58.1654C43.4424 58.1654 45.7802 58.1868 48.135 58.0543C50.8702 57.9218 53.2976 57.2978 55.2977 55.2977C57.3021 53.2934 57.9218 50.8702 58.0543 48.135C58.191 45.7802 58.1654 43.4424 58.1654 41.0833ZM41.0791 49.8487C36.2284 49.8487 32.3137 45.934 32.3137 41.0833C32.3137 36.2327 36.2284 32.3179 41.0791 32.3179C45.9297 32.3179 49.8445 36.2327 49.8445 41.0833C49.8445 45.934 45.9297 49.8487 41.0791 49.8487ZM50.2035 34.0061C49.0709 34.0061 48.1563 33.0915 48.1563 31.9589C48.1563 30.8264 49.0709 29.9118 50.2035 29.9118C51.336 29.9118 52.2506 30.8264 52.2506 31.9589C52.2509 32.2279 52.1982 32.4942 52.0954 32.7427C51.9927 32.9913 51.8419 33.2171 51.6517 33.4072C51.4616 33.5974 51.2358 33.7482 50.9873 33.8509C50.7387 33.9537 50.4724 34.0064 50.2035 34.0061Z" fill="#F7F7F7"/>
<path d="M59.6368 24.2915L59.7698 20.7434L56.7761 22.6505L56 21.2978L59.1489 19.6569L56 18.0159L56.7761 16.641L59.7698 18.5481L59.6368 15H61.1891L61.056 18.5481L64.0497 16.641L64.8258 18.0159L61.6769 19.6569L64.8258 21.2978L64.0497 22.6505L61.056 20.7434L61.1891 24.2915H59.6368Z" fill="#F7F7F7"/>
<defs>
<linearGradient id="paint0_linear_97_2369" x1="15.7021" y1="3.09761e-07" x2="67.1702" y2="76.766" gradientUnits="userSpaceOnUse">
<stop stop-color="#7B1AE8"/>
<stop offset="0.447915" stop-color="#E131BA"/>
<stop offset="1" stop-color="#CD358B"/>
</linearGradient>
<radialGradient id="paint1_radial_97_2369" cx="0" cy="0" r="1" gradientUnits="userSpaceOnUse" gradientTransform="translate(14.8298 73.2766) rotate(-50.5275) scale(57.6339)">
<stop stop-color="#ECB43E"/>
<stop offset="1" stop-color="#ECB43E" stop-opacity="0"/>
</radialGradient>
<radialGradient id="paint2_radial_97_2369" cx="0" cy="0" r="1" gradientUnits="userSpaceOnUse" gradientTransform="translate(82 35.766) rotate(153.905) scale(47.5965)">
<stop stop-color="#E33164"/>
<stop offset="1" stop-color="#E33164" stop-opacity="0"/>
</radialGradient>
</defs>
</svg>
