<svg width="40" height="40" viewBox="0 0 40 40" fill="none" xmlns="http://www.w3.org/2000/svg">
<path fill-rule="evenodd" clip-rule="evenodd" d="M21.5188 2.7016C21.5188 1.92217 20.887 1.29031 20.1075 1.29031C19.3281 1.29031 18.6962 1.92217 18.6962 2.7016V7.4059C18.6962 8.18534 19.3281 8.81719 20.1075 8.81719C20.887 8.81719 21.5188 8.18534 21.5188 7.4059V2.7016ZM21.5188 33.2796C21.5188 32.5001 20.887 31.8683 20.1075 31.8683C19.3281 31.8683 18.6962 32.5001 18.6962 33.2796V37.5134C18.6962 38.2929 19.3281 38.9247 20.1075 38.9247C20.887 38.9247 21.5188 38.2929 21.5188 37.5134V33.2796ZM33.4134 6.80189C33.9645 7.35304 33.9645 8.24662 33.4134 8.79776L30.0869 12.1242C29.5358 12.6753 28.6422 12.6753 28.0911 12.1242C27.5399 11.5731 27.5399 10.6795 28.0911 10.1283L31.4175 6.80189C31.9687 6.25075 32.8622 6.25075 33.4134 6.80189ZM11.7915 30.4196C12.3426 29.8685 12.3426 28.9749 11.7915 28.4238C11.2404 27.8726 10.3468 27.8726 9.79564 28.4238L6.80184 31.4176C6.2507 31.9687 6.2507 32.8623 6.80184 33.4134C7.35298 33.9646 8.24656 33.9646 8.79771 33.4134L11.7915 30.4196ZM38.9247 20.1075C38.9247 20.8869 38.2929 21.5188 37.5135 21.5188H32.8092C32.0297 21.5188 31.3979 20.8869 31.3979 20.1075C31.3979 19.3281 32.0297 18.6962 32.8092 18.6962H37.5135C38.2929 18.6962 38.9247 19.3281 38.9247 20.1075ZM6.93549 21.5188C7.71492 21.5188 8.34678 20.8869 8.34678 20.1075C8.34678 19.3281 7.71492 18.6962 6.93549 18.6962H2.70162C1.92219 18.6962 1.29033 19.3281 1.29033 20.1075C1.29033 20.8869 1.92218 21.5188 2.70162 21.5188H6.93549ZM33.4136 33.4134C32.8625 33.9645 31.9689 33.9645 31.4178 33.4134L28.0913 30.0869C27.5402 29.5358 27.5402 28.6422 28.0913 28.091C28.6425 27.5399 29.536 27.5399 30.0872 28.091L33.4136 31.4175C33.9648 31.9686 33.9648 32.8622 33.4136 33.4134ZM9.79543 11.7915C10.3466 12.3426 11.2401 12.3426 11.7913 11.7915C12.3424 11.2403 12.3424 10.3468 11.7913 9.79562L8.79749 6.80182C8.24635 6.25068 7.35277 6.25068 6.80163 6.80182C6.25049 7.35297 6.25049 8.24655 6.80163 8.79769L9.79543 11.7915Z" fill="#855C29"/>
</svg>
