<svg width="40" height="40" viewBox="0 0 40 40" fill="none" xmlns="http://www.w3.org/2000/svg">
<path fill-rule="evenodd" clip-rule="evenodd" d="M21.5188 2.70133C21.5188 1.9219 20.8869 1.29004 20.1075 1.29004C19.3281 1.29004 18.6962 1.9219 18.6962 2.70133V7.40563C18.6962 8.18506 19.3281 8.81692 20.1075 8.81692C20.8869 8.81692 21.5188 8.18506 21.5188 7.40563V2.70133ZM21.5188 33.2793C21.5188 32.4998 20.8869 31.868 20.1075 31.868C19.3281 31.868 18.6962 32.4998 18.6962 33.2793V37.5131C18.6962 38.2926 19.3281 38.9244 20.1075 38.9244C20.8869 38.9244 21.5188 38.2926 21.5188 37.5131V33.2793ZM33.4134 6.80162C33.9645 7.35276 33.9645 8.24634 33.4134 8.79749L30.0869 12.1239C29.5358 12.6751 28.6422 12.6751 28.0911 12.1239C27.5399 11.5728 27.5399 10.6792 28.0911 10.1281L31.4175 6.80162C31.9686 6.25048 32.8622 6.25048 33.4134 6.80162ZM11.7915 30.4193C12.3426 29.8682 12.3426 28.9746 11.7915 28.4235C11.2403 27.8723 10.3468 27.8723 9.79562 28.4235L6.80182 31.4173C6.25068 31.9684 6.25068 32.862 6.80182 33.4131C7.35297 33.9643 8.24655 33.9643 8.79769 33.4131L11.7915 30.4193ZM38.9247 20.1076C38.9247 20.887 38.2929 21.5189 37.5134 21.5189H32.8091C32.0297 21.5189 31.3978 20.887 31.3978 20.1076C31.3978 19.3281 32.0297 18.6963 32.8091 18.6963H37.5134C38.2929 18.6963 38.9247 19.3281 38.9247 20.1076ZM6.93547 21.5189C7.71491 21.5189 8.34676 20.887 8.34676 20.1076C8.34676 19.3281 7.71491 18.6963 6.93547 18.6963H2.7016C1.92217 18.6963 1.29031 19.3281 1.29031 20.1076C1.29031 20.887 1.92217 21.5189 2.7016 21.5189H6.93547ZM33.4136 33.4131C32.8625 33.9642 31.9689 33.9642 31.4177 33.4131L28.0913 30.0866C27.5402 29.5355 27.5402 28.6419 28.0913 28.0908C28.6424 27.5396 29.536 27.5396 30.0872 28.0908L33.4136 31.4172C33.9648 31.9684 33.9648 32.8619 33.4136 33.4131ZM9.79541 11.7909C10.3466 12.342 11.2401 12.342 11.7913 11.7909C12.3424 11.2398 12.3424 10.3462 11.7913 9.79504L8.79748 6.80124C8.24633 6.25009 7.35275 6.25009 6.80161 6.80124C6.25047 7.35238 6.25047 8.24596 6.80161 8.7971L9.79541 11.7909Z" fill="#F7F7F7"/>
</svg>
