<svg width="60" height="60" viewBox="0 0 60 60" fill="none" xmlns="http://www.w3.org/2000/svg">
<path d="M42 22.435V37.465C42 47.15 34.165 55 24.5 55C14.835 55 7.00001 47.15 7.00001 37.465V22.435C6.99673 18.1138 8.59008 13.9437 11.474 10.7256C14.358 7.50758 18.3292 5.46849 22.625 5V13.4625C21.1475 14.1675 20.125 15.6775 20.125 17.425V22.435C20.125 24.8575 22.085 26.82 24.5 26.82C26.915 26.82 28.875 24.8575 28.875 22.435V17.425C28.875 15.675 27.8525 14.1675 26.375 13.4625V5C30.6708 5.46849 34.642 7.50758 37.526 10.7256C40.4099 13.9437 42.0033 18.1138 42 22.435Z" fill="url(#paint0_linear_105_2454)"/>
<path d="M42 22.435V37.465C42 47.15 34.165 55 24.5 55C14.835 55 7.00001 47.15 7.00001 37.465V22.435C6.99673 18.1138 8.59008 13.9437 11.474 10.7256C14.358 7.50758 18.3292 5.46849 22.625 5V13.4625C21.1475 14.1675 20.125 15.6775 20.125 17.425V22.435C20.125 24.8575 22.085 26.82 24.5 26.82C26.915 26.82 28.875 24.8575 28.875 22.435V17.425C28.875 15.675 27.8525 14.1675 26.375 13.4625V5C30.6708 5.46849 34.642 7.50758 37.526 10.7256C40.4099 13.9437 42.0033 18.1138 42 22.435Z" fill="url(#paint1_radial_105_2454)" fill-opacity="0.5"/>
<path d="M52.4697 42.5303C52.7626 42.8232 53.2374 42.8232 53.5303 42.5303L58.3033 37.7574C58.5962 37.4645 58.5962 36.9896 58.3033 36.6967C58.0104 36.4038 57.5355 36.4038 57.2426 36.6967L53 40.9393L48.7574 36.6967C48.4645 36.4038 47.9896 36.4038 47.6967 36.6967C47.4038 36.9896 47.4038 37.4645 47.6967 37.7574L52.4697 42.5303ZM52.25 17L52.25 42L53.75 42L53.75 17L52.25 17Z" fill="url(#paint2_linear_105_2454)"/>
<path d="M52.4697 42.5303C52.7626 42.8232 53.2374 42.8232 53.5303 42.5303L58.3033 37.7574C58.5962 37.4645 58.5962 36.9896 58.3033 36.6967C58.0104 36.4038 57.5355 36.4038 57.2426 36.6967L53 40.9393L48.7574 36.6967C48.4645 36.4038 47.9896 36.4038 47.6967 36.6967C47.4038 36.9896 47.4038 37.4645 47.6967 37.7574L52.4697 42.5303ZM52.25 17L52.25 42L53.75 42L53.75 17L52.25 17Z" fill="url(#paint3_radial_105_2454)" fill-opacity="0.5"/>
<defs>
<linearGradient id="paint0_linear_105_2454" x1="43.5728" y1="2.55067" x2="-1.50703" y2="6.11526" gradientUnits="userSpaceOnUse">
<stop stop-color="#FFE9C8"/>
<stop offset="0.197278" stop-color="#FFD9AD"/>
<stop offset="0.480812" stop-color="#FFDDB5"/>
<stop offset="0.696698" stop-color="#FFDDB5"/>
<stop offset="1" stop-color="#FFCC8F"/>
</linearGradient>
<radialGradient id="paint1_radial_105_2454" cx="0" cy="0" r="1" gradientUnits="userSpaceOnUse" gradientTransform="translate(24.5 6.11297) rotate(90) scale(27.5673 19.2971)">
<stop stop-color="#F7F7F7"/>
<stop offset="1" stop-color="#F7F7F7" stop-opacity="0"/>
</radialGradient>
<linearGradient id="paint2_linear_105_2454" x1="53.049" y1="43.1234" x2="42.8539" y2="39.5133" gradientUnits="userSpaceOnUse">
<stop stop-color="#FFE9C8"/>
<stop offset="0.197278" stop-color="#FFD9AD"/>
<stop offset="0.480812" stop-color="#FFDDB5"/>
<stop offset="0.696698" stop-color="#FFDDB5"/>
<stop offset="1" stop-color="#FFCC8F"/>
</linearGradient>
<radialGradient id="paint3_radial_105_2454" cx="0" cy="0" r="1" gradientUnits="userSpaceOnUse" gradientTransform="translate(52.9777 29.5) rotate(-180) scale(0.551346 13.7837)">
<stop stop-color="#F7F7F7"/>
<stop offset="1" stop-color="#F7F7F7" stop-opacity="0"/>
</radialGradient>
</defs>
</svg>
