<svg display="none" xmlns="http://www.w3.org/2000/svg">

    <symbol id="mail" viewBox="0 0 32 26">
        <path
            d="M32 6.746V21C32 22.3261 31.4732 23.5979 30.5355 24.5355C29.5979 25.4732 28.3261 26 27 26H5C3.67392 26 2.40215 25.4732 1.46447 24.5355C0.526784 23.5979 0 22.3261 0 21V6.746L15.492 15.862C15.6459 15.9528 15.8213 16.0006 16 16.0006C16.1787 16.0006 16.3541 15.9528 16.508 15.862L32 6.746ZM27 6.19054e-08C28.2303 -0.000193432 29.4175 0.453213 30.3344 1.27348C31.2514 2.09375 31.8337 3.22328 31.97 4.446L16 13.84L0.0300002 4.446C0.166317 3.22328 0.748648 2.09375 1.66559 1.27348C2.58253 0.453213 3.76971 -0.000193432 5 6.19054e-08H27Z" />
    </symbol>

    <symbol id="whatsapp" viewBox="0 0 30 30">
        <path
            d="M15.8727 30H14.232C13.8064 29.953 13.3793 29.9149 12.9552 29.8533C10.8313 29.5681 8.79577 28.8208 6.99192 27.6641C6.91861 27.6111 6.83325 27.5773 6.74356 27.5656C6.65388 27.554 6.5627 27.5649 6.47829 27.5973C5.47963 27.9282 4.47584 28.2451 3.47426 28.5657C2.75238 28.797 2.03051 29.0265 1.27885 29.2656C1.15828 29.3039 1.04111 29.1897 1.08145 29.0697C1.6259 27.4462 2.16008 25.8182 2.72655 24.1976C2.83148 23.8954 2.79406 23.6841 2.61722 23.4266C1.15488 21.326 0.273951 18.8763 0.063721 16.3256C-0.217311 13.1196 0.423999 10.0956 2.11386 7.35394C4.9183 2.80536 9.02665 0.333721 14.3677 0.0248576C17.3248 -0.146081 20.108 0.566285 22.6409 2.10987C26.535 4.48393 28.9227 7.92545 29.7636 12.419C29.8685 12.981 29.9206 13.5532 29.9969 14.1211V15.8818C29.9724 16.0931 29.948 16.3039 29.9235 16.5142C29.5654 19.7312 28.3408 22.5719 26.1769 24.9826C23.8641 27.5577 20.9958 29.1644 17.5801 29.7696C17.0137 29.8665 16.4413 29.9266 15.8727 30ZM18.5646 23.1923C19.4055 23.3791 20.3073 23.4752 21.1227 23.1977C23.247 22.4743 23.9698 21.4479 24.0321 19.4942C24.0424 19.1854 23.9345 18.9734 23.6506 18.8384C22.533 18.3072 21.4229 17.7599 20.3009 17.2376C19.7279 16.9705 19.3918 17.0798 19.0117 17.5904C18.7182 17.9815 18.4357 18.3784 18.1356 18.7643C17.6785 19.3512 17.3556 19.4246 16.6615 19.1406C14.1923 18.1326 12.3565 16.4027 10.9785 14.1519C10.7026 13.6999 10.7172 13.5099 11.068 13.1042C11.3483 12.7792 11.6389 12.4623 11.9184 12.1366C12.2633 11.7345 12.4086 11.3009 12.1239 10.7969C12.0557 10.6568 11.9952 10.513 11.9426 10.3663C11.5163 9.36192 11.0973 8.3539 10.6534 7.35834C10.58 7.19694 10.4135 7.00473 10.2572 6.96805C9.4581 6.78243 8.65243 6.77069 7.96563 7.29745C7.34743 7.78151 6.87927 8.43098 6.6155 9.17044C6.06664 10.6436 6.24275 12.0786 6.8503 13.4938C7.29643 14.5348 7.95095 15.4467 8.61648 16.3484C9.72869 17.8721 11.0437 19.2368 12.5252 20.4047C14.127 21.6519 15.9556 22.4413 17.8817 23.0172C18.1073 23.0849 18.3363 23.1416 18.5646 23.1923Z" />
    </symbol>

    <symbol id="arrow-up" viewBox="0 0 43 43">
        <path
            d="M42.25 3.25C42.25 1.86929 41.1307 0.750005 39.75 0.750002L17.25 0.750003C15.8693 0.750003 14.75 1.86929 14.75 3.25C14.75 4.63072 15.8693 5.75 17.25 5.75H37.25V25.75C37.25 27.1307 38.3693 28.25 39.75 28.25C41.1307 28.25 42.25 27.1307 42.25 25.75L42.25 3.25ZM4.01777 42.5178L41.5178 5.01777L37.9822 1.48224L0.482233 38.9822L4.01777 42.5178Z" />
    </symbol>


    <symbol id="calendar" viewBox="0 0 25 25">
        <path fill-rule="evenodd" clip-rule="evenodd"
            d="M0 9.375V20C0 22.7614 2.23858 25 5 25H20C22.7614 25 25 22.7614 25 20V9.375H0ZM0 7.5H25V5C25 2.23858 22.7614 0 20 0H5C2.23858 0 0 2.23858 0 5V7.5ZM21.25 3.75C21.25 4.44036 20.6904 5 20 5C19.3096 5 18.75 4.44036 18.75 3.75C18.75 3.05964 19.3096 2.5 20 2.5C20.6904 2.5 21.25 3.05964 21.25 3.75ZM15 5C15.6904 5 16.25 4.44036 16.25 3.75C16.25 3.05964 15.6904 2.5 15 2.5C14.3096 2.5 13.75 3.05964 13.75 3.75C13.75 4.44036 14.3096 5 15 5Z" />
    </symbol>

    <symbol id="loader" viewBox="0 0 40 40">
        <path fill-rule="evenodd" clip-rule="evenodd"
            d="M21.5188 2.7016C21.5188 1.92217 20.887 1.29031 20.1075 1.29031C19.3281 1.29031 18.6962 1.92217 18.6962 2.7016V7.4059C18.6962 8.18534 19.3281 8.81719 20.1075 8.81719C20.887 8.81719 21.5188 8.18534 21.5188 7.4059V2.7016ZM21.5188 33.2796C21.5188 32.5001 20.887 31.8683 20.1075 31.8683C19.3281 31.8683 18.6962 32.5001 18.6962 33.2796V37.5134C18.6962 38.2929 19.3281 38.9247 20.1075 38.9247C20.887 38.9247 21.5188 38.2929 21.5188 37.5134V33.2796ZM33.4134 6.80189C33.9645 7.35304 33.9645 8.24662 33.4134 8.79776L30.0869 12.1242C29.5358 12.6753 28.6422 12.6753 28.0911 12.1242C27.5399 11.5731 27.5399 10.6795 28.0911 10.1283L31.4175 6.80189C31.9687 6.25075 32.8622 6.25075 33.4134 6.80189ZM11.7915 30.4196C12.3426 29.8685 12.3426 28.9749 11.7915 28.4238C11.2404 27.8726 10.3468 27.8726 9.79564 28.4238L6.80184 31.4176C6.2507 31.9687 6.2507 32.8623 6.80184 33.4134C7.35298 33.9646 8.24656 33.9646 8.79771 33.4134L11.7915 30.4196ZM38.9247 20.1075C38.9247 20.8869 38.2929 21.5188 37.5135 21.5188H32.8092C32.0297 21.5188 31.3979 20.8869 31.3979 20.1075C31.3979 19.3281 32.0297 18.6962 32.8092 18.6962H37.5135C38.2929 18.6962 38.9247 19.3281 38.9247 20.1075ZM6.93549 21.5188C7.71492 21.5188 8.34678 20.8869 8.34678 20.1075C8.34678 19.3281 7.71492 18.6962 6.93549 18.6962H2.70162C1.92219 18.6962 1.29033 19.3281 1.29033 20.1075C1.29033 20.8869 1.92218 21.5188 2.70162 21.5188H6.93549ZM33.4136 33.4134C32.8625 33.9645 31.9689 33.9645 31.4178 33.4134L28.0913 30.0869C27.5402 29.5358 27.5402 28.6422 28.0913 28.091C28.6425 27.5399 29.536 27.5399 30.0872 28.091L33.4136 31.4175C33.9648 31.9686 33.9648 32.8622 33.4136 33.4134ZM9.79543 11.7915C10.3466 12.3426 11.2401 12.3426 11.7913 11.7915C12.3424 11.2403 12.3424 10.3468 11.7913 9.79562L8.79749 6.80182C8.24635 6.25068 7.35277 6.25068 6.80163 6.80182C6.25049 7.35297 6.25049 8.24655 6.80163 8.79769L9.79543 11.7915Z" />
    </symbol>


</svg>