<svg width="82" height="82" viewBox="0 0 82 82" fill="none" xmlns="http://www.w3.org/2000/svg">
<rect width="82" height="82" rx="41" fill="#5DA8E0"/>
<path d="M17.3006 41.6224C21.495 39.2792 26.1771 37.3233 30.5518 35.3576C38.0781 32.1378 45.6342 28.9739 53.2665 26.0282C54.7515 25.5264 57.4197 25.0356 57.6813 27.2676C57.538 30.427 56.9487 33.5679 56.5445 36.7088C55.5185 43.616 54.3326 50.4995 53.1762 57.3839C52.7778 59.6771 49.9455 60.8642 48.1332 59.3966C43.7779 56.4129 39.3892 53.4581 35.0895 50.4051C33.681 48.9536 34.9871 46.8691 36.245 45.8325C39.8321 42.247 43.6364 39.2007 47.036 35.4299C47.9531 33.1839 45.2435 35.0768 44.3497 35.6568C39.4389 39.0891 34.6482 42.7311 29.4707 45.7476C26.826 47.2242 23.7436 45.9624 21.1001 45.1385C18.7299 44.1431 15.2566 43.1403 17.3003 41.6227L17.3006 41.6224Z" fill="#F7F7F7"/>
</svg>
