<svg width="30" height="30" viewBox="0 0 30 30" fill="none" xmlns="http://www.w3.org/2000/svg">
<path fill-rule="evenodd" clip-rule="evenodd" d="M6.25 6.25C5.25544 6.25 4.30161 6.64509 3.59835 7.34835C2.89509 8.05161 2.5 9.00544 2.5 10V20C2.5 20.9946 2.89509 21.9484 3.59835 22.6517C4.30161 23.3549 5.25544 23.75 6.25 23.75H18.75C19.7446 23.75 20.6984 23.3549 21.4017 22.6517C22.1049 21.9484 22.5 20.9946 22.5 20V18.0175L25.3663 20.8838C25.5411 21.0585 25.7638 21.1775 26.0062 21.2257C26.2487 21.2739 26.4999 21.2492 26.7283 21.1546C26.9567 21.06 27.1519 20.8998 27.2893 20.6943C27.4266 20.4888 27.5 20.2472 27.5 20V10C27.5 9.75281 27.4266 9.51119 27.2893 9.30568C27.1519 9.10016 26.9567 8.93999 26.7283 8.8454C26.4999 8.75082 26.2487 8.72606 26.0062 8.77427C25.7638 8.82248 25.5411 8.94149 25.3663 9.11625L22.5 11.9825V10C22.5 9.00544 22.1049 8.05161 21.4017 7.34835C20.6984 6.64509 19.7446 6.25 18.75 6.25H6.25Z" fill="#855C29"/>
</svg>
