<svg width="100" height="60" viewBox="0 0 100 60" fill="none" xmlns="http://www.w3.org/2000/svg">
<path d="M87.5402 34.9427C83.9619 41.6435 78.521 47.3887 72.0306 51.5429C65.584 55.8025 57.8636 58.0929 50.1347 58.4615C42.3703 58.6967 34.4213 56.6457 28.0649 52.1768C21.6648 47.8349 16.5197 41.8051 13.2705 34.9427C15.2837 38.1527 17.6341 41.1229 20.2895 43.7686C22.9022 46.4507 25.8279 48.8085 28.9966 50.7254C35.2953 54.6588 42.7015 56.474 50.0459 56.2222C53.7242 56.0025 57.4182 55.5392 60.9466 54.4287C64.5234 53.4795 67.9036 51.9002 71.1345 50.0783C74.3661 48.244 77.3826 45.9966 80.109 43.4264C82.8943 40.9119 85.3748 38.0518 87.5402 34.9427Z" fill="#855C29"/>
<path d="M87.5402 34.9423C87.5402 34.9423 80.4784 7.91299 50.4054 5.47815C50.4054 5.47815 21.7932 5.72164 13.2705 34.9423C13.2705 34.9423 45.1699 4.99091 87.5402 34.9423Z" fill="#855C29"/>
<path d="M15.1112 33.4125C13.509 33.0338 12.0539 32.1899 10.7825 31.1524C9.49128 30.1225 8.41005 28.8322 7.54494 27.4104C6.71167 25.9738 6.04951 24.4166 5.78456 22.7775C5.44404 21.1615 5.49945 19.4828 5.84359 17.8967C6.43292 19.4374 6.8503 20.8995 7.46342 22.2841C8.02813 23.6761 8.6958 24.9981 9.46538 26.2556C10.9612 28.8165 12.8802 31.0717 15.1112 33.4125Z" fill="#855C29"/>
<path d="M30.5687 24.9843C29.2557 24.0929 28.1946 22.917 27.2845 21.6527C26.3627 20.3887 25.6473 18.9861 25.06 17.531C24.5002 16.0657 24.1043 14.5268 23.9678 12.9558C23.7833 11.396 23.9306 9.78997 24.3503 8.27905C24.8656 9.78636 25.1985 11.2135 25.6829 12.6089C26.147 13.9995 26.5952 15.3768 27.1501 16.7226C28.1751 19.4552 29.3975 22.0809 30.5687 24.9843Z" fill="#855C29"/>
<path d="M84.8887 33.4125C87.1198 31.0717 89.0387 28.8165 90.5346 26.2556C91.304 24.9981 91.9718 23.6761 92.5366 22.2841C93.1497 20.8995 93.567 19.4374 94.1564 17.8967C94.5005 19.4828 94.5559 21.1615 94.2154 22.7775C93.9505 24.4166 93.2883 25.9738 92.4548 27.4104C91.5899 28.8322 90.5087 30.1225 89.2175 31.1524C87.946 32.1899 86.491 33.0338 84.8887 33.4125Z" fill="#855C29"/>
<path d="M69.4314 24.9843C70.6026 22.0809 71.825 19.4552 72.85 16.7226C73.4049 15.3768 73.8531 13.9995 74.3172 12.6089C74.8016 11.2135 75.1345 9.78636 75.6498 8.27905C76.0695 9.78997 76.2168 11.396 76.0323 12.9558C75.8958 14.5268 75.4999 16.0657 74.9401 17.531C74.3526 18.9861 73.6374 20.3887 72.7156 21.6527C71.8053 22.917 70.7444 24.0929 69.4314 24.9843Z" fill="#855C29"/>
<path d="M49.2385 21.631C47.6078 20.6449 46.6319 18.861 45.9508 17.1433C45.2672 15.3897 44.901 13.5396 44.7361 11.6998C44.6614 10.7763 44.6607 9.85553 44.645 8.93522C44.7178 8.01809 44.721 7.09994 44.8594 6.19215C45.0881 4.37531 45.494 2.58458 46.1438 0.851807C46.4215 2.69179 46.5069 4.47722 46.6081 6.25118C46.7325 8.02216 46.7969 9.77422 46.9686 11.5068C47.0809 13.247 47.3289 14.9536 47.6235 16.6533C47.9702 18.3415 48.3292 20.0386 49.2385 21.631Z" fill="#855C29"/>
<path fill-rule="evenodd" clip-rule="evenodd" d="M64.701 37.0927C64.701 45.6323 57.7784 52.5549 49.2388 52.5549C40.6993 52.5549 33.7767 45.6323 33.7767 37.0927C33.7767 28.5532 40.6993 21.6306 49.2388 21.6306C57.7784 21.6306 64.701 28.5532 64.701 37.0927ZM63.4331 33.6032C63.4331 36.2257 61.3071 38.3517 58.6846 38.3517C56.0621 38.3517 53.9362 36.2257 53.9362 33.6032C53.9362 30.9807 56.0621 28.8547 58.6846 28.8547C61.3071 28.8547 63.4331 30.9807 63.4331 33.6032Z" fill="#855C29"/>
</svg>
