<svg width="82" height="82" viewBox="0 0 82 82" fill="none" xmlns="http://www.w3.org/2000/svg">
<rect width="82" height="82" rx="41" fill="url(#paint0_linear_97_2361)"/>
<g clip-path="url(#clip0_97_2361)">
<path fill-rule="evenodd" clip-rule="evenodd" d="M59.0604 32.1625C59.344 31.2297 59.0604 30.543 57.7023 30.543H53.2179C52.0768 30.543 51.5506 31.1358 51.2653 31.7901C51.2653 31.7901 48.9847 37.2499 45.7542 40.7964C44.7087 41.8248 44.2338 42.1511 43.6632 42.1511C43.3779 42.1511 42.9491 41.8248 42.9491 40.8903V32.1625C42.9491 31.0418 42.6348 30.543 41.685 30.543H34.633C33.9206 30.543 33.4918 31.0623 33.4918 31.556C33.4918 32.6169 35.1079 32.8629 35.2736 35.8491V42.3373C35.2736 43.7603 35.0122 44.0183 34.4416 44.0183C32.9212 44.0183 29.2227 38.5328 27.0275 32.2564C26.6021 31.035 26.1716 30.543 25.0253 30.543H20.5375C19.2562 30.543 19 31.1358 19 31.7901C19 32.9551 20.5204 38.743 26.081 46.398C29.7881 51.6255 35.0071 54.4596 39.7614 54.4596C42.6126 54.4596 42.9645 53.831 42.9645 52.7462V48.7948C42.9645 47.5358 43.2344 47.2846 44.1381 47.2846C44.8044 47.2846 45.9438 47.6126 48.6054 50.1324C51.6463 53.1203 52.1468 54.4596 53.8585 54.4596H58.3429C59.6242 54.4596 60.2665 53.831 59.8975 52.5873C59.4909 51.3505 58.0388 49.555 56.1135 47.4247C55.068 46.2118 53.4998 44.9049 53.0232 44.2506C52.3586 43.4118 52.5483 43.0377 53.0232 42.2912C53.0232 42.2912 58.4898 34.7301 59.0587 32.1625H59.0604Z" fill="#F7F7F7"/>
</g>
<defs>
<linearGradient id="paint0_linear_97_2361" x1="37.3129" y1="-51.1096" x2="104.775" y2="34.5731" gradientUnits="userSpaceOnUse">
<stop stop-color="#3375F6"/>
<stop offset="0.0001" stop-color="#376BD1"/>
<stop offset="1" stop-color="#3375F6"/>
</linearGradient>
<clipPath id="clip0_97_2361">
<rect width="41" height="41" fill="white" transform="translate(19 22)"/>
</clipPath>
</defs>
</svg>
